%TF.GenerationSoftware,KiCad,Pcbnew,(6.0.4-0)*%
%TF.CreationDate,2023-04-02T18:55:50-05:00*%
%TF.ProjectId,noldaCoreRType,6e6f6c64-6143-46f7-9265-52547970652e,rev?*%
%TF.SameCoordinates,Original*%
%TF.FileFunction,Legend,Bot*%
%TF.FilePolarity,Positive*%
%FSLAX46Y46*%
G04 Gerber Fmt 4.6, Leading zero omitted, Abs format (unit mm)*
G04 Created by KiCad (PCBNEW (6.0.4-0)) date 2023-04-02 18:55:50*
%MOMM*%
%LPD*%
G01*
G04 APERTURE LIST*
%ADD10C,0.150000*%
G04 APERTURE END LIST*
D10*
X33500000Y-49375000D02*
X60000000Y-49375000D01*
X60000000Y-49375000D02*
X60000000Y-18875000D01*
X60000000Y-18875000D02*
X33500000Y-18875000D01*
X33500000Y-18875000D02*
X33500000Y-49375000D01*
%TO.C,SW10*%
X65249966Y-86749962D02*
X65249966Y-87749962D01*
X65249966Y-73749962D02*
X65249966Y-74749962D01*
X65249966Y-73749962D02*
X66249966Y-73749962D01*
X79249966Y-87749962D02*
X78249966Y-87749962D01*
X79249966Y-87749962D02*
X79249966Y-86749962D01*
X79249966Y-73749962D02*
X78249966Y-73749962D01*
X78249966Y-73749962D02*
X79249966Y-73749962D01*
X79249966Y-74749962D02*
X79249966Y-73749962D01*
X66249966Y-87749962D02*
X65249966Y-87749962D01*
%TO.C,SW7*%
X14249990Y-73749962D02*
X14249990Y-74749962D01*
X28249990Y-87749962D02*
X27249990Y-87749962D01*
X15249990Y-87749962D02*
X14249990Y-87749962D01*
X28249990Y-74749962D02*
X28249990Y-73749962D01*
X14249990Y-87749962D02*
X15249990Y-87749962D01*
X27249990Y-73749962D02*
X28249990Y-73749962D01*
X14249990Y-86749962D02*
X14249990Y-87749962D01*
X28249990Y-87749962D02*
X28249990Y-86749962D01*
X14249990Y-73749962D02*
X15249990Y-73749962D01*
%TO.C,SW5*%
X65249966Y-56749970D02*
X65249966Y-57749970D01*
X66249966Y-70749970D02*
X65249966Y-70749970D01*
X79249966Y-70749970D02*
X79249966Y-69749970D01*
X65249966Y-69749970D02*
X65249966Y-70749970D01*
X65249966Y-56749970D02*
X66249966Y-56749970D01*
X79249966Y-70749970D02*
X78249966Y-70749970D01*
X78249966Y-56749970D02*
X79249966Y-56749970D01*
X79249966Y-56749970D02*
X78249966Y-56749970D01*
X79249966Y-57749970D02*
X79249966Y-56749970D01*
%TO.C,SW3*%
X45249982Y-70749970D02*
X45249982Y-69749970D01*
X31249982Y-56749970D02*
X31249982Y-57749970D01*
X31249982Y-69749970D02*
X31249982Y-70749970D01*
X44249982Y-56749970D02*
X45249982Y-56749970D01*
X31249982Y-70749970D02*
X32249982Y-70749970D01*
X45249982Y-70749970D02*
X44249982Y-70749970D01*
X45249982Y-57749970D02*
X45249982Y-56749970D01*
X31249982Y-56749970D02*
X32249982Y-56749970D01*
X32249982Y-70749970D02*
X31249982Y-70749970D01*
%TO.C,SW9*%
X62249974Y-74749962D02*
X62249974Y-73749962D01*
X48249974Y-73749962D02*
X48249974Y-74749962D01*
X62249974Y-73749962D02*
X61249974Y-73749962D01*
X61249974Y-73749962D02*
X62249974Y-73749962D01*
X48249974Y-86749962D02*
X48249974Y-87749962D01*
X62249974Y-87749962D02*
X62249974Y-86749962D01*
X48249974Y-73749962D02*
X49249974Y-73749962D01*
X49249974Y-87749962D02*
X48249974Y-87749962D01*
X62249974Y-87749962D02*
X61249974Y-87749962D01*
%TO.C,SW8*%
X45249982Y-73749962D02*
X44249982Y-73749962D01*
X31249982Y-73749962D02*
X31249982Y-74749962D01*
X44249982Y-73749962D02*
X45249982Y-73749962D01*
X31249982Y-86749962D02*
X31249982Y-87749962D01*
X45249982Y-74749962D02*
X45249982Y-73749962D01*
X45249982Y-87749962D02*
X45249982Y-86749962D01*
X45249982Y-87749962D02*
X44249982Y-87749962D01*
X31249982Y-73749962D02*
X32249982Y-73749962D01*
X32249982Y-87749962D02*
X31249982Y-87749962D01*
%TO.C,SW2*%
X14249990Y-70749970D02*
X15249990Y-70749970D01*
X27249990Y-56749970D02*
X28249990Y-56749970D01*
X28249990Y-70749970D02*
X27249990Y-70749970D01*
X15249990Y-70749970D02*
X14249990Y-70749970D01*
X14249990Y-69749970D02*
X14249990Y-70749970D01*
X14249990Y-56749970D02*
X15249990Y-56749970D01*
X28249990Y-57749970D02*
X28249990Y-56749970D01*
X28249990Y-70749970D02*
X28249990Y-69749970D01*
X14249990Y-56749970D02*
X14249990Y-57749970D01*
%TO.C,SW4*%
X48249974Y-70749970D02*
X49249974Y-70749970D01*
X61249974Y-56749970D02*
X62249974Y-56749970D01*
X48249974Y-56749970D02*
X49249974Y-56749970D01*
X48249974Y-69749970D02*
X48249974Y-70749970D01*
X62249974Y-70749970D02*
X61249974Y-70749970D01*
X49249974Y-70749970D02*
X48249974Y-70749970D01*
X62249974Y-57749970D02*
X62249974Y-56749970D01*
X48249974Y-56749970D02*
X48249974Y-57749970D01*
X62249974Y-70749970D02*
X62249974Y-69749970D01*
%TD*%
M02*
