%FSLAX45Y45*%
G04 Gerber Fmt 4.5, Leading zero omitted, Abs format (unit mm)*
G04 Created by KiCad (PCBNEW (6.0.4-0)) date 2023-04-02 18:55:56*
%MOMM*%
%LPD*%
G01*
G04 APERTURE LIST*
%TA.AperFunction,Profile*%
%ADD10C,0.100000*%
%TD*%
%ADD11C,0.200000*%
%ADD12C,0.065000*%
%ADD13C,0.090000*%
%ADD14C,0.099060*%
%ADD15C,0.170180*%
%ADD16C,0.300000*%
%ADD17C,0.342900*%
G04 APERTURE END LIST*
D10*
X1274999Y-8712496D02*
G75*
G03*
X1487499Y-8924996I212500J0D01*
G01*
X7862496Y-8924996D02*
G75*
G03*
X8074996Y-8712496I0J212500D01*
G01*
X8074996Y-1487499D02*
G75*
G03*
X7862496Y-1274999I-212500J0D01*
G01*
X1487499Y-1274999D02*
G75*
G03*
X1274999Y-1487499I0J-212500D01*
G01*
X8074996Y-8712496D02*
X8074996Y-1487499D01*
X4179165Y-5308331D02*
G75*
G03*
X4254165Y-5383331I75000J0D01*
G01*
X1487499Y-1274999D02*
X7862496Y-1274999D01*
X1487499Y-8924996D02*
X7862496Y-8924996D01*
X5095831Y-5383331D02*
G75*
G03*
X5170831Y-5308331I0J75000D01*
G01*
X5170831Y-5212500D02*
G75*
G03*
X5095831Y-5137500I-75000J0D01*
G01*
X4179165Y-5308331D02*
X4179165Y-5212500D01*
X4254165Y-5137500D02*
X5095831Y-5137500D01*
X1274999Y-1487499D02*
X1274999Y-8712496D01*
X4254165Y-5137500D02*
G75*
G03*
X4179165Y-5212500I0J-75000D01*
G01*
X5095831Y-5383331D02*
X4254165Y-5383331D01*
X5170831Y-5308331D02*
X5170831Y-5212500D01*
D11*
D12*
X4353498Y-1715499D02*
X4418498Y-1780499D01*
X4418498Y-1715499D02*
X4353498Y-1780499D01*
X4931498Y-1715499D02*
X4996498Y-1780499D01*
X4996498Y-1715499D02*
X4931498Y-1780499D01*
D13*
X6482497Y-1454499D02*
G75*
G03*
X6482497Y-1454499I-45000J0D01*
G01*
X6782497Y-1454499D02*
G75*
G03*
X6782497Y-1454499I-45000J0D01*
G01*
D14*
X1602999Y-5905467D02*
X1602999Y-6004527D01*
X1553469Y-5954997D02*
X1652529Y-5954997D01*
X1602999Y-7605466D02*
X1602999Y-7704526D01*
X1553469Y-7654996D02*
X1652529Y-7654996D01*
X3302998Y-5905467D02*
X3302998Y-6004527D01*
X3253468Y-5954997D02*
X3352528Y-5954997D01*
X4346998Y-8445466D02*
X4346998Y-8544526D01*
X4297468Y-8494996D02*
X4396528Y-8494996D01*
X5002997Y-5905467D02*
X5002997Y-6004527D01*
X4953467Y-5954997D02*
X5052527Y-5954997D01*
X6046997Y-8445466D02*
X6046997Y-8544526D01*
X5997467Y-8494996D02*
X6096527Y-8494996D01*
X7746997Y-6745467D02*
X7746997Y-6844527D01*
X7697467Y-6794997D02*
X7796527Y-6794997D01*
X7746997Y-8445466D02*
X7746997Y-8544526D01*
X7697467Y-8494996D02*
X7796527Y-8494996D01*
D15*
X1635167Y-6435165D02*
X1635167Y-6314829D01*
X1514831Y-6314829D01*
X1514831Y-6435165D01*
X1635167Y-6435165D01*
X1635167Y-8135164D02*
X1635167Y-8014828D01*
X1514831Y-8014828D01*
X1514831Y-8135164D01*
X1635167Y-8135164D01*
X2735167Y-6435165D02*
X2735167Y-6314829D01*
X2614831Y-6314829D01*
X2614831Y-6435165D01*
X2735167Y-6435165D01*
X2735167Y-8135164D02*
X2735167Y-8014828D01*
X2614831Y-8014828D01*
X2614831Y-8135164D01*
X2735167Y-8135164D01*
X3335166Y-6435165D02*
X3335166Y-6314829D01*
X3214830Y-6314829D01*
X3214830Y-6435165D01*
X3335166Y-6435165D01*
X3335166Y-8135164D02*
X3335166Y-8014828D01*
X3214830Y-8014828D01*
X3214830Y-8135164D01*
X3335166Y-8135164D01*
X4435167Y-6435165D02*
X4435167Y-6314829D01*
X4314830Y-6314829D01*
X4314830Y-6435165D01*
X4435167Y-6435165D01*
X4435167Y-8135164D02*
X4435167Y-8014828D01*
X4314830Y-8014828D01*
X4314830Y-8135164D01*
X4435167Y-8135164D01*
X5035166Y-6435165D02*
X5035166Y-6314829D01*
X4914829Y-6314829D01*
X4914829Y-6435165D01*
X5035166Y-6435165D01*
X5035166Y-8135164D02*
X5035166Y-8014828D01*
X4914829Y-8014828D01*
X4914829Y-8135164D01*
X5035166Y-8135164D01*
X6135166Y-6435165D02*
X6135166Y-6314829D01*
X6014829Y-6314829D01*
X6014829Y-6435165D01*
X6135166Y-6435165D01*
X6135166Y-8135164D02*
X6135166Y-8014828D01*
X6014829Y-8014828D01*
X6014829Y-8135164D01*
X6135166Y-8135164D01*
X6735165Y-6435165D02*
X6735165Y-6314829D01*
X6614828Y-6314829D01*
X6614828Y-6435165D01*
X6735165Y-6435165D01*
X6735165Y-8135164D02*
X6735165Y-8014828D01*
X6614828Y-8014828D01*
X6614828Y-8135164D01*
X6735165Y-8135164D01*
X7835165Y-6435165D02*
X7835165Y-6314829D01*
X7714828Y-6314829D01*
X7714828Y-6435165D01*
X7835165Y-6435165D01*
X7835165Y-8135164D02*
X7835165Y-8014828D01*
X7714828Y-8014828D01*
X7714828Y-8135164D01*
X7835165Y-8135164D01*
D16*
X2124999Y-7119997D02*
X2274999Y-6969997D01*
X2124999Y-6819997D01*
X1974999Y-6969997D01*
X2124999Y-7119997D01*
X2124999Y-8819996D02*
X2274999Y-8669996D01*
X2124999Y-8519996D01*
X1974999Y-8669996D01*
X2124999Y-8819996D01*
X2624999Y-6899997D02*
X2774999Y-6749997D01*
X2624999Y-6599997D01*
X2474999Y-6749997D01*
X2624999Y-6899997D01*
X2624999Y-8599996D02*
X2774999Y-8449996D01*
X2624999Y-8299996D01*
X2474999Y-8449996D01*
X2624999Y-8599996D01*
X3324998Y-7849996D02*
X3474998Y-7699996D01*
X3324998Y-7549996D01*
X3174998Y-7699996D01*
X3324998Y-7849996D01*
X3824998Y-7119997D02*
X3974998Y-6969997D01*
X3824998Y-6819997D01*
X3674998Y-6969997D01*
X3824998Y-7119997D01*
X3824998Y-7629996D02*
X3974998Y-7479996D01*
X3824998Y-7329996D01*
X3674998Y-7479996D01*
X3824998Y-7629996D01*
X4324998Y-6899997D02*
X4474998Y-6749997D01*
X4324998Y-6599997D01*
X4174998Y-6749997D01*
X4324998Y-6899997D01*
X5024997Y-7849996D02*
X5174997Y-7699996D01*
X5024997Y-7549996D01*
X4874997Y-7699996D01*
X5024997Y-7849996D01*
X5524997Y-7119997D02*
X5674997Y-6969997D01*
X5524997Y-6819997D01*
X5374997Y-6969997D01*
X5524997Y-7119997D01*
X5524997Y-7629996D02*
X5674997Y-7479996D01*
X5524997Y-7329996D01*
X5374997Y-7479996D01*
X5524997Y-7629996D01*
X6024997Y-6899997D02*
X6174997Y-6749997D01*
X6024997Y-6599997D01*
X5874997Y-6749997D01*
X6024997Y-6899997D01*
X6724997Y-6149997D02*
X6874997Y-5999997D01*
X6724997Y-5849997D01*
X6574997Y-5999997D01*
X6724997Y-6149997D01*
X6724997Y-7849996D02*
X6874997Y-7699996D01*
X6724997Y-7549996D01*
X6574997Y-7699996D01*
X6724997Y-7849996D01*
X7224997Y-5929997D02*
X7374997Y-5779997D01*
X7224997Y-5629997D01*
X7074997Y-5779997D01*
X7224997Y-5929997D01*
X7224997Y-7629996D02*
X7374997Y-7479996D01*
X7224997Y-7329996D01*
X7074997Y-7479996D01*
X7224997Y-7629996D01*
D17*
X1953549Y-6203547D02*
X2296449Y-6546447D01*
X2296449Y-6203547D02*
X1953549Y-6546447D01*
X2296449Y-6374997D02*
G75*
G03*
X2296449Y-6374997I-171450J0D01*
G01*
X1953549Y-7903546D02*
X2296449Y-8246446D01*
X2296449Y-7903546D02*
X1953549Y-8246446D01*
X2296449Y-8074996D02*
G75*
G03*
X2296449Y-8074996I-171450J0D01*
G01*
X3653548Y-6203547D02*
X3996448Y-6546447D01*
X3996448Y-6203547D02*
X3653548Y-6546447D01*
X3996448Y-6374997D02*
G75*
G03*
X3996448Y-6374997I-171450J0D01*
G01*
X3653548Y-7903546D02*
X3996448Y-8246446D01*
X3996448Y-7903546D02*
X3653548Y-8246446D01*
X3996448Y-8074996D02*
G75*
G03*
X3996448Y-8074996I-171450J0D01*
G01*
X5353547Y-6203547D02*
X5696447Y-6546447D01*
X5696447Y-6203547D02*
X5353547Y-6546447D01*
X5696447Y-6374997D02*
G75*
G03*
X5696447Y-6374997I-171450J0D01*
G01*
X5353547Y-7903546D02*
X5696447Y-8246446D01*
X5696447Y-7903546D02*
X5353547Y-8246446D01*
X5696447Y-8074996D02*
G75*
G03*
X5696447Y-8074996I-171450J0D01*
G01*
X7053547Y-6203547D02*
X7396447Y-6546447D01*
X7396447Y-6203547D02*
X7053547Y-6546447D01*
X7396447Y-6374997D02*
G75*
G03*
X7396447Y-6374997I-171450J0D01*
G01*
X7053547Y-7903546D02*
X7396447Y-8246446D01*
X7396447Y-7903546D02*
X7053547Y-8246446D01*
X7396447Y-8074996D02*
G75*
G03*
X7396447Y-8074996I-171450J0D01*
G01*
D11*
X1527618Y-9240472D02*
X1527618Y-9040472D01*
X1575237Y-9040472D01*
X1603809Y-9049996D01*
X1622856Y-9069043D01*
X1632380Y-9088091D01*
X1641904Y-9126186D01*
X1641904Y-9154758D01*
X1632380Y-9192853D01*
X1622856Y-9211901D01*
X1603809Y-9230948D01*
X1575237Y-9240472D01*
X1527618Y-9240472D01*
X1727618Y-9240472D02*
X1727618Y-9107139D01*
X1727618Y-9145234D02*
X1737142Y-9126186D01*
X1746666Y-9116662D01*
X1765714Y-9107139D01*
X1784761Y-9107139D01*
X1851428Y-9240472D02*
X1851428Y-9107139D01*
X1851428Y-9040472D02*
X1841904Y-9049996D01*
X1851428Y-9059520D01*
X1860952Y-9049996D01*
X1851428Y-9040472D01*
X1851428Y-9059520D01*
X1975237Y-9240472D02*
X1956190Y-9230948D01*
X1946666Y-9211901D01*
X1946666Y-9040472D01*
X2079999Y-9240472D02*
X2060952Y-9230948D01*
X2051428Y-9211901D01*
X2051428Y-9040472D01*
X2308571Y-9240472D02*
X2308571Y-9040472D01*
X2375237Y-9183329D01*
X2441904Y-9040472D01*
X2441904Y-9240472D01*
X2622857Y-9240472D02*
X2622857Y-9135710D01*
X2613333Y-9116662D01*
X2594285Y-9107139D01*
X2556190Y-9107139D01*
X2537142Y-9116662D01*
X2622857Y-9230948D02*
X2603809Y-9240472D01*
X2556190Y-9240472D01*
X2537142Y-9230948D01*
X2527618Y-9211901D01*
X2527618Y-9192853D01*
X2537142Y-9173805D01*
X2556190Y-9164282D01*
X2603809Y-9164282D01*
X2622857Y-9154758D01*
X2718095Y-9107139D02*
X2718095Y-9307139D01*
X2718095Y-9116662D02*
X2737142Y-9107139D01*
X2775237Y-9107139D01*
X2794285Y-9116662D01*
X2803809Y-9126186D01*
X2813333Y-9145234D01*
X2813333Y-9202377D01*
X2803809Y-9221424D01*
X2794285Y-9230948D01*
X2775237Y-9240472D01*
X2737142Y-9240472D01*
X2718095Y-9230948D01*
X2899047Y-9221424D02*
X2908571Y-9230948D01*
X2899047Y-9240472D01*
X2889523Y-9230948D01*
X2899047Y-9221424D01*
X2899047Y-9240472D01*
X2899047Y-9116662D02*
X2908571Y-9126186D01*
X2899047Y-9135710D01*
X2889523Y-9126186D01*
X2899047Y-9116662D01*
X2899047Y-9135710D01*
D12*
X1204999Y-9537496D02*
X1269999Y-9602496D01*
X1269999Y-9537496D02*
X1204999Y-9602496D01*
D11*
X1565714Y-9460472D02*
X1584761Y-9460472D01*
X1603809Y-9469996D01*
X1613333Y-9479520D01*
X1622856Y-9498567D01*
X1632380Y-9536662D01*
X1632380Y-9584282D01*
X1622856Y-9622377D01*
X1613333Y-9641424D01*
X1603809Y-9650948D01*
X1584761Y-9660472D01*
X1565714Y-9660472D01*
X1546666Y-9650948D01*
X1537142Y-9641424D01*
X1527618Y-9622377D01*
X1518095Y-9584282D01*
X1518095Y-9536662D01*
X1527618Y-9498567D01*
X1537142Y-9479520D01*
X1546666Y-9469996D01*
X1565714Y-9460472D01*
X1718095Y-9641424D02*
X1727618Y-9650948D01*
X1718095Y-9660472D01*
X1708571Y-9650948D01*
X1718095Y-9641424D01*
X1718095Y-9660472D01*
X1899047Y-9460472D02*
X1860952Y-9460472D01*
X1841904Y-9469996D01*
X1832380Y-9479520D01*
X1813333Y-9508091D01*
X1803809Y-9546186D01*
X1803809Y-9622377D01*
X1813333Y-9641424D01*
X1822856Y-9650948D01*
X1841904Y-9660472D01*
X1879999Y-9660472D01*
X1899047Y-9650948D01*
X1908571Y-9641424D01*
X1918095Y-9622377D01*
X1918095Y-9574758D01*
X1908571Y-9555710D01*
X1899047Y-9546186D01*
X1879999Y-9536662D01*
X1841904Y-9536662D01*
X1822856Y-9546186D01*
X1813333Y-9555710D01*
X1803809Y-9574758D01*
X2099047Y-9460472D02*
X2003809Y-9460472D01*
X1994285Y-9555710D01*
X2003809Y-9546186D01*
X2022856Y-9536662D01*
X2070475Y-9536662D01*
X2089523Y-9546186D01*
X2099047Y-9555710D01*
X2108571Y-9574758D01*
X2108571Y-9622377D01*
X2099047Y-9641424D01*
X2089523Y-9650948D01*
X2070475Y-9660472D01*
X2022856Y-9660472D01*
X2003809Y-9650948D01*
X1994285Y-9641424D01*
X2232380Y-9460472D02*
X2251428Y-9460472D01*
X2270476Y-9469996D01*
X2279999Y-9479520D01*
X2289523Y-9498567D01*
X2299047Y-9536662D01*
X2299047Y-9584282D01*
X2289523Y-9622377D01*
X2279999Y-9641424D01*
X2270476Y-9650948D01*
X2251428Y-9660472D01*
X2232380Y-9660472D01*
X2213333Y-9650948D01*
X2203809Y-9641424D01*
X2194285Y-9622377D01*
X2184761Y-9584282D01*
X2184761Y-9536662D01*
X2194285Y-9498567D01*
X2203809Y-9479520D01*
X2213333Y-9469996D01*
X2232380Y-9460472D01*
X2384761Y-9660472D02*
X2384761Y-9527139D01*
X2384761Y-9546186D02*
X2394285Y-9536662D01*
X2413333Y-9527139D01*
X2441904Y-9527139D01*
X2460952Y-9536662D01*
X2470476Y-9555710D01*
X2470476Y-9660472D01*
X2470476Y-9555710D02*
X2479999Y-9536662D01*
X2499047Y-9527139D01*
X2527618Y-9527139D01*
X2546666Y-9536662D01*
X2556190Y-9555710D01*
X2556190Y-9660472D01*
X2651428Y-9660472D02*
X2651428Y-9527139D01*
X2651428Y-9546186D02*
X2660952Y-9536662D01*
X2679999Y-9527139D01*
X2708571Y-9527139D01*
X2727618Y-9536662D01*
X2737142Y-9555710D01*
X2737142Y-9660472D01*
X2737142Y-9555710D02*
X2746666Y-9536662D01*
X2765714Y-9527139D01*
X2794285Y-9527139D01*
X2813333Y-9536662D01*
X2822856Y-9555710D01*
X2822856Y-9660472D01*
X3213333Y-9450948D02*
X3041904Y-9708091D01*
X3470475Y-9460472D02*
X3489523Y-9460472D01*
X3508571Y-9469996D01*
X3518095Y-9479520D01*
X3527618Y-9498567D01*
X3537142Y-9536662D01*
X3537142Y-9584282D01*
X3527618Y-9622377D01*
X3518095Y-9641424D01*
X3508571Y-9650948D01*
X3489523Y-9660472D01*
X3470475Y-9660472D01*
X3451428Y-9650948D01*
X3441904Y-9641424D01*
X3432380Y-9622377D01*
X3422856Y-9584282D01*
X3422856Y-9536662D01*
X3432380Y-9498567D01*
X3441904Y-9479520D01*
X3451428Y-9469996D01*
X3470475Y-9460472D01*
X3622856Y-9641424D02*
X3632380Y-9650948D01*
X3622856Y-9660472D01*
X3613333Y-9650948D01*
X3622856Y-9641424D01*
X3622856Y-9660472D01*
X3756190Y-9460472D02*
X3775237Y-9460472D01*
X3794285Y-9469996D01*
X3803809Y-9479520D01*
X3813333Y-9498567D01*
X3822856Y-9536662D01*
X3822856Y-9584282D01*
X3813333Y-9622377D01*
X3803809Y-9641424D01*
X3794285Y-9650948D01*
X3775237Y-9660472D01*
X3756190Y-9660472D01*
X3737142Y-9650948D01*
X3727618Y-9641424D01*
X3718095Y-9622377D01*
X3708571Y-9584282D01*
X3708571Y-9536662D01*
X3718095Y-9498567D01*
X3727618Y-9479520D01*
X3737142Y-9469996D01*
X3756190Y-9460472D01*
X3899047Y-9479520D02*
X3908571Y-9469996D01*
X3927618Y-9460472D01*
X3975237Y-9460472D01*
X3994285Y-9469996D01*
X4003809Y-9479520D01*
X4013333Y-9498567D01*
X4013333Y-9517615D01*
X4003809Y-9546186D01*
X3889523Y-9660472D01*
X4013333Y-9660472D01*
X4194285Y-9460472D02*
X4099047Y-9460472D01*
X4089523Y-9555710D01*
X4099047Y-9546186D01*
X4118095Y-9536662D01*
X4165714Y-9536662D01*
X4184761Y-9546186D01*
X4194285Y-9555710D01*
X4203809Y-9574758D01*
X4203809Y-9622377D01*
X4194285Y-9641424D01*
X4184761Y-9650948D01*
X4165714Y-9660472D01*
X4118095Y-9660472D01*
X4099047Y-9650948D01*
X4089523Y-9641424D01*
X4375237Y-9460472D02*
X4337142Y-9460472D01*
X4318095Y-9469996D01*
X4308571Y-9479520D01*
X4289523Y-9508091D01*
X4279999Y-9546186D01*
X4279999Y-9622377D01*
X4289523Y-9641424D01*
X4299047Y-9650948D01*
X4318095Y-9660472D01*
X4356190Y-9660472D01*
X4375237Y-9650948D01*
X4384761Y-9641424D01*
X4394285Y-9622377D01*
X4394285Y-9574758D01*
X4384761Y-9555710D01*
X4375237Y-9546186D01*
X4356190Y-9536662D01*
X4318095Y-9536662D01*
X4299047Y-9546186D01*
X4289523Y-9555710D01*
X4279999Y-9574758D01*
X4470476Y-9460472D02*
X4470476Y-9498567D01*
X4546666Y-9460472D02*
X4546666Y-9498567D01*
X4841904Y-9736662D02*
X4832380Y-9727139D01*
X4813333Y-9698567D01*
X4803809Y-9679520D01*
X4794285Y-9650948D01*
X4784761Y-9603329D01*
X4784761Y-9565234D01*
X4794285Y-9517615D01*
X4803809Y-9489043D01*
X4813333Y-9469996D01*
X4832380Y-9441424D01*
X4841904Y-9431901D01*
X4908571Y-9479520D02*
X4918095Y-9469996D01*
X4937142Y-9460472D01*
X4984761Y-9460472D01*
X5003809Y-9469996D01*
X5013333Y-9479520D01*
X5022857Y-9498567D01*
X5022857Y-9517615D01*
X5013333Y-9546186D01*
X4899047Y-9660472D01*
X5022857Y-9660472D01*
X5260952Y-9660472D02*
X5260952Y-9460472D01*
X5346666Y-9660472D02*
X5346666Y-9555710D01*
X5337142Y-9536662D01*
X5318095Y-9527139D01*
X5289523Y-9527139D01*
X5270476Y-9536662D01*
X5260952Y-9546186D01*
X5470476Y-9660472D02*
X5451428Y-9650948D01*
X5441904Y-9641424D01*
X5432380Y-9622377D01*
X5432380Y-9565234D01*
X5441904Y-9546186D01*
X5451428Y-9536662D01*
X5470476Y-9527139D01*
X5499047Y-9527139D01*
X5518095Y-9536662D01*
X5527618Y-9546186D01*
X5537142Y-9565234D01*
X5537142Y-9622377D01*
X5527618Y-9641424D01*
X5518095Y-9650948D01*
X5499047Y-9660472D01*
X5470476Y-9660472D01*
X5651428Y-9660472D02*
X5632380Y-9650948D01*
X5622856Y-9631901D01*
X5622856Y-9460472D01*
X5803809Y-9650948D02*
X5784761Y-9660472D01*
X5746666Y-9660472D01*
X5727618Y-9650948D01*
X5718095Y-9631901D01*
X5718095Y-9555710D01*
X5727618Y-9536662D01*
X5746666Y-9527139D01*
X5784761Y-9527139D01*
X5803809Y-9536662D01*
X5813333Y-9555710D01*
X5813333Y-9574758D01*
X5718095Y-9593805D01*
X5889523Y-9650948D02*
X5908571Y-9660472D01*
X5946666Y-9660472D01*
X5965714Y-9650948D01*
X5975237Y-9631901D01*
X5975237Y-9622377D01*
X5965714Y-9603329D01*
X5946666Y-9593805D01*
X5918095Y-9593805D01*
X5899047Y-9584282D01*
X5889523Y-9565234D01*
X5889523Y-9555710D01*
X5899047Y-9536662D01*
X5918095Y-9527139D01*
X5946666Y-9527139D01*
X5965714Y-9536662D01*
X6041904Y-9736662D02*
X6051428Y-9727139D01*
X6070475Y-9698567D01*
X6079999Y-9679520D01*
X6089523Y-9650948D01*
X6099047Y-9603329D01*
X6099047Y-9565234D01*
X6089523Y-9517615D01*
X6079999Y-9489043D01*
X6070475Y-9469996D01*
X6051428Y-9441424D01*
X6041904Y-9431901D01*
X6403809Y-9736662D02*
X6394285Y-9727139D01*
X6375237Y-9698567D01*
X6365714Y-9679520D01*
X6356190Y-9650948D01*
X6346666Y-9603329D01*
X6346666Y-9565234D01*
X6356190Y-9517615D01*
X6365714Y-9489043D01*
X6375237Y-9469996D01*
X6394285Y-9441424D01*
X6403809Y-9431901D01*
X6479999Y-9527139D02*
X6479999Y-9660472D01*
X6479999Y-9546186D02*
X6489523Y-9536662D01*
X6508571Y-9527139D01*
X6537142Y-9527139D01*
X6556190Y-9536662D01*
X6565714Y-9555710D01*
X6565714Y-9660472D01*
X6689523Y-9660472D02*
X6670475Y-9650948D01*
X6660952Y-9641424D01*
X6651428Y-9622377D01*
X6651428Y-9565234D01*
X6660952Y-9546186D01*
X6670475Y-9536662D01*
X6689523Y-9527139D01*
X6718095Y-9527139D01*
X6737142Y-9536662D01*
X6746666Y-9546186D01*
X6756190Y-9565234D01*
X6756190Y-9622377D01*
X6746666Y-9641424D01*
X6737142Y-9650948D01*
X6718095Y-9660472D01*
X6689523Y-9660472D01*
X6813333Y-9527139D02*
X6889523Y-9527139D01*
X6841904Y-9460472D02*
X6841904Y-9631901D01*
X6851428Y-9650948D01*
X6870475Y-9660472D01*
X6889523Y-9660472D01*
X7108571Y-9527139D02*
X7108571Y-9727139D01*
X7108571Y-9536662D02*
X7127618Y-9527139D01*
X7165714Y-9527139D01*
X7184761Y-9536662D01*
X7194285Y-9546186D01*
X7203809Y-9565234D01*
X7203809Y-9622377D01*
X7194285Y-9641424D01*
X7184761Y-9650948D01*
X7165714Y-9660472D01*
X7127618Y-9660472D01*
X7108571Y-9650948D01*
X7318095Y-9660472D02*
X7299047Y-9650948D01*
X7289523Y-9631901D01*
X7289523Y-9460472D01*
X7479999Y-9660472D02*
X7479999Y-9555710D01*
X7470475Y-9536662D01*
X7451428Y-9527139D01*
X7413333Y-9527139D01*
X7394285Y-9536662D01*
X7479999Y-9650948D02*
X7460952Y-9660472D01*
X7413333Y-9660472D01*
X7394285Y-9650948D01*
X7384761Y-9631901D01*
X7384761Y-9612853D01*
X7394285Y-9593805D01*
X7413333Y-9584282D01*
X7460952Y-9584282D01*
X7479999Y-9574758D01*
X7546666Y-9527139D02*
X7622856Y-9527139D01*
X7575237Y-9460472D02*
X7575237Y-9631901D01*
X7584761Y-9650948D01*
X7603809Y-9660472D01*
X7622856Y-9660472D01*
X7765714Y-9650948D02*
X7746666Y-9660472D01*
X7708571Y-9660472D01*
X7689523Y-9650948D01*
X7679999Y-9631901D01*
X7679999Y-9555710D01*
X7689523Y-9536662D01*
X7708571Y-9527139D01*
X7746666Y-9527139D01*
X7765714Y-9536662D01*
X7775237Y-9555710D01*
X7775237Y-9574758D01*
X7679999Y-9593805D01*
X7946666Y-9660472D02*
X7946666Y-9460472D01*
X7946666Y-9650948D02*
X7927618Y-9660472D01*
X7889523Y-9660472D01*
X7870475Y-9650948D01*
X7860952Y-9641424D01*
X7851428Y-9622377D01*
X7851428Y-9565234D01*
X7860952Y-9546186D01*
X7870475Y-9536662D01*
X7889523Y-9527139D01*
X7927618Y-9527139D01*
X7946666Y-9536662D01*
X8022856Y-9736662D02*
X8032380Y-9727139D01*
X8051428Y-9698567D01*
X8060952Y-9679520D01*
X8070475Y-9650948D01*
X8079999Y-9603329D01*
X8079999Y-9565234D01*
X8070475Y-9517615D01*
X8060952Y-9489043D01*
X8051428Y-9469996D01*
X8032380Y-9441424D01*
X8022856Y-9431901D01*
D13*
X1269999Y-9833996D02*
G75*
G03*
X1269999Y-9833996I-45000J0D01*
G01*
D11*
X1565714Y-9724472D02*
X1584761Y-9724472D01*
X1603809Y-9733996D01*
X1613333Y-9743520D01*
X1622856Y-9762567D01*
X1632380Y-9800662D01*
X1632380Y-9848282D01*
X1622856Y-9886377D01*
X1613333Y-9905424D01*
X1603809Y-9914948D01*
X1584761Y-9924472D01*
X1565714Y-9924472D01*
X1546666Y-9914948D01*
X1537142Y-9905424D01*
X1527618Y-9886377D01*
X1518095Y-9848282D01*
X1518095Y-9800662D01*
X1527618Y-9762567D01*
X1537142Y-9743520D01*
X1546666Y-9733996D01*
X1565714Y-9724472D01*
X1718095Y-9905424D02*
X1727618Y-9914948D01*
X1718095Y-9924472D01*
X1708571Y-9914948D01*
X1718095Y-9905424D01*
X1718095Y-9924472D01*
X1822856Y-9924472D02*
X1860952Y-9924472D01*
X1879999Y-9914948D01*
X1889523Y-9905424D01*
X1908571Y-9876853D01*
X1918095Y-9838758D01*
X1918095Y-9762567D01*
X1908571Y-9743520D01*
X1899047Y-9733996D01*
X1879999Y-9724472D01*
X1841904Y-9724472D01*
X1822856Y-9733996D01*
X1813333Y-9743520D01*
X1803809Y-9762567D01*
X1803809Y-9810186D01*
X1813333Y-9829234D01*
X1822856Y-9838758D01*
X1841904Y-9848282D01*
X1879999Y-9848282D01*
X1899047Y-9838758D01*
X1908571Y-9829234D01*
X1918095Y-9810186D01*
X2041904Y-9724472D02*
X2060952Y-9724472D01*
X2079999Y-9733996D01*
X2089523Y-9743520D01*
X2099047Y-9762567D01*
X2108571Y-9800662D01*
X2108571Y-9848282D01*
X2099047Y-9886377D01*
X2089523Y-9905424D01*
X2079999Y-9914948D01*
X2060952Y-9924472D01*
X2041904Y-9924472D01*
X2022856Y-9914948D01*
X2013333Y-9905424D01*
X2003809Y-9886377D01*
X1994285Y-9848282D01*
X1994285Y-9800662D01*
X2003809Y-9762567D01*
X2013333Y-9743520D01*
X2022856Y-9733996D01*
X2041904Y-9724472D01*
X2232380Y-9724472D02*
X2251428Y-9724472D01*
X2270476Y-9733996D01*
X2279999Y-9743520D01*
X2289523Y-9762567D01*
X2299047Y-9800662D01*
X2299047Y-9848282D01*
X2289523Y-9886377D01*
X2279999Y-9905424D01*
X2270476Y-9914948D01*
X2251428Y-9924472D01*
X2232380Y-9924472D01*
X2213333Y-9914948D01*
X2203809Y-9905424D01*
X2194285Y-9886377D01*
X2184761Y-9848282D01*
X2184761Y-9800662D01*
X2194285Y-9762567D01*
X2203809Y-9743520D01*
X2213333Y-9733996D01*
X2232380Y-9724472D01*
X2384761Y-9924472D02*
X2384761Y-9791139D01*
X2384761Y-9810186D02*
X2394285Y-9800662D01*
X2413333Y-9791139D01*
X2441904Y-9791139D01*
X2460952Y-9800662D01*
X2470476Y-9819710D01*
X2470476Y-9924472D01*
X2470476Y-9819710D02*
X2479999Y-9800662D01*
X2499047Y-9791139D01*
X2527618Y-9791139D01*
X2546666Y-9800662D01*
X2556190Y-9819710D01*
X2556190Y-9924472D01*
X2651428Y-9924472D02*
X2651428Y-9791139D01*
X2651428Y-9810186D02*
X2660952Y-9800662D01*
X2679999Y-9791139D01*
X2708571Y-9791139D01*
X2727618Y-9800662D01*
X2737142Y-9819710D01*
X2737142Y-9924472D01*
X2737142Y-9819710D02*
X2746666Y-9800662D01*
X2765714Y-9791139D01*
X2794285Y-9791139D01*
X2813333Y-9800662D01*
X2822856Y-9819710D01*
X2822856Y-9924472D01*
X3213333Y-9714948D02*
X3041904Y-9972091D01*
X3470475Y-9724472D02*
X3489523Y-9724472D01*
X3508571Y-9733996D01*
X3518095Y-9743520D01*
X3527618Y-9762567D01*
X3537142Y-9800662D01*
X3537142Y-9848282D01*
X3527618Y-9886377D01*
X3518095Y-9905424D01*
X3508571Y-9914948D01*
X3489523Y-9924472D01*
X3470475Y-9924472D01*
X3451428Y-9914948D01*
X3441904Y-9905424D01*
X3432380Y-9886377D01*
X3422856Y-9848282D01*
X3422856Y-9800662D01*
X3432380Y-9762567D01*
X3441904Y-9743520D01*
X3451428Y-9733996D01*
X3470475Y-9724472D01*
X3622856Y-9905424D02*
X3632380Y-9914948D01*
X3622856Y-9924472D01*
X3613333Y-9914948D01*
X3622856Y-9905424D01*
X3622856Y-9924472D01*
X3756190Y-9724472D02*
X3775237Y-9724472D01*
X3794285Y-9733996D01*
X3803809Y-9743520D01*
X3813333Y-9762567D01*
X3822856Y-9800662D01*
X3822856Y-9848282D01*
X3813333Y-9886377D01*
X3803809Y-9905424D01*
X3794285Y-9914948D01*
X3775237Y-9924472D01*
X3756190Y-9924472D01*
X3737142Y-9914948D01*
X3727618Y-9905424D01*
X3718095Y-9886377D01*
X3708571Y-9848282D01*
X3708571Y-9800662D01*
X3718095Y-9762567D01*
X3727618Y-9743520D01*
X3737142Y-9733996D01*
X3756190Y-9724472D01*
X3889523Y-9724472D02*
X4013333Y-9724472D01*
X3946666Y-9800662D01*
X3975237Y-9800662D01*
X3994285Y-9810186D01*
X4003809Y-9819710D01*
X4013333Y-9838758D01*
X4013333Y-9886377D01*
X4003809Y-9905424D01*
X3994285Y-9914948D01*
X3975237Y-9924472D01*
X3918095Y-9924472D01*
X3899047Y-9914948D01*
X3889523Y-9905424D01*
X4194285Y-9724472D02*
X4099047Y-9724472D01*
X4089523Y-9819710D01*
X4099047Y-9810186D01*
X4118095Y-9800662D01*
X4165714Y-9800662D01*
X4184761Y-9810186D01*
X4194285Y-9819710D01*
X4203809Y-9838758D01*
X4203809Y-9886377D01*
X4194285Y-9905424D01*
X4184761Y-9914948D01*
X4165714Y-9924472D01*
X4118095Y-9924472D01*
X4099047Y-9914948D01*
X4089523Y-9905424D01*
X4375237Y-9791139D02*
X4375237Y-9924472D01*
X4327618Y-9714948D02*
X4279999Y-9857805D01*
X4403809Y-9857805D01*
X4470476Y-9724472D02*
X4470476Y-9762567D01*
X4546666Y-9724472D02*
X4546666Y-9762567D01*
X4841904Y-10000662D02*
X4832380Y-9991139D01*
X4813333Y-9962567D01*
X4803809Y-9943520D01*
X4794285Y-9914948D01*
X4784761Y-9867329D01*
X4784761Y-9829234D01*
X4794285Y-9781615D01*
X4803809Y-9753043D01*
X4813333Y-9733996D01*
X4832380Y-9705424D01*
X4841904Y-9695901D01*
X4908571Y-9743520D02*
X4918095Y-9733996D01*
X4937142Y-9724472D01*
X4984761Y-9724472D01*
X5003809Y-9733996D01*
X5013333Y-9743520D01*
X5022857Y-9762567D01*
X5022857Y-9781615D01*
X5013333Y-9810186D01*
X4899047Y-9924472D01*
X5022857Y-9924472D01*
X5260952Y-9924472D02*
X5260952Y-9724472D01*
X5346666Y-9924472D02*
X5346666Y-9819710D01*
X5337142Y-9800662D01*
X5318095Y-9791139D01*
X5289523Y-9791139D01*
X5270476Y-9800662D01*
X5260952Y-9810186D01*
X5470476Y-9924472D02*
X5451428Y-9914948D01*
X5441904Y-9905424D01*
X5432380Y-9886377D01*
X5432380Y-9829234D01*
X5441904Y-9810186D01*
X5451428Y-9800662D01*
X5470476Y-9791139D01*
X5499047Y-9791139D01*
X5518095Y-9800662D01*
X5527618Y-9810186D01*
X5537142Y-9829234D01*
X5537142Y-9886377D01*
X5527618Y-9905424D01*
X5518095Y-9914948D01*
X5499047Y-9924472D01*
X5470476Y-9924472D01*
X5651428Y-9924472D02*
X5632380Y-9914948D01*
X5622856Y-9895901D01*
X5622856Y-9724472D01*
X5803809Y-9914948D02*
X5784761Y-9924472D01*
X5746666Y-9924472D01*
X5727618Y-9914948D01*
X5718095Y-9895901D01*
X5718095Y-9819710D01*
X5727618Y-9800662D01*
X5746666Y-9791139D01*
X5784761Y-9791139D01*
X5803809Y-9800662D01*
X5813333Y-9819710D01*
X5813333Y-9838758D01*
X5718095Y-9857805D01*
X5889523Y-9914948D02*
X5908571Y-9924472D01*
X5946666Y-9924472D01*
X5965714Y-9914948D01*
X5975237Y-9895901D01*
X5975237Y-9886377D01*
X5965714Y-9867329D01*
X5946666Y-9857805D01*
X5918095Y-9857805D01*
X5899047Y-9848282D01*
X5889523Y-9829234D01*
X5889523Y-9819710D01*
X5899047Y-9800662D01*
X5918095Y-9791139D01*
X5946666Y-9791139D01*
X5965714Y-9800662D01*
X6041904Y-10000662D02*
X6051428Y-9991139D01*
X6070475Y-9962567D01*
X6079999Y-9943520D01*
X6089523Y-9914948D01*
X6099047Y-9867329D01*
X6099047Y-9829234D01*
X6089523Y-9781615D01*
X6079999Y-9753043D01*
X6070475Y-9733996D01*
X6051428Y-9705424D01*
X6041904Y-9695901D01*
X6403809Y-10000662D02*
X6394285Y-9991139D01*
X6375237Y-9962567D01*
X6365714Y-9943520D01*
X6356190Y-9914948D01*
X6346666Y-9867329D01*
X6346666Y-9829234D01*
X6356190Y-9781615D01*
X6365714Y-9753043D01*
X6375237Y-9733996D01*
X6394285Y-9705424D01*
X6403809Y-9695901D01*
X6479999Y-9791139D02*
X6479999Y-9924472D01*
X6479999Y-9810186D02*
X6489523Y-9800662D01*
X6508571Y-9791139D01*
X6537142Y-9791139D01*
X6556190Y-9800662D01*
X6565714Y-9819710D01*
X6565714Y-9924472D01*
X6689523Y-9924472D02*
X6670475Y-9914948D01*
X6660952Y-9905424D01*
X6651428Y-9886377D01*
X6651428Y-9829234D01*
X6660952Y-9810186D01*
X6670475Y-9800662D01*
X6689523Y-9791139D01*
X6718095Y-9791139D01*
X6737142Y-9800662D01*
X6746666Y-9810186D01*
X6756190Y-9829234D01*
X6756190Y-9886377D01*
X6746666Y-9905424D01*
X6737142Y-9914948D01*
X6718095Y-9924472D01*
X6689523Y-9924472D01*
X6813333Y-9791139D02*
X6889523Y-9791139D01*
X6841904Y-9724472D02*
X6841904Y-9895901D01*
X6851428Y-9914948D01*
X6870475Y-9924472D01*
X6889523Y-9924472D01*
X7108571Y-9791139D02*
X7108571Y-9991139D01*
X7108571Y-9800662D02*
X7127618Y-9791139D01*
X7165714Y-9791139D01*
X7184761Y-9800662D01*
X7194285Y-9810186D01*
X7203809Y-9829234D01*
X7203809Y-9886377D01*
X7194285Y-9905424D01*
X7184761Y-9914948D01*
X7165714Y-9924472D01*
X7127618Y-9924472D01*
X7108571Y-9914948D01*
X7318095Y-9924472D02*
X7299047Y-9914948D01*
X7289523Y-9895901D01*
X7289523Y-9724472D01*
X7479999Y-9924472D02*
X7479999Y-9819710D01*
X7470475Y-9800662D01*
X7451428Y-9791139D01*
X7413333Y-9791139D01*
X7394285Y-9800662D01*
X7479999Y-9914948D02*
X7460952Y-9924472D01*
X7413333Y-9924472D01*
X7394285Y-9914948D01*
X7384761Y-9895901D01*
X7384761Y-9876853D01*
X7394285Y-9857805D01*
X7413333Y-9848282D01*
X7460952Y-9848282D01*
X7479999Y-9838758D01*
X7546666Y-9791139D02*
X7622856Y-9791139D01*
X7575237Y-9724472D02*
X7575237Y-9895901D01*
X7584761Y-9914948D01*
X7603809Y-9924472D01*
X7622856Y-9924472D01*
X7765714Y-9914948D02*
X7746666Y-9924472D01*
X7708571Y-9924472D01*
X7689523Y-9914948D01*
X7679999Y-9895901D01*
X7679999Y-9819710D01*
X7689523Y-9800662D01*
X7708571Y-9791139D01*
X7746666Y-9791139D01*
X7765714Y-9800662D01*
X7775237Y-9819710D01*
X7775237Y-9838758D01*
X7679999Y-9857805D01*
X7946666Y-9924472D02*
X7946666Y-9724472D01*
X7946666Y-9914948D02*
X7927618Y-9924472D01*
X7889523Y-9924472D01*
X7870475Y-9914948D01*
X7860952Y-9905424D01*
X7851428Y-9886377D01*
X7851428Y-9829234D01*
X7860952Y-9810186D01*
X7870475Y-9800662D01*
X7889523Y-9791139D01*
X7927618Y-9791139D01*
X7946666Y-9800662D01*
X8022856Y-10000662D02*
X8032380Y-9991139D01*
X8051428Y-9962567D01*
X8060952Y-9943520D01*
X8070475Y-9914948D01*
X8079999Y-9867329D01*
X8079999Y-9829234D01*
X8070475Y-9781615D01*
X8060952Y-9753043D01*
X8051428Y-9733996D01*
X8032380Y-9705424D01*
X8022856Y-9695901D01*
D14*
X1220469Y-10048466D02*
X1220469Y-10147526D01*
X1170939Y-10097996D02*
X1269999Y-10097996D01*
D11*
X1565714Y-9988472D02*
X1584761Y-9988472D01*
X1603809Y-9997996D01*
X1613333Y-10007520D01*
X1622856Y-10026567D01*
X1632380Y-10064662D01*
X1632380Y-10112282D01*
X1622856Y-10150377D01*
X1613333Y-10169424D01*
X1603809Y-10178948D01*
X1584761Y-10188472D01*
X1565714Y-10188472D01*
X1546666Y-10178948D01*
X1537142Y-10169424D01*
X1527618Y-10150377D01*
X1518095Y-10112282D01*
X1518095Y-10064662D01*
X1527618Y-10026567D01*
X1537142Y-10007520D01*
X1546666Y-9997996D01*
X1565714Y-9988472D01*
X1718095Y-10169424D02*
X1727618Y-10178948D01*
X1718095Y-10188472D01*
X1708571Y-10178948D01*
X1718095Y-10169424D01*
X1718095Y-10188472D01*
X1822856Y-10188472D02*
X1860952Y-10188472D01*
X1879999Y-10178948D01*
X1889523Y-10169424D01*
X1908571Y-10140853D01*
X1918095Y-10102758D01*
X1918095Y-10026567D01*
X1908571Y-10007520D01*
X1899047Y-9997996D01*
X1879999Y-9988472D01*
X1841904Y-9988472D01*
X1822856Y-9997996D01*
X1813333Y-10007520D01*
X1803809Y-10026567D01*
X1803809Y-10074186D01*
X1813333Y-10093234D01*
X1822856Y-10102758D01*
X1841904Y-10112282D01*
X1879999Y-10112282D01*
X1899047Y-10102758D01*
X1908571Y-10093234D01*
X1918095Y-10074186D01*
X2013333Y-10188472D02*
X2051428Y-10188472D01*
X2070475Y-10178948D01*
X2079999Y-10169424D01*
X2099047Y-10140853D01*
X2108571Y-10102758D01*
X2108571Y-10026567D01*
X2099047Y-10007520D01*
X2089523Y-9997996D01*
X2070475Y-9988472D01*
X2032380Y-9988472D01*
X2013333Y-9997996D01*
X2003809Y-10007520D01*
X1994285Y-10026567D01*
X1994285Y-10074186D01*
X2003809Y-10093234D01*
X2013333Y-10102758D01*
X2032380Y-10112282D01*
X2070475Y-10112282D01*
X2089523Y-10102758D01*
X2099047Y-10093234D01*
X2108571Y-10074186D01*
X2299047Y-10188472D02*
X2184761Y-10188472D01*
X2241904Y-10188472D02*
X2241904Y-9988472D01*
X2222857Y-10017043D01*
X2203809Y-10036091D01*
X2184761Y-10045615D01*
X2384761Y-10188472D02*
X2384761Y-10055139D01*
X2384761Y-10074186D02*
X2394285Y-10064662D01*
X2413333Y-10055139D01*
X2441904Y-10055139D01*
X2460952Y-10064662D01*
X2470476Y-10083710D01*
X2470476Y-10188472D01*
X2470476Y-10083710D02*
X2479999Y-10064662D01*
X2499047Y-10055139D01*
X2527618Y-10055139D01*
X2546666Y-10064662D01*
X2556190Y-10083710D01*
X2556190Y-10188472D01*
X2651428Y-10188472D02*
X2651428Y-10055139D01*
X2651428Y-10074186D02*
X2660952Y-10064662D01*
X2679999Y-10055139D01*
X2708571Y-10055139D01*
X2727618Y-10064662D01*
X2737142Y-10083710D01*
X2737142Y-10188472D01*
X2737142Y-10083710D02*
X2746666Y-10064662D01*
X2765714Y-10055139D01*
X2794285Y-10055139D01*
X2813333Y-10064662D01*
X2822856Y-10083710D01*
X2822856Y-10188472D01*
X3213333Y-9978948D02*
X3041904Y-10236091D01*
X3470475Y-9988472D02*
X3489523Y-9988472D01*
X3508571Y-9997996D01*
X3518095Y-10007520D01*
X3527618Y-10026567D01*
X3537142Y-10064662D01*
X3537142Y-10112282D01*
X3527618Y-10150377D01*
X3518095Y-10169424D01*
X3508571Y-10178948D01*
X3489523Y-10188472D01*
X3470475Y-10188472D01*
X3451428Y-10178948D01*
X3441904Y-10169424D01*
X3432380Y-10150377D01*
X3422856Y-10112282D01*
X3422856Y-10064662D01*
X3432380Y-10026567D01*
X3441904Y-10007520D01*
X3451428Y-9997996D01*
X3470475Y-9988472D01*
X3622856Y-10169424D02*
X3632380Y-10178948D01*
X3622856Y-10188472D01*
X3613333Y-10178948D01*
X3622856Y-10169424D01*
X3622856Y-10188472D01*
X3756190Y-9988472D02*
X3775237Y-9988472D01*
X3794285Y-9997996D01*
X3803809Y-10007520D01*
X3813333Y-10026567D01*
X3822856Y-10064662D01*
X3822856Y-10112282D01*
X3813333Y-10150377D01*
X3803809Y-10169424D01*
X3794285Y-10178948D01*
X3775237Y-10188472D01*
X3756190Y-10188472D01*
X3737142Y-10178948D01*
X3727618Y-10169424D01*
X3718095Y-10150377D01*
X3708571Y-10112282D01*
X3708571Y-10064662D01*
X3718095Y-10026567D01*
X3727618Y-10007520D01*
X3737142Y-9997996D01*
X3756190Y-9988472D01*
X3889523Y-9988472D02*
X4013333Y-9988472D01*
X3946666Y-10064662D01*
X3975237Y-10064662D01*
X3994285Y-10074186D01*
X4003809Y-10083710D01*
X4013333Y-10102758D01*
X4013333Y-10150377D01*
X4003809Y-10169424D01*
X3994285Y-10178948D01*
X3975237Y-10188472D01*
X3918095Y-10188472D01*
X3899047Y-10178948D01*
X3889523Y-10169424D01*
X4108571Y-10188472D02*
X4146666Y-10188472D01*
X4165714Y-10178948D01*
X4175237Y-10169424D01*
X4194285Y-10140853D01*
X4203809Y-10102758D01*
X4203809Y-10026567D01*
X4194285Y-10007520D01*
X4184761Y-9997996D01*
X4165714Y-9988472D01*
X4127618Y-9988472D01*
X4108571Y-9997996D01*
X4099047Y-10007520D01*
X4089523Y-10026567D01*
X4089523Y-10074186D01*
X4099047Y-10093234D01*
X4108571Y-10102758D01*
X4127618Y-10112282D01*
X4165714Y-10112282D01*
X4184761Y-10102758D01*
X4194285Y-10093234D01*
X4203809Y-10074186D01*
X4327618Y-9988472D02*
X4346666Y-9988472D01*
X4365714Y-9997996D01*
X4375237Y-10007520D01*
X4384761Y-10026567D01*
X4394285Y-10064662D01*
X4394285Y-10112282D01*
X4384761Y-10150377D01*
X4375237Y-10169424D01*
X4365714Y-10178948D01*
X4346666Y-10188472D01*
X4327618Y-10188472D01*
X4308571Y-10178948D01*
X4299047Y-10169424D01*
X4289523Y-10150377D01*
X4279999Y-10112282D01*
X4279999Y-10064662D01*
X4289523Y-10026567D01*
X4299047Y-10007520D01*
X4308571Y-9997996D01*
X4327618Y-9988472D01*
X4470476Y-9988472D02*
X4470476Y-10026567D01*
X4546666Y-9988472D02*
X4546666Y-10026567D01*
X4841904Y-10264662D02*
X4832380Y-10255139D01*
X4813333Y-10226567D01*
X4803809Y-10207520D01*
X4794285Y-10178948D01*
X4784761Y-10131329D01*
X4784761Y-10093234D01*
X4794285Y-10045615D01*
X4803809Y-10017043D01*
X4813333Y-9997996D01*
X4832380Y-9969424D01*
X4841904Y-9959901D01*
X4946666Y-10074186D02*
X4927618Y-10064662D01*
X4918095Y-10055139D01*
X4908571Y-10036091D01*
X4908571Y-10026567D01*
X4918095Y-10007520D01*
X4927618Y-9997996D01*
X4946666Y-9988472D01*
X4984761Y-9988472D01*
X5003809Y-9997996D01*
X5013333Y-10007520D01*
X5022857Y-10026567D01*
X5022857Y-10036091D01*
X5013333Y-10055139D01*
X5003809Y-10064662D01*
X4984761Y-10074186D01*
X4946666Y-10074186D01*
X4927618Y-10083710D01*
X4918095Y-10093234D01*
X4908571Y-10112282D01*
X4908571Y-10150377D01*
X4918095Y-10169424D01*
X4927618Y-10178948D01*
X4946666Y-10188472D01*
X4984761Y-10188472D01*
X5003809Y-10178948D01*
X5013333Y-10169424D01*
X5022857Y-10150377D01*
X5022857Y-10112282D01*
X5013333Y-10093234D01*
X5003809Y-10083710D01*
X4984761Y-10074186D01*
X5260952Y-10188472D02*
X5260952Y-9988472D01*
X5346666Y-10188472D02*
X5346666Y-10083710D01*
X5337142Y-10064662D01*
X5318095Y-10055139D01*
X5289523Y-10055139D01*
X5270476Y-10064662D01*
X5260952Y-10074186D01*
X5470476Y-10188472D02*
X5451428Y-10178948D01*
X5441904Y-10169424D01*
X5432380Y-10150377D01*
X5432380Y-10093234D01*
X5441904Y-10074186D01*
X5451428Y-10064662D01*
X5470476Y-10055139D01*
X5499047Y-10055139D01*
X5518095Y-10064662D01*
X5527618Y-10074186D01*
X5537142Y-10093234D01*
X5537142Y-10150377D01*
X5527618Y-10169424D01*
X5518095Y-10178948D01*
X5499047Y-10188472D01*
X5470476Y-10188472D01*
X5651428Y-10188472D02*
X5632380Y-10178948D01*
X5622856Y-10159901D01*
X5622856Y-9988472D01*
X5803809Y-10178948D02*
X5784761Y-10188472D01*
X5746666Y-10188472D01*
X5727618Y-10178948D01*
X5718095Y-10159901D01*
X5718095Y-10083710D01*
X5727618Y-10064662D01*
X5746666Y-10055139D01*
X5784761Y-10055139D01*
X5803809Y-10064662D01*
X5813333Y-10083710D01*
X5813333Y-10102758D01*
X5718095Y-10121805D01*
X5889523Y-10178948D02*
X5908571Y-10188472D01*
X5946666Y-10188472D01*
X5965714Y-10178948D01*
X5975237Y-10159901D01*
X5975237Y-10150377D01*
X5965714Y-10131329D01*
X5946666Y-10121805D01*
X5918095Y-10121805D01*
X5899047Y-10112282D01*
X5889523Y-10093234D01*
X5889523Y-10083710D01*
X5899047Y-10064662D01*
X5918095Y-10055139D01*
X5946666Y-10055139D01*
X5965714Y-10064662D01*
X6041904Y-10264662D02*
X6051428Y-10255139D01*
X6070475Y-10226567D01*
X6079999Y-10207520D01*
X6089523Y-10178948D01*
X6099047Y-10131329D01*
X6099047Y-10093234D01*
X6089523Y-10045615D01*
X6079999Y-10017043D01*
X6070475Y-9997996D01*
X6051428Y-9969424D01*
X6041904Y-9959901D01*
X6403809Y-10264662D02*
X6394285Y-10255139D01*
X6375237Y-10226567D01*
X6365714Y-10207520D01*
X6356190Y-10178948D01*
X6346666Y-10131329D01*
X6346666Y-10093234D01*
X6356190Y-10045615D01*
X6365714Y-10017043D01*
X6375237Y-9997996D01*
X6394285Y-9969424D01*
X6403809Y-9959901D01*
X6479999Y-10055139D02*
X6479999Y-10188472D01*
X6479999Y-10074186D02*
X6489523Y-10064662D01*
X6508571Y-10055139D01*
X6537142Y-10055139D01*
X6556190Y-10064662D01*
X6565714Y-10083710D01*
X6565714Y-10188472D01*
X6689523Y-10188472D02*
X6670475Y-10178948D01*
X6660952Y-10169424D01*
X6651428Y-10150377D01*
X6651428Y-10093234D01*
X6660952Y-10074186D01*
X6670475Y-10064662D01*
X6689523Y-10055139D01*
X6718095Y-10055139D01*
X6737142Y-10064662D01*
X6746666Y-10074186D01*
X6756190Y-10093234D01*
X6756190Y-10150377D01*
X6746666Y-10169424D01*
X6737142Y-10178948D01*
X6718095Y-10188472D01*
X6689523Y-10188472D01*
X6813333Y-10055139D02*
X6889523Y-10055139D01*
X6841904Y-9988472D02*
X6841904Y-10159901D01*
X6851428Y-10178948D01*
X6870475Y-10188472D01*
X6889523Y-10188472D01*
X7108571Y-10055139D02*
X7108571Y-10255139D01*
X7108571Y-10064662D02*
X7127618Y-10055139D01*
X7165714Y-10055139D01*
X7184761Y-10064662D01*
X7194285Y-10074186D01*
X7203809Y-10093234D01*
X7203809Y-10150377D01*
X7194285Y-10169424D01*
X7184761Y-10178948D01*
X7165714Y-10188472D01*
X7127618Y-10188472D01*
X7108571Y-10178948D01*
X7318095Y-10188472D02*
X7299047Y-10178948D01*
X7289523Y-10159901D01*
X7289523Y-9988472D01*
X7479999Y-10188472D02*
X7479999Y-10083710D01*
X7470475Y-10064662D01*
X7451428Y-10055139D01*
X7413333Y-10055139D01*
X7394285Y-10064662D01*
X7479999Y-10178948D02*
X7460952Y-10188472D01*
X7413333Y-10188472D01*
X7394285Y-10178948D01*
X7384761Y-10159901D01*
X7384761Y-10140853D01*
X7394285Y-10121805D01*
X7413333Y-10112282D01*
X7460952Y-10112282D01*
X7479999Y-10102758D01*
X7546666Y-10055139D02*
X7622856Y-10055139D01*
X7575237Y-9988472D02*
X7575237Y-10159901D01*
X7584761Y-10178948D01*
X7603809Y-10188472D01*
X7622856Y-10188472D01*
X7765714Y-10178948D02*
X7746666Y-10188472D01*
X7708571Y-10188472D01*
X7689523Y-10178948D01*
X7679999Y-10159901D01*
X7679999Y-10083710D01*
X7689523Y-10064662D01*
X7708571Y-10055139D01*
X7746666Y-10055139D01*
X7765714Y-10064662D01*
X7775237Y-10083710D01*
X7775237Y-10102758D01*
X7679999Y-10121805D01*
X7946666Y-10188472D02*
X7946666Y-9988472D01*
X7946666Y-10178948D02*
X7927618Y-10188472D01*
X7889523Y-10188472D01*
X7870475Y-10178948D01*
X7860952Y-10169424D01*
X7851428Y-10150377D01*
X7851428Y-10093234D01*
X7860952Y-10074186D01*
X7870475Y-10064662D01*
X7889523Y-10055139D01*
X7927618Y-10055139D01*
X7946666Y-10064662D01*
X8022856Y-10264662D02*
X8032380Y-10255139D01*
X8051428Y-10226567D01*
X8060952Y-10207520D01*
X8070475Y-10178948D01*
X8079999Y-10131329D01*
X8079999Y-10093234D01*
X8070475Y-10045615D01*
X8060952Y-10017043D01*
X8051428Y-9997996D01*
X8032380Y-9969424D01*
X8022856Y-9959901D01*
D15*
X1245078Y-10422164D02*
X1245078Y-10301828D01*
X1124741Y-10301828D01*
X1124741Y-10422164D01*
X1245078Y-10422164D01*
D11*
X1632380Y-10452472D02*
X1518095Y-10452472D01*
X1575237Y-10452472D02*
X1575237Y-10252472D01*
X1556190Y-10281043D01*
X1537142Y-10300091D01*
X1518095Y-10309615D01*
X1718095Y-10433424D02*
X1727618Y-10442948D01*
X1718095Y-10452472D01*
X1708571Y-10442948D01*
X1718095Y-10433424D01*
X1718095Y-10452472D01*
X1794285Y-10252472D02*
X1927618Y-10252472D01*
X1841904Y-10452472D01*
X2041904Y-10252472D02*
X2060952Y-10252472D01*
X2079999Y-10261996D01*
X2089523Y-10271520D01*
X2099047Y-10290567D01*
X2108571Y-10328662D01*
X2108571Y-10376282D01*
X2099047Y-10414377D01*
X2089523Y-10433424D01*
X2079999Y-10442948D01*
X2060952Y-10452472D01*
X2041904Y-10452472D01*
X2022856Y-10442948D01*
X2013333Y-10433424D01*
X2003809Y-10414377D01*
X1994285Y-10376282D01*
X1994285Y-10328662D01*
X2003809Y-10290567D01*
X2013333Y-10271520D01*
X2022856Y-10261996D01*
X2041904Y-10252472D01*
X2184761Y-10271520D02*
X2194285Y-10261996D01*
X2213333Y-10252472D01*
X2260952Y-10252472D01*
X2279999Y-10261996D01*
X2289523Y-10271520D01*
X2299047Y-10290567D01*
X2299047Y-10309615D01*
X2289523Y-10338186D01*
X2175237Y-10452472D01*
X2299047Y-10452472D01*
X2384761Y-10452472D02*
X2384761Y-10319139D01*
X2384761Y-10338186D02*
X2394285Y-10328662D01*
X2413333Y-10319139D01*
X2441904Y-10319139D01*
X2460952Y-10328662D01*
X2470476Y-10347710D01*
X2470476Y-10452472D01*
X2470476Y-10347710D02*
X2479999Y-10328662D01*
X2499047Y-10319139D01*
X2527618Y-10319139D01*
X2546666Y-10328662D01*
X2556190Y-10347710D01*
X2556190Y-10452472D01*
X2651428Y-10452472D02*
X2651428Y-10319139D01*
X2651428Y-10338186D02*
X2660952Y-10328662D01*
X2679999Y-10319139D01*
X2708571Y-10319139D01*
X2727618Y-10328662D01*
X2737142Y-10347710D01*
X2737142Y-10452472D01*
X2737142Y-10347710D02*
X2746666Y-10328662D01*
X2765714Y-10319139D01*
X2794285Y-10319139D01*
X2813333Y-10328662D01*
X2822856Y-10347710D01*
X2822856Y-10452472D01*
X3213333Y-10242948D02*
X3041904Y-10500091D01*
X3470475Y-10252472D02*
X3489523Y-10252472D01*
X3508571Y-10261996D01*
X3518095Y-10271520D01*
X3527618Y-10290567D01*
X3537142Y-10328662D01*
X3537142Y-10376282D01*
X3527618Y-10414377D01*
X3518095Y-10433424D01*
X3508571Y-10442948D01*
X3489523Y-10452472D01*
X3470475Y-10452472D01*
X3451428Y-10442948D01*
X3441904Y-10433424D01*
X3432380Y-10414377D01*
X3422856Y-10376282D01*
X3422856Y-10328662D01*
X3432380Y-10290567D01*
X3441904Y-10271520D01*
X3451428Y-10261996D01*
X3470475Y-10252472D01*
X3622856Y-10433424D02*
X3632380Y-10442948D01*
X3622856Y-10452472D01*
X3613333Y-10442948D01*
X3622856Y-10433424D01*
X3622856Y-10452472D01*
X3756190Y-10252472D02*
X3775237Y-10252472D01*
X3794285Y-10261996D01*
X3803809Y-10271520D01*
X3813333Y-10290567D01*
X3822856Y-10328662D01*
X3822856Y-10376282D01*
X3813333Y-10414377D01*
X3803809Y-10433424D01*
X3794285Y-10442948D01*
X3775237Y-10452472D01*
X3756190Y-10452472D01*
X3737142Y-10442948D01*
X3727618Y-10433424D01*
X3718095Y-10414377D01*
X3708571Y-10376282D01*
X3708571Y-10328662D01*
X3718095Y-10290567D01*
X3727618Y-10271520D01*
X3737142Y-10261996D01*
X3756190Y-10252472D01*
X3994285Y-10252472D02*
X3956190Y-10252472D01*
X3937142Y-10261996D01*
X3927618Y-10271520D01*
X3908571Y-10300091D01*
X3899047Y-10338186D01*
X3899047Y-10414377D01*
X3908571Y-10433424D01*
X3918095Y-10442948D01*
X3937142Y-10452472D01*
X3975237Y-10452472D01*
X3994285Y-10442948D01*
X4003809Y-10433424D01*
X4013333Y-10414377D01*
X4013333Y-10366758D01*
X4003809Y-10347710D01*
X3994285Y-10338186D01*
X3975237Y-10328662D01*
X3937142Y-10328662D01*
X3918095Y-10338186D01*
X3908571Y-10347710D01*
X3899047Y-10366758D01*
X4079999Y-10252472D02*
X4213333Y-10252472D01*
X4127618Y-10452472D01*
X4327618Y-10252472D02*
X4346666Y-10252472D01*
X4365714Y-10261996D01*
X4375237Y-10271520D01*
X4384761Y-10290567D01*
X4394285Y-10328662D01*
X4394285Y-10376282D01*
X4384761Y-10414377D01*
X4375237Y-10433424D01*
X4365714Y-10442948D01*
X4346666Y-10452472D01*
X4327618Y-10452472D01*
X4308571Y-10442948D01*
X4299047Y-10433424D01*
X4289523Y-10414377D01*
X4279999Y-10376282D01*
X4279999Y-10328662D01*
X4289523Y-10290567D01*
X4299047Y-10271520D01*
X4308571Y-10261996D01*
X4327618Y-10252472D01*
X4470476Y-10252472D02*
X4470476Y-10290567D01*
X4546666Y-10252472D02*
X4546666Y-10290567D01*
X4841904Y-10528662D02*
X4832380Y-10519139D01*
X4813333Y-10490567D01*
X4803809Y-10471520D01*
X4794285Y-10442948D01*
X4784761Y-10395329D01*
X4784761Y-10357234D01*
X4794285Y-10309615D01*
X4803809Y-10281043D01*
X4813333Y-10261996D01*
X4832380Y-10233424D01*
X4841904Y-10223901D01*
X5022857Y-10452472D02*
X4908571Y-10452472D01*
X4965714Y-10452472D02*
X4965714Y-10252472D01*
X4946666Y-10281043D01*
X4927618Y-10300091D01*
X4908571Y-10309615D01*
X5194285Y-10252472D02*
X5156190Y-10252472D01*
X5137142Y-10261996D01*
X5127618Y-10271520D01*
X5108571Y-10300091D01*
X5099047Y-10338186D01*
X5099047Y-10414377D01*
X5108571Y-10433424D01*
X5118095Y-10442948D01*
X5137142Y-10452472D01*
X5175237Y-10452472D01*
X5194285Y-10442948D01*
X5203809Y-10433424D01*
X5213333Y-10414377D01*
X5213333Y-10366758D01*
X5203809Y-10347710D01*
X5194285Y-10338186D01*
X5175237Y-10328662D01*
X5137142Y-10328662D01*
X5118095Y-10338186D01*
X5108571Y-10347710D01*
X5099047Y-10366758D01*
X5451428Y-10452472D02*
X5451428Y-10252472D01*
X5537142Y-10452472D02*
X5537142Y-10347710D01*
X5527618Y-10328662D01*
X5508571Y-10319139D01*
X5479999Y-10319139D01*
X5460952Y-10328662D01*
X5451428Y-10338186D01*
X5660952Y-10452472D02*
X5641904Y-10442948D01*
X5632380Y-10433424D01*
X5622856Y-10414377D01*
X5622856Y-10357234D01*
X5632380Y-10338186D01*
X5641904Y-10328662D01*
X5660952Y-10319139D01*
X5689523Y-10319139D01*
X5708571Y-10328662D01*
X5718095Y-10338186D01*
X5727618Y-10357234D01*
X5727618Y-10414377D01*
X5718095Y-10433424D01*
X5708571Y-10442948D01*
X5689523Y-10452472D01*
X5660952Y-10452472D01*
X5841904Y-10452472D02*
X5822856Y-10442948D01*
X5813333Y-10423901D01*
X5813333Y-10252472D01*
X5994285Y-10442948D02*
X5975237Y-10452472D01*
X5937142Y-10452472D01*
X5918095Y-10442948D01*
X5908571Y-10423901D01*
X5908571Y-10347710D01*
X5918095Y-10328662D01*
X5937142Y-10319139D01*
X5975237Y-10319139D01*
X5994285Y-10328662D01*
X6003809Y-10347710D01*
X6003809Y-10366758D01*
X5908571Y-10385805D01*
X6079999Y-10442948D02*
X6099047Y-10452472D01*
X6137142Y-10452472D01*
X6156190Y-10442948D01*
X6165714Y-10423901D01*
X6165714Y-10414377D01*
X6156190Y-10395329D01*
X6137142Y-10385805D01*
X6108571Y-10385805D01*
X6089523Y-10376282D01*
X6079999Y-10357234D01*
X6079999Y-10347710D01*
X6089523Y-10328662D01*
X6108571Y-10319139D01*
X6137142Y-10319139D01*
X6156190Y-10328662D01*
X6232380Y-10528662D02*
X6241904Y-10519139D01*
X6260952Y-10490567D01*
X6270475Y-10471520D01*
X6279999Y-10442948D01*
X6289523Y-10395329D01*
X6289523Y-10357234D01*
X6279999Y-10309615D01*
X6270475Y-10281043D01*
X6260952Y-10261996D01*
X6241904Y-10233424D01*
X6232380Y-10223901D01*
X6594285Y-10528662D02*
X6584761Y-10519139D01*
X6565714Y-10490567D01*
X6556190Y-10471520D01*
X6546666Y-10442948D01*
X6537142Y-10395329D01*
X6537142Y-10357234D01*
X6546666Y-10309615D01*
X6556190Y-10281043D01*
X6565714Y-10261996D01*
X6584761Y-10233424D01*
X6594285Y-10223901D01*
X6670475Y-10319139D02*
X6670475Y-10452472D01*
X6670475Y-10338186D02*
X6679999Y-10328662D01*
X6699047Y-10319139D01*
X6727618Y-10319139D01*
X6746666Y-10328662D01*
X6756190Y-10347710D01*
X6756190Y-10452472D01*
X6879999Y-10452472D02*
X6860952Y-10442948D01*
X6851428Y-10433424D01*
X6841904Y-10414377D01*
X6841904Y-10357234D01*
X6851428Y-10338186D01*
X6860952Y-10328662D01*
X6879999Y-10319139D01*
X6908571Y-10319139D01*
X6927618Y-10328662D01*
X6937142Y-10338186D01*
X6946666Y-10357234D01*
X6946666Y-10414377D01*
X6937142Y-10433424D01*
X6927618Y-10442948D01*
X6908571Y-10452472D01*
X6879999Y-10452472D01*
X7003809Y-10319139D02*
X7079999Y-10319139D01*
X7032380Y-10252472D02*
X7032380Y-10423901D01*
X7041904Y-10442948D01*
X7060952Y-10452472D01*
X7079999Y-10452472D01*
X7299047Y-10319139D02*
X7299047Y-10519139D01*
X7299047Y-10328662D02*
X7318095Y-10319139D01*
X7356190Y-10319139D01*
X7375237Y-10328662D01*
X7384761Y-10338186D01*
X7394285Y-10357234D01*
X7394285Y-10414377D01*
X7384761Y-10433424D01*
X7375237Y-10442948D01*
X7356190Y-10452472D01*
X7318095Y-10452472D01*
X7299047Y-10442948D01*
X7508571Y-10452472D02*
X7489523Y-10442948D01*
X7479999Y-10423901D01*
X7479999Y-10252472D01*
X7670475Y-10452472D02*
X7670475Y-10347710D01*
X7660952Y-10328662D01*
X7641904Y-10319139D01*
X7603809Y-10319139D01*
X7584761Y-10328662D01*
X7670475Y-10442948D02*
X7651428Y-10452472D01*
X7603809Y-10452472D01*
X7584761Y-10442948D01*
X7575237Y-10423901D01*
X7575237Y-10404853D01*
X7584761Y-10385805D01*
X7603809Y-10376282D01*
X7651428Y-10376282D01*
X7670475Y-10366758D01*
X7737142Y-10319139D02*
X7813333Y-10319139D01*
X7765714Y-10252472D02*
X7765714Y-10423901D01*
X7775237Y-10442948D01*
X7794285Y-10452472D01*
X7813333Y-10452472D01*
X7956190Y-10442948D02*
X7937142Y-10452472D01*
X7899047Y-10452472D01*
X7879999Y-10442948D01*
X7870475Y-10423901D01*
X7870475Y-10347710D01*
X7879999Y-10328662D01*
X7899047Y-10319139D01*
X7937142Y-10319139D01*
X7956190Y-10328662D01*
X7965714Y-10347710D01*
X7965714Y-10366758D01*
X7870475Y-10385805D01*
X8137142Y-10452472D02*
X8137142Y-10252472D01*
X8137142Y-10442948D02*
X8118095Y-10452472D01*
X8079999Y-10452472D01*
X8060952Y-10442948D01*
X8051428Y-10433424D01*
X8041904Y-10414377D01*
X8041904Y-10357234D01*
X8051428Y-10338186D01*
X8060952Y-10328662D01*
X8079999Y-10319139D01*
X8118095Y-10319139D01*
X8137142Y-10328662D01*
X8213333Y-10528662D02*
X8222856Y-10519139D01*
X8241904Y-10490567D01*
X8251428Y-10471520D01*
X8260952Y-10442948D01*
X8270475Y-10395329D01*
X8270475Y-10357234D01*
X8260952Y-10309615D01*
X8251428Y-10281043D01*
X8241904Y-10261996D01*
X8222856Y-10233424D01*
X8213333Y-10223901D01*
X1169999Y-10752176D02*
X1269999Y-10652176D01*
X1169999Y-10552176D01*
X1069999Y-10652176D01*
X1169999Y-10752176D01*
X1508571Y-10542652D02*
X1632380Y-10542652D01*
X1565714Y-10618842D01*
X1594285Y-10618842D01*
X1613333Y-10628366D01*
X1622856Y-10637890D01*
X1632380Y-10656938D01*
X1632380Y-10704557D01*
X1622856Y-10723604D01*
X1613333Y-10733128D01*
X1594285Y-10742652D01*
X1537142Y-10742652D01*
X1518095Y-10733128D01*
X1508571Y-10723604D01*
X1718095Y-10723604D02*
X1727618Y-10733128D01*
X1718095Y-10742652D01*
X1708571Y-10733128D01*
X1718095Y-10723604D01*
X1718095Y-10742652D01*
X1851428Y-10542652D02*
X1870475Y-10542652D01*
X1889523Y-10552176D01*
X1899047Y-10561700D01*
X1908571Y-10580747D01*
X1918095Y-10618842D01*
X1918095Y-10666462D01*
X1908571Y-10704557D01*
X1899047Y-10723604D01*
X1889523Y-10733128D01*
X1870475Y-10742652D01*
X1851428Y-10742652D01*
X1832380Y-10733128D01*
X1822856Y-10723604D01*
X1813333Y-10704557D01*
X1803809Y-10666462D01*
X1803809Y-10618842D01*
X1813333Y-10580747D01*
X1822856Y-10561700D01*
X1832380Y-10552176D01*
X1851428Y-10542652D01*
X2041904Y-10542652D02*
X2060952Y-10542652D01*
X2079999Y-10552176D01*
X2089523Y-10561700D01*
X2099047Y-10580747D01*
X2108571Y-10618842D01*
X2108571Y-10666462D01*
X2099047Y-10704557D01*
X2089523Y-10723604D01*
X2079999Y-10733128D01*
X2060952Y-10742652D01*
X2041904Y-10742652D01*
X2022856Y-10733128D01*
X2013333Y-10723604D01*
X2003809Y-10704557D01*
X1994285Y-10666462D01*
X1994285Y-10618842D01*
X2003809Y-10580747D01*
X2013333Y-10561700D01*
X2022856Y-10552176D01*
X2041904Y-10542652D01*
X2232380Y-10542652D02*
X2251428Y-10542652D01*
X2270476Y-10552176D01*
X2279999Y-10561700D01*
X2289523Y-10580747D01*
X2299047Y-10618842D01*
X2299047Y-10666462D01*
X2289523Y-10704557D01*
X2279999Y-10723604D01*
X2270476Y-10733128D01*
X2251428Y-10742652D01*
X2232380Y-10742652D01*
X2213333Y-10733128D01*
X2203809Y-10723604D01*
X2194285Y-10704557D01*
X2184761Y-10666462D01*
X2184761Y-10618842D01*
X2194285Y-10580747D01*
X2203809Y-10561700D01*
X2213333Y-10552176D01*
X2232380Y-10542652D01*
X2384761Y-10742652D02*
X2384761Y-10609319D01*
X2384761Y-10628366D02*
X2394285Y-10618842D01*
X2413333Y-10609319D01*
X2441904Y-10609319D01*
X2460952Y-10618842D01*
X2470476Y-10637890D01*
X2470476Y-10742652D01*
X2470476Y-10637890D02*
X2479999Y-10618842D01*
X2499047Y-10609319D01*
X2527618Y-10609319D01*
X2546666Y-10618842D01*
X2556190Y-10637890D01*
X2556190Y-10742652D01*
X2651428Y-10742652D02*
X2651428Y-10609319D01*
X2651428Y-10628366D02*
X2660952Y-10618842D01*
X2679999Y-10609319D01*
X2708571Y-10609319D01*
X2727618Y-10618842D01*
X2737142Y-10637890D01*
X2737142Y-10742652D01*
X2737142Y-10637890D02*
X2746666Y-10618842D01*
X2765714Y-10609319D01*
X2794285Y-10609319D01*
X2813333Y-10618842D01*
X2822856Y-10637890D01*
X2822856Y-10742652D01*
X3213333Y-10533128D02*
X3041904Y-10790271D01*
X3470475Y-10542652D02*
X3489523Y-10542652D01*
X3508571Y-10552176D01*
X3518095Y-10561700D01*
X3527618Y-10580747D01*
X3537142Y-10618842D01*
X3537142Y-10666462D01*
X3527618Y-10704557D01*
X3518095Y-10723604D01*
X3508571Y-10733128D01*
X3489523Y-10742652D01*
X3470475Y-10742652D01*
X3451428Y-10733128D01*
X3441904Y-10723604D01*
X3432380Y-10704557D01*
X3422856Y-10666462D01*
X3422856Y-10618842D01*
X3432380Y-10580747D01*
X3441904Y-10561700D01*
X3451428Y-10552176D01*
X3470475Y-10542652D01*
X3622856Y-10723604D02*
X3632380Y-10733128D01*
X3622856Y-10742652D01*
X3613333Y-10733128D01*
X3622856Y-10723604D01*
X3622856Y-10742652D01*
X3822856Y-10742652D02*
X3708571Y-10742652D01*
X3765714Y-10742652D02*
X3765714Y-10542652D01*
X3746666Y-10571223D01*
X3727618Y-10590271D01*
X3708571Y-10599795D01*
X4013333Y-10742652D02*
X3899047Y-10742652D01*
X3956190Y-10742652D02*
X3956190Y-10542652D01*
X3937142Y-10571223D01*
X3918095Y-10590271D01*
X3899047Y-10599795D01*
X4127618Y-10628366D02*
X4108571Y-10618842D01*
X4099047Y-10609319D01*
X4089523Y-10590271D01*
X4089523Y-10580747D01*
X4099047Y-10561700D01*
X4108571Y-10552176D01*
X4127618Y-10542652D01*
X4165714Y-10542652D01*
X4184761Y-10552176D01*
X4194285Y-10561700D01*
X4203809Y-10580747D01*
X4203809Y-10590271D01*
X4194285Y-10609319D01*
X4184761Y-10618842D01*
X4165714Y-10628366D01*
X4127618Y-10628366D01*
X4108571Y-10637890D01*
X4099047Y-10647414D01*
X4089523Y-10666462D01*
X4089523Y-10704557D01*
X4099047Y-10723604D01*
X4108571Y-10733128D01*
X4127618Y-10742652D01*
X4165714Y-10742652D01*
X4184761Y-10733128D01*
X4194285Y-10723604D01*
X4203809Y-10704557D01*
X4203809Y-10666462D01*
X4194285Y-10647414D01*
X4184761Y-10637890D01*
X4165714Y-10628366D01*
X4394285Y-10742652D02*
X4279999Y-10742652D01*
X4337142Y-10742652D02*
X4337142Y-10542652D01*
X4318095Y-10571223D01*
X4299047Y-10590271D01*
X4279999Y-10599795D01*
X4470476Y-10542652D02*
X4470476Y-10580747D01*
X4546666Y-10542652D02*
X4546666Y-10580747D01*
X4841904Y-10818842D02*
X4832380Y-10809319D01*
X4813333Y-10780747D01*
X4803809Y-10761700D01*
X4794285Y-10733128D01*
X4784761Y-10685509D01*
X4784761Y-10647414D01*
X4794285Y-10599795D01*
X4803809Y-10571223D01*
X4813333Y-10552176D01*
X4832380Y-10523604D01*
X4841904Y-10514081D01*
X5022857Y-10742652D02*
X4908571Y-10742652D01*
X4965714Y-10742652D02*
X4965714Y-10542652D01*
X4946666Y-10571223D01*
X4927618Y-10590271D01*
X4908571Y-10599795D01*
X5194285Y-10542652D02*
X5156190Y-10542652D01*
X5137142Y-10552176D01*
X5127618Y-10561700D01*
X5108571Y-10590271D01*
X5099047Y-10628366D01*
X5099047Y-10704557D01*
X5108571Y-10723604D01*
X5118095Y-10733128D01*
X5137142Y-10742652D01*
X5175237Y-10742652D01*
X5194285Y-10733128D01*
X5203809Y-10723604D01*
X5213333Y-10704557D01*
X5213333Y-10656938D01*
X5203809Y-10637890D01*
X5194285Y-10628366D01*
X5175237Y-10618842D01*
X5137142Y-10618842D01*
X5118095Y-10628366D01*
X5108571Y-10637890D01*
X5099047Y-10656938D01*
X5451428Y-10742652D02*
X5451428Y-10542652D01*
X5537142Y-10742652D02*
X5537142Y-10637890D01*
X5527618Y-10618842D01*
X5508571Y-10609319D01*
X5479999Y-10609319D01*
X5460952Y-10618842D01*
X5451428Y-10628366D01*
X5660952Y-10742652D02*
X5641904Y-10733128D01*
X5632380Y-10723604D01*
X5622856Y-10704557D01*
X5622856Y-10647414D01*
X5632380Y-10628366D01*
X5641904Y-10618842D01*
X5660952Y-10609319D01*
X5689523Y-10609319D01*
X5708571Y-10618842D01*
X5718095Y-10628366D01*
X5727618Y-10647414D01*
X5727618Y-10704557D01*
X5718095Y-10723604D01*
X5708571Y-10733128D01*
X5689523Y-10742652D01*
X5660952Y-10742652D01*
X5841904Y-10742652D02*
X5822856Y-10733128D01*
X5813333Y-10714081D01*
X5813333Y-10542652D01*
X5994285Y-10733128D02*
X5975237Y-10742652D01*
X5937142Y-10742652D01*
X5918095Y-10733128D01*
X5908571Y-10714081D01*
X5908571Y-10637890D01*
X5918095Y-10618842D01*
X5937142Y-10609319D01*
X5975237Y-10609319D01*
X5994285Y-10618842D01*
X6003809Y-10637890D01*
X6003809Y-10656938D01*
X5908571Y-10675985D01*
X6079999Y-10733128D02*
X6099047Y-10742652D01*
X6137142Y-10742652D01*
X6156190Y-10733128D01*
X6165714Y-10714081D01*
X6165714Y-10704557D01*
X6156190Y-10685509D01*
X6137142Y-10675985D01*
X6108571Y-10675985D01*
X6089523Y-10666462D01*
X6079999Y-10647414D01*
X6079999Y-10637890D01*
X6089523Y-10618842D01*
X6108571Y-10609319D01*
X6137142Y-10609319D01*
X6156190Y-10618842D01*
X6232380Y-10818842D02*
X6241904Y-10809319D01*
X6260952Y-10780747D01*
X6270475Y-10761700D01*
X6279999Y-10733128D01*
X6289523Y-10685509D01*
X6289523Y-10647414D01*
X6279999Y-10599795D01*
X6270475Y-10571223D01*
X6260952Y-10552176D01*
X6241904Y-10523604D01*
X6232380Y-10514081D01*
X6594285Y-10818842D02*
X6584761Y-10809319D01*
X6565714Y-10780747D01*
X6556190Y-10761700D01*
X6546666Y-10733128D01*
X6537142Y-10685509D01*
X6537142Y-10647414D01*
X6546666Y-10599795D01*
X6556190Y-10571223D01*
X6565714Y-10552176D01*
X6584761Y-10523604D01*
X6594285Y-10514081D01*
X6670475Y-10609319D02*
X6670475Y-10742652D01*
X6670475Y-10628366D02*
X6679999Y-10618842D01*
X6699047Y-10609319D01*
X6727618Y-10609319D01*
X6746666Y-10618842D01*
X6756190Y-10637890D01*
X6756190Y-10742652D01*
X6879999Y-10742652D02*
X6860952Y-10733128D01*
X6851428Y-10723604D01*
X6841904Y-10704557D01*
X6841904Y-10647414D01*
X6851428Y-10628366D01*
X6860952Y-10618842D01*
X6879999Y-10609319D01*
X6908571Y-10609319D01*
X6927618Y-10618842D01*
X6937142Y-10628366D01*
X6946666Y-10647414D01*
X6946666Y-10704557D01*
X6937142Y-10723604D01*
X6927618Y-10733128D01*
X6908571Y-10742652D01*
X6879999Y-10742652D01*
X7003809Y-10609319D02*
X7079999Y-10609319D01*
X7032380Y-10542652D02*
X7032380Y-10714081D01*
X7041904Y-10733128D01*
X7060952Y-10742652D01*
X7079999Y-10742652D01*
X7299047Y-10609319D02*
X7299047Y-10809319D01*
X7299047Y-10618842D02*
X7318095Y-10609319D01*
X7356190Y-10609319D01*
X7375237Y-10618842D01*
X7384761Y-10628366D01*
X7394285Y-10647414D01*
X7394285Y-10704557D01*
X7384761Y-10723604D01*
X7375237Y-10733128D01*
X7356190Y-10742652D01*
X7318095Y-10742652D01*
X7299047Y-10733128D01*
X7508571Y-10742652D02*
X7489523Y-10733128D01*
X7479999Y-10714081D01*
X7479999Y-10542652D01*
X7670475Y-10742652D02*
X7670475Y-10637890D01*
X7660952Y-10618842D01*
X7641904Y-10609319D01*
X7603809Y-10609319D01*
X7584761Y-10618842D01*
X7670475Y-10733128D02*
X7651428Y-10742652D01*
X7603809Y-10742652D01*
X7584761Y-10733128D01*
X7575237Y-10714081D01*
X7575237Y-10695033D01*
X7584761Y-10675985D01*
X7603809Y-10666462D01*
X7651428Y-10666462D01*
X7670475Y-10656938D01*
X7737142Y-10609319D02*
X7813333Y-10609319D01*
X7765714Y-10542652D02*
X7765714Y-10714081D01*
X7775237Y-10733128D01*
X7794285Y-10742652D01*
X7813333Y-10742652D01*
X7956190Y-10733128D02*
X7937142Y-10742652D01*
X7899047Y-10742652D01*
X7879999Y-10733128D01*
X7870475Y-10714081D01*
X7870475Y-10637890D01*
X7879999Y-10618842D01*
X7899047Y-10609319D01*
X7937142Y-10609319D01*
X7956190Y-10618842D01*
X7965714Y-10637890D01*
X7965714Y-10656938D01*
X7870475Y-10675985D01*
X8137142Y-10742652D02*
X8137142Y-10542652D01*
X8137142Y-10733128D02*
X8118095Y-10742652D01*
X8079999Y-10742652D01*
X8060952Y-10733128D01*
X8051428Y-10723604D01*
X8041904Y-10704557D01*
X8041904Y-10647414D01*
X8051428Y-10628366D01*
X8060952Y-10618842D01*
X8079999Y-10609319D01*
X8118095Y-10609319D01*
X8137142Y-10618842D01*
X8213333Y-10818842D02*
X8222856Y-10809319D01*
X8241904Y-10780747D01*
X8251428Y-10761700D01*
X8260952Y-10733128D01*
X8270475Y-10685509D01*
X8270475Y-10647414D01*
X8260952Y-10599795D01*
X8251428Y-10571223D01*
X8241904Y-10552176D01*
X8222856Y-10523604D01*
X8213333Y-10514081D01*
X1069999Y-10872176D02*
X1269999Y-11072176D01*
X1269999Y-10872176D02*
X1069999Y-11072176D01*
X1269999Y-10972176D02*
G75*
G03*
X1269999Y-10972176I-100000J0D01*
G01*
X1508571Y-10862652D02*
X1632380Y-10862652D01*
X1565714Y-10938842D01*
X1594285Y-10938842D01*
X1613333Y-10948366D01*
X1622856Y-10957890D01*
X1632380Y-10976938D01*
X1632380Y-11024557D01*
X1622856Y-11043604D01*
X1613333Y-11053128D01*
X1594285Y-11062652D01*
X1537142Y-11062652D01*
X1518095Y-11053128D01*
X1508571Y-11043604D01*
X1718095Y-11043604D02*
X1727618Y-11053128D01*
X1718095Y-11062652D01*
X1708571Y-11053128D01*
X1718095Y-11043604D01*
X1718095Y-11062652D01*
X1899047Y-10929319D02*
X1899047Y-11062652D01*
X1851428Y-10853128D02*
X1803809Y-10995985D01*
X1927618Y-10995985D01*
X1994285Y-10881700D02*
X2003809Y-10872176D01*
X2022856Y-10862652D01*
X2070475Y-10862652D01*
X2089523Y-10872176D01*
X2099047Y-10881700D01*
X2108571Y-10900747D01*
X2108571Y-10919795D01*
X2099047Y-10948366D01*
X1984761Y-11062652D01*
X2108571Y-11062652D01*
X2203809Y-11062652D02*
X2241904Y-11062652D01*
X2260952Y-11053128D01*
X2270476Y-11043604D01*
X2289523Y-11015033D01*
X2299047Y-10976938D01*
X2299047Y-10900747D01*
X2289523Y-10881700D01*
X2279999Y-10872176D01*
X2260952Y-10862652D01*
X2222857Y-10862652D01*
X2203809Y-10872176D01*
X2194285Y-10881700D01*
X2184761Y-10900747D01*
X2184761Y-10948366D01*
X2194285Y-10967414D01*
X2203809Y-10976938D01*
X2222857Y-10986462D01*
X2260952Y-10986462D01*
X2279999Y-10976938D01*
X2289523Y-10967414D01*
X2299047Y-10948366D01*
X2384761Y-11062652D02*
X2384761Y-10929319D01*
X2384761Y-10948366D02*
X2394285Y-10938842D01*
X2413333Y-10929319D01*
X2441904Y-10929319D01*
X2460952Y-10938842D01*
X2470476Y-10957890D01*
X2470476Y-11062652D01*
X2470476Y-10957890D02*
X2479999Y-10938842D01*
X2499047Y-10929319D01*
X2527618Y-10929319D01*
X2546666Y-10938842D01*
X2556190Y-10957890D01*
X2556190Y-11062652D01*
X2651428Y-11062652D02*
X2651428Y-10929319D01*
X2651428Y-10948366D02*
X2660952Y-10938842D01*
X2679999Y-10929319D01*
X2708571Y-10929319D01*
X2727618Y-10938842D01*
X2737142Y-10957890D01*
X2737142Y-11062652D01*
X2737142Y-10957890D02*
X2746666Y-10938842D01*
X2765714Y-10929319D01*
X2794285Y-10929319D01*
X2813333Y-10938842D01*
X2822856Y-10957890D01*
X2822856Y-11062652D01*
X3213333Y-10853128D02*
X3041904Y-11110271D01*
X3470475Y-10862652D02*
X3489523Y-10862652D01*
X3508571Y-10872176D01*
X3518095Y-10881700D01*
X3527618Y-10900747D01*
X3537142Y-10938842D01*
X3537142Y-10986462D01*
X3527618Y-11024557D01*
X3518095Y-11043604D01*
X3508571Y-11053128D01*
X3489523Y-11062652D01*
X3470475Y-11062652D01*
X3451428Y-11053128D01*
X3441904Y-11043604D01*
X3432380Y-11024557D01*
X3422856Y-10986462D01*
X3422856Y-10938842D01*
X3432380Y-10900747D01*
X3441904Y-10881700D01*
X3451428Y-10872176D01*
X3470475Y-10862652D01*
X3622856Y-11043604D02*
X3632380Y-11053128D01*
X3622856Y-11062652D01*
X3613333Y-11053128D01*
X3622856Y-11043604D01*
X3622856Y-11062652D01*
X3822856Y-11062652D02*
X3708571Y-11062652D01*
X3765714Y-11062652D02*
X3765714Y-10862652D01*
X3746666Y-10891223D01*
X3727618Y-10910271D01*
X3708571Y-10919795D01*
X3889523Y-10862652D02*
X4013333Y-10862652D01*
X3946666Y-10938842D01*
X3975237Y-10938842D01*
X3994285Y-10948366D01*
X4003809Y-10957890D01*
X4013333Y-10976938D01*
X4013333Y-11024557D01*
X4003809Y-11043604D01*
X3994285Y-11053128D01*
X3975237Y-11062652D01*
X3918095Y-11062652D01*
X3899047Y-11053128D01*
X3889523Y-11043604D01*
X4194285Y-10862652D02*
X4099047Y-10862652D01*
X4089523Y-10957890D01*
X4099047Y-10948366D01*
X4118095Y-10938842D01*
X4165714Y-10938842D01*
X4184761Y-10948366D01*
X4194285Y-10957890D01*
X4203809Y-10976938D01*
X4203809Y-11024557D01*
X4194285Y-11043604D01*
X4184761Y-11053128D01*
X4165714Y-11062652D01*
X4118095Y-11062652D01*
X4099047Y-11053128D01*
X4089523Y-11043604D01*
X4327618Y-10862652D02*
X4346666Y-10862652D01*
X4365714Y-10872176D01*
X4375237Y-10881700D01*
X4384761Y-10900747D01*
X4394285Y-10938842D01*
X4394285Y-10986462D01*
X4384761Y-11024557D01*
X4375237Y-11043604D01*
X4365714Y-11053128D01*
X4346666Y-11062652D01*
X4327618Y-11062652D01*
X4308571Y-11053128D01*
X4299047Y-11043604D01*
X4289523Y-11024557D01*
X4279999Y-10986462D01*
X4279999Y-10938842D01*
X4289523Y-10900747D01*
X4299047Y-10881700D01*
X4308571Y-10872176D01*
X4327618Y-10862652D01*
X4470476Y-10862652D02*
X4470476Y-10900747D01*
X4546666Y-10862652D02*
X4546666Y-10900747D01*
X4841904Y-11138842D02*
X4832380Y-11129319D01*
X4813333Y-11100747D01*
X4803809Y-11081700D01*
X4794285Y-11053128D01*
X4784761Y-11005509D01*
X4784761Y-10967414D01*
X4794285Y-10919795D01*
X4803809Y-10891223D01*
X4813333Y-10872176D01*
X4832380Y-10843604D01*
X4841904Y-10834081D01*
X4946666Y-10948366D02*
X4927618Y-10938842D01*
X4918095Y-10929319D01*
X4908571Y-10910271D01*
X4908571Y-10900747D01*
X4918095Y-10881700D01*
X4927618Y-10872176D01*
X4946666Y-10862652D01*
X4984761Y-10862652D01*
X5003809Y-10872176D01*
X5013333Y-10881700D01*
X5022857Y-10900747D01*
X5022857Y-10910271D01*
X5013333Y-10929319D01*
X5003809Y-10938842D01*
X4984761Y-10948366D01*
X4946666Y-10948366D01*
X4927618Y-10957890D01*
X4918095Y-10967414D01*
X4908571Y-10986462D01*
X4908571Y-11024557D01*
X4918095Y-11043604D01*
X4927618Y-11053128D01*
X4946666Y-11062652D01*
X4984761Y-11062652D01*
X5003809Y-11053128D01*
X5013333Y-11043604D01*
X5022857Y-11024557D01*
X5022857Y-10986462D01*
X5013333Y-10967414D01*
X5003809Y-10957890D01*
X4984761Y-10948366D01*
X5260952Y-11062652D02*
X5260952Y-10862652D01*
X5346666Y-11062652D02*
X5346666Y-10957890D01*
X5337142Y-10938842D01*
X5318095Y-10929319D01*
X5289523Y-10929319D01*
X5270476Y-10938842D01*
X5260952Y-10948366D01*
X5470476Y-11062652D02*
X5451428Y-11053128D01*
X5441904Y-11043604D01*
X5432380Y-11024557D01*
X5432380Y-10967414D01*
X5441904Y-10948366D01*
X5451428Y-10938842D01*
X5470476Y-10929319D01*
X5499047Y-10929319D01*
X5518095Y-10938842D01*
X5527618Y-10948366D01*
X5537142Y-10967414D01*
X5537142Y-11024557D01*
X5527618Y-11043604D01*
X5518095Y-11053128D01*
X5499047Y-11062652D01*
X5470476Y-11062652D01*
X5651428Y-11062652D02*
X5632380Y-11053128D01*
X5622856Y-11034081D01*
X5622856Y-10862652D01*
X5803809Y-11053128D02*
X5784761Y-11062652D01*
X5746666Y-11062652D01*
X5727618Y-11053128D01*
X5718095Y-11034081D01*
X5718095Y-10957890D01*
X5727618Y-10938842D01*
X5746666Y-10929319D01*
X5784761Y-10929319D01*
X5803809Y-10938842D01*
X5813333Y-10957890D01*
X5813333Y-10976938D01*
X5718095Y-10995985D01*
X5889523Y-11053128D02*
X5908571Y-11062652D01*
X5946666Y-11062652D01*
X5965714Y-11053128D01*
X5975237Y-11034081D01*
X5975237Y-11024557D01*
X5965714Y-11005509D01*
X5946666Y-10995985D01*
X5918095Y-10995985D01*
X5899047Y-10986462D01*
X5889523Y-10967414D01*
X5889523Y-10957890D01*
X5899047Y-10938842D01*
X5918095Y-10929319D01*
X5946666Y-10929319D01*
X5965714Y-10938842D01*
X6041904Y-11138842D02*
X6051428Y-11129319D01*
X6070475Y-11100747D01*
X6079999Y-11081700D01*
X6089523Y-11053128D01*
X6099047Y-11005509D01*
X6099047Y-10967414D01*
X6089523Y-10919795D01*
X6079999Y-10891223D01*
X6070475Y-10872176D01*
X6051428Y-10843604D01*
X6041904Y-10834081D01*
X6403809Y-11138842D02*
X6394285Y-11129319D01*
X6375237Y-11100747D01*
X6365714Y-11081700D01*
X6356190Y-11053128D01*
X6346666Y-11005509D01*
X6346666Y-10967414D01*
X6356190Y-10919795D01*
X6365714Y-10891223D01*
X6375237Y-10872176D01*
X6394285Y-10843604D01*
X6403809Y-10834081D01*
X6479999Y-10929319D02*
X6479999Y-11062652D01*
X6479999Y-10948366D02*
X6489523Y-10938842D01*
X6508571Y-10929319D01*
X6537142Y-10929319D01*
X6556190Y-10938842D01*
X6565714Y-10957890D01*
X6565714Y-11062652D01*
X6689523Y-11062652D02*
X6670475Y-11053128D01*
X6660952Y-11043604D01*
X6651428Y-11024557D01*
X6651428Y-10967414D01*
X6660952Y-10948366D01*
X6670475Y-10938842D01*
X6689523Y-10929319D01*
X6718095Y-10929319D01*
X6737142Y-10938842D01*
X6746666Y-10948366D01*
X6756190Y-10967414D01*
X6756190Y-11024557D01*
X6746666Y-11043604D01*
X6737142Y-11053128D01*
X6718095Y-11062652D01*
X6689523Y-11062652D01*
X6813333Y-10929319D02*
X6889523Y-10929319D01*
X6841904Y-10862652D02*
X6841904Y-11034081D01*
X6851428Y-11053128D01*
X6870475Y-11062652D01*
X6889523Y-11062652D01*
X7108571Y-10929319D02*
X7108571Y-11129319D01*
X7108571Y-10938842D02*
X7127618Y-10929319D01*
X7165714Y-10929319D01*
X7184761Y-10938842D01*
X7194285Y-10948366D01*
X7203809Y-10967414D01*
X7203809Y-11024557D01*
X7194285Y-11043604D01*
X7184761Y-11053128D01*
X7165714Y-11062652D01*
X7127618Y-11062652D01*
X7108571Y-11053128D01*
X7318095Y-11062652D02*
X7299047Y-11053128D01*
X7289523Y-11034081D01*
X7289523Y-10862652D01*
X7479999Y-11062652D02*
X7479999Y-10957890D01*
X7470475Y-10938842D01*
X7451428Y-10929319D01*
X7413333Y-10929319D01*
X7394285Y-10938842D01*
X7479999Y-11053128D02*
X7460952Y-11062652D01*
X7413333Y-11062652D01*
X7394285Y-11053128D01*
X7384761Y-11034081D01*
X7384761Y-11015033D01*
X7394285Y-10995985D01*
X7413333Y-10986462D01*
X7460952Y-10986462D01*
X7479999Y-10976938D01*
X7546666Y-10929319D02*
X7622856Y-10929319D01*
X7575237Y-10862652D02*
X7575237Y-11034081D01*
X7584761Y-11053128D01*
X7603809Y-11062652D01*
X7622856Y-11062652D01*
X7765714Y-11053128D02*
X7746666Y-11062652D01*
X7708571Y-11062652D01*
X7689523Y-11053128D01*
X7679999Y-11034081D01*
X7679999Y-10957890D01*
X7689523Y-10938842D01*
X7708571Y-10929319D01*
X7746666Y-10929319D01*
X7765714Y-10938842D01*
X7775237Y-10957890D01*
X7775237Y-10976938D01*
X7679999Y-10995985D01*
X7946666Y-11062652D02*
X7946666Y-10862652D01*
X7946666Y-11053128D02*
X7927618Y-11062652D01*
X7889523Y-11062652D01*
X7870475Y-11053128D01*
X7860952Y-11043604D01*
X7851428Y-11024557D01*
X7851428Y-10967414D01*
X7860952Y-10948366D01*
X7870475Y-10938842D01*
X7889523Y-10929319D01*
X7927618Y-10929319D01*
X7946666Y-10938842D01*
X8022856Y-11138842D02*
X8032380Y-11129319D01*
X8051428Y-11100747D01*
X8060952Y-11081700D01*
X8070475Y-11053128D01*
X8079999Y-11005509D01*
X8079999Y-10967414D01*
X8070475Y-10919795D01*
X8060952Y-10891223D01*
X8051428Y-10872176D01*
X8032380Y-10843604D01*
X8022856Y-10834081D01*
M02*
