%TF.GenerationSoftware,KiCad,Pcbnew,(6.0.4-0)*%
%TF.CreationDate,2023-04-02T18:55:56-05:00*%
%TF.ProjectId,noldaCoreRType,6e6f6c64-6143-46f7-9265-52547970652e,rev?*%
%TF.SameCoordinates,Original*%
%TF.FileFunction,Plated,1,2,PTH,Mixed*%
%TF.FilePolarity,Positive*%
%FSLAX46Y46*%
G04 Gerber Fmt 4.6, Leading zero omitted, Abs format (unit mm)*
G04 Created by KiCad (PCBNEW (6.0.4-0)) date 2023-04-02 18:55:56*
%MOMM*%
%LPD*%
G01*
G04 APERTURE LIST*
%TA.AperFunction,ComponentDrill*%
%ADD10C,0.350000*%
%TD*%
%TA.AperFunction,ViaDrill*%
%ADD11C,0.400000*%
%TD*%
G04 aperture for slot hole*
%TA.AperFunction,ComponentDrill*%
%ADD12O,0.600000X1.200000*%
%TD*%
G04 aperture for slot hole*
%TA.AperFunction,ComponentDrill*%
%ADD13O,0.600000X1.700000*%
%TD*%
%TA.AperFunction,ComponentDrill*%
%ADD14C,1.000000*%
%TD*%
%TA.AperFunction,ComponentDrill*%
%ADD15C,2.200000*%
%TD*%
G04 APERTURE END LIST*
D10*
%TO.C,U3*%
X47071855Y-31874985D03*
X47973416Y-30973424D03*
X47973416Y-32776546D03*
X48874977Y-30071863D03*
X48874977Y-31874985D03*
X48874977Y-33678107D03*
X49776538Y-30973424D03*
X49776538Y-32776546D03*
X50678099Y-31874985D03*
%TD*%
D11*
X24083322Y-75791631D03*
X24083322Y-86416626D03*
X24084809Y-54543128D03*
X29749986Y-50291643D03*
X29749986Y-65166636D03*
X31166652Y-54541641D03*
X31874985Y-75083298D03*
X32583318Y-49583310D03*
X32583318Y-55958307D03*
X33999984Y-49583310D03*
X33999984Y-55249974D03*
X34250000Y-31000000D03*
X34500000Y-19333308D03*
X34500000Y-24000000D03*
X35416650Y-19833324D03*
X35499994Y-22750000D03*
X36124983Y-38958315D03*
X36250000Y-14250000D03*
X36275000Y-15725000D03*
X36417365Y-26493954D03*
X37250000Y-30250000D03*
X37250000Y-34000000D03*
X38197495Y-19072504D03*
X38500000Y-29866714D03*
X38500000Y-34000000D03*
X39750000Y-34000000D03*
X40819520Y-20147861D03*
X41250000Y-14500000D03*
X42499980Y-33999984D03*
X43208313Y-38958315D03*
X43916646Y-38249982D03*
X44577922Y-25950100D03*
X44950007Y-13799993D03*
X45000000Y-22250000D03*
X47353278Y-39674499D03*
X47458311Y-55958307D03*
X47458311Y-75083298D03*
X48350000Y-39600000D03*
X49000000Y-23750000D03*
X49200408Y-42825411D03*
X51000000Y-21000000D03*
X52416642Y-24791655D03*
X53250000Y-21250000D03*
X54773812Y-27476188D03*
X55800000Y-36009500D03*
X57374973Y-21958323D03*
X57374973Y-27624987D03*
X61000000Y-27250000D03*
X63749970Y-55249974D03*
X63749970Y-58083306D03*
X63749970Y-62333304D03*
X63749970Y-75083298D03*
X65874969Y-24083322D03*
X73666632Y-29041653D03*
X73666632Y-33999984D03*
D12*
%TO.C,J2*%
X42429978Y-13799993D03*
D13*
X42429978Y-17979993D03*
D12*
X51069978Y-13799993D03*
D13*
X51069978Y-17979993D03*
D14*
%TO.C,J4*%
X78624963Y-22838319D03*
X78624963Y-25378319D03*
X78624963Y-27918319D03*
X78624963Y-30458319D03*
X78624963Y-32998319D03*
X78624963Y-35538319D03*
D15*
%TO.C,H6*%
X14874993Y-14874993D03*
%TO.C,H3*%
X14874993Y-53124975D03*
%TO.C,H1*%
X29749986Y-72249966D03*
%TO.C,H2*%
X63749970Y-72249966D03*
%TO.C,H5*%
X78624963Y-14874993D03*
%TO.C,H4*%
X78624963Y-53124975D03*
M02*
