%TF.GenerationSoftware,KiCad,Pcbnew,(6.0.4-0)*%
%TF.CreationDate,2023-04-02T18:55:56-05:00*%
%TF.ProjectId,noldaCoreRType,6e6f6c64-6143-46f7-9265-52547970652e,rev?*%
%TF.SameCoordinates,Original*%
%TF.FileFunction,NonPlated,1,2,NPTH,Drill*%
%TF.FilePolarity,Positive*%
%FSLAX46Y46*%
G04 Gerber Fmt 4.6, Leading zero omitted, Abs format (unit mm)*
G04 Created by KiCad (PCBNEW (6.0.4-0)) date 2023-04-02 18:55:56*
%MOMM*%
%LPD*%
G01*
G04 APERTURE LIST*
%TA.AperFunction,ComponentDrill*%
%ADD10C,0.650000*%
%TD*%
%TA.AperFunction,ComponentDrill*%
%ADD11C,0.900000*%
%TD*%
%TA.AperFunction,ComponentDrill*%
%ADD12C,0.990600*%
%TD*%
%TA.AperFunction,ComponentDrill*%
%ADD13C,1.701800*%
%TD*%
%TA.AperFunction,ComponentDrill*%
%ADD14C,3.000000*%
%TD*%
%TA.AperFunction,ComponentDrill*%
%ADD15C,3.429000*%
%TD*%
G04 APERTURE END LIST*
D10*
%TO.C,J2*%
X43859978Y-17479993D03*
X49639978Y-17479993D03*
D11*
%TO.C,SW6*%
X64374969Y-14544993D03*
X67374969Y-14544993D03*
D12*
%TO.C,SW2*%
X16029990Y-59549970D03*
%TO.C,SW7*%
X16029990Y-76549962D03*
%TO.C,SW3*%
X33029982Y-59549970D03*
%TO.C,SW8*%
X43469982Y-84949962D03*
%TO.C,SW4*%
X50029974Y-59549970D03*
%TO.C,SW9*%
X60469974Y-84949962D03*
%TO.C,SW5*%
X77469966Y-67949970D03*
%TO.C,SW10*%
X77469966Y-84949962D03*
D13*
%TO.C,SW2*%
X15749990Y-63749970D03*
%TO.C,SW7*%
X15749990Y-80749962D03*
%TO.C,SW2*%
X26749990Y-63749970D03*
%TO.C,SW7*%
X26749990Y-80749962D03*
%TO.C,SW3*%
X32749982Y-63749970D03*
%TO.C,SW8*%
X32749982Y-80749962D03*
%TO.C,SW3*%
X43749982Y-63749970D03*
%TO.C,SW8*%
X43749982Y-80749962D03*
%TO.C,SW4*%
X49749974Y-63749970D03*
%TO.C,SW9*%
X49749974Y-80749962D03*
%TO.C,SW4*%
X60749974Y-63749970D03*
%TO.C,SW9*%
X60749974Y-80749962D03*
%TO.C,SW5*%
X66749966Y-63749970D03*
%TO.C,SW10*%
X66749966Y-80749962D03*
%TO.C,SW5*%
X77749966Y-63749970D03*
%TO.C,SW10*%
X77749966Y-80749962D03*
D14*
%TO.C,SW2*%
X21249990Y-69699970D03*
%TO.C,SW7*%
X21249990Y-86699962D03*
%TO.C,SW2*%
X26249990Y-67499970D03*
%TO.C,SW7*%
X26249990Y-84499962D03*
%TO.C,SW8*%
X33249982Y-76999962D03*
%TO.C,SW3*%
X38249982Y-69699970D03*
%TO.C,SW8*%
X38249982Y-74799962D03*
%TO.C,SW3*%
X43249982Y-67499970D03*
%TO.C,SW9*%
X50249974Y-76999962D03*
%TO.C,SW4*%
X55249974Y-69699970D03*
%TO.C,SW9*%
X55249974Y-74799962D03*
%TO.C,SW4*%
X60249974Y-67499970D03*
%TO.C,SW5*%
X67249966Y-59999970D03*
%TO.C,SW10*%
X67249966Y-76999962D03*
%TO.C,SW5*%
X72249966Y-57799970D03*
%TO.C,SW10*%
X72249966Y-74799962D03*
D15*
%TO.C,SW2*%
X21249990Y-63749970D03*
%TO.C,SW7*%
X21249990Y-80749962D03*
%TO.C,SW3*%
X38249982Y-63749970D03*
%TO.C,SW8*%
X38249982Y-80749962D03*
%TO.C,SW4*%
X55249974Y-63749970D03*
%TO.C,SW9*%
X55249974Y-80749962D03*
%TO.C,SW5*%
X72249966Y-63749970D03*
%TO.C,SW10*%
X72249966Y-80749962D03*
M02*
