%FSLAX45Y45*%
G04 Gerber Fmt 4.5, Leading zero omitted, Abs format (unit mm)*
G04 Created by KiCad (PCBNEW (6.0.4-0)) date 2023-04-02 18:55:56*
%MOMM*%
%LPD*%
G01*
G04 APERTURE LIST*
%TA.AperFunction,Profile*%
%ADD10C,0.100000*%
%TD*%
%ADD11C,0.200000*%
%ADD12C,0.035000*%
%ADD13C,0.040000*%
%ADD14C,0.060000*%
%ADD15C,0.100000*%
%ADD16C,0.220000*%
G04 APERTURE END LIST*
D10*
X1274999Y-8712496D02*
G75*
G03*
X1487499Y-8924996I212500J0D01*
G01*
X7862496Y-8924996D02*
G75*
G03*
X8074996Y-8712496I0J212500D01*
G01*
X8074996Y-1487499D02*
G75*
G03*
X7862496Y-1274999I-212500J0D01*
G01*
X1487499Y-1274999D02*
G75*
G03*
X1274999Y-1487499I0J-212500D01*
G01*
X8074996Y-8712496D02*
X8074996Y-1487499D01*
X4179165Y-5308331D02*
G75*
G03*
X4254165Y-5383331I75000J0D01*
G01*
X1487499Y-1274999D02*
X7862496Y-1274999D01*
X1487499Y-8924996D02*
X7862496Y-8924996D01*
X5095831Y-5383331D02*
G75*
G03*
X5170831Y-5308331I0J75000D01*
G01*
X5170831Y-5212500D02*
G75*
G03*
X5095831Y-5137500I-75000J0D01*
G01*
X4179165Y-5308331D02*
X4179165Y-5212500D01*
X4254165Y-5137500D02*
X5095831Y-5137500D01*
X1274999Y-1487499D02*
X1274999Y-8712496D01*
X4254165Y-5137500D02*
G75*
G03*
X4179165Y-5212500I0J-75000D01*
G01*
X5095831Y-5383331D02*
X4254165Y-5383331D01*
X5170831Y-5308331D02*
X5170831Y-5212500D01*
D11*
D12*
X4689686Y-3169998D02*
X4724686Y-3204998D01*
X4724686Y-3169998D02*
X4689686Y-3204998D01*
X4779842Y-3079842D02*
X4814842Y-3114842D01*
X4814842Y-3079842D02*
X4779842Y-3114842D01*
X4779842Y-3260155D02*
X4814842Y-3295155D01*
X4814842Y-3260155D02*
X4779842Y-3295155D01*
X4869998Y-2989686D02*
X4904998Y-3024686D01*
X4904998Y-2989686D02*
X4869998Y-3024686D01*
X4869998Y-3169998D02*
X4904998Y-3204998D01*
X4904998Y-3169998D02*
X4869998Y-3204998D01*
X4869998Y-3350311D02*
X4904998Y-3385311D01*
X4904998Y-3350311D02*
X4869998Y-3385311D01*
X4960154Y-3079842D02*
X4995154Y-3114842D01*
X4995154Y-3079842D02*
X4960154Y-3114842D01*
X4960154Y-3260155D02*
X4995154Y-3295155D01*
X4995154Y-3260155D02*
X4960154Y-3295155D01*
X5050310Y-3169998D02*
X5085310Y-3204998D01*
X5085310Y-3169998D02*
X5050310Y-3204998D01*
D13*
X2428332Y-7579163D02*
G75*
G03*
X2428332Y-7579163I-20000J0D01*
G01*
X2428332Y-8641663D02*
G75*
G03*
X2428332Y-8641663I-20000J0D01*
G01*
X2428481Y-5454313D02*
G75*
G03*
X2428481Y-5454313I-20000J0D01*
G01*
X2994999Y-5029164D02*
G75*
G03*
X2994999Y-5029164I-20000J0D01*
G01*
X2994999Y-6516664D02*
G75*
G03*
X2994999Y-6516664I-20000J0D01*
G01*
X3136665Y-5454164D02*
G75*
G03*
X3136665Y-5454164I-20000J0D01*
G01*
X3207498Y-7508330D02*
G75*
G03*
X3207498Y-7508330I-20000J0D01*
G01*
X3278332Y-4958331D02*
G75*
G03*
X3278332Y-4958331I-20000J0D01*
G01*
X3278332Y-5595831D02*
G75*
G03*
X3278332Y-5595831I-20000J0D01*
G01*
X3419998Y-4958331D02*
G75*
G03*
X3419998Y-4958331I-20000J0D01*
G01*
X3419998Y-5524997D02*
G75*
G03*
X3419998Y-5524997I-20000J0D01*
G01*
X3445000Y-3100000D02*
G75*
G03*
X3445000Y-3100000I-20000J0D01*
G01*
X3470000Y-1933331D02*
G75*
G03*
X3470000Y-1933331I-20000J0D01*
G01*
X3470000Y-2400000D02*
G75*
G03*
X3470000Y-2400000I-20000J0D01*
G01*
X3561665Y-1983332D02*
G75*
G03*
X3561665Y-1983332I-20000J0D01*
G01*
X3569999Y-2275000D02*
G75*
G03*
X3569999Y-2275000I-20000J0D01*
G01*
X3632498Y-3895831D02*
G75*
G03*
X3632498Y-3895831I-20000J0D01*
G01*
X3645000Y-1425000D02*
G75*
G03*
X3645000Y-1425000I-20000J0D01*
G01*
X3647500Y-1572500D02*
G75*
G03*
X3647500Y-1572500I-20000J0D01*
G01*
X3661736Y-2649395D02*
G75*
G03*
X3661736Y-2649395I-20000J0D01*
G01*
X3745000Y-3025000D02*
G75*
G03*
X3745000Y-3025000I-20000J0D01*
G01*
X3745000Y-3400000D02*
G75*
G03*
X3745000Y-3400000I-20000J0D01*
G01*
X3839749Y-1907250D02*
G75*
G03*
X3839749Y-1907250I-20000J0D01*
G01*
X3870000Y-2986671D02*
G75*
G03*
X3870000Y-2986671I-20000J0D01*
G01*
X3870000Y-3400000D02*
G75*
G03*
X3870000Y-3400000I-20000J0D01*
G01*
X3995000Y-3400000D02*
G75*
G03*
X3995000Y-3400000I-20000J0D01*
G01*
X4101952Y-2014786D02*
G75*
G03*
X4101952Y-2014786I-20000J0D01*
G01*
X4145000Y-1450000D02*
G75*
G03*
X4145000Y-1450000I-20000J0D01*
G01*
X4269998Y-3399998D02*
G75*
G03*
X4269998Y-3399998I-20000J0D01*
G01*
X4340831Y-3895831D02*
G75*
G03*
X4340831Y-3895831I-20000J0D01*
G01*
X4411665Y-3824998D02*
G75*
G03*
X4411665Y-3824998I-20000J0D01*
G01*
X4477792Y-2595010D02*
G75*
G03*
X4477792Y-2595010I-20000J0D01*
G01*
X4515001Y-1379999D02*
G75*
G03*
X4515001Y-1379999I-20000J0D01*
G01*
X4520000Y-2225000D02*
G75*
G03*
X4520000Y-2225000I-20000J0D01*
G01*
X4755328Y-3967450D02*
G75*
G03*
X4755328Y-3967450I-20000J0D01*
G01*
X4765831Y-5595831D02*
G75*
G03*
X4765831Y-5595831I-20000J0D01*
G01*
X4765831Y-7508330D02*
G75*
G03*
X4765831Y-7508330I-20000J0D01*
G01*
X4855000Y-3960000D02*
G75*
G03*
X4855000Y-3960000I-20000J0D01*
G01*
X4920000Y-2375000D02*
G75*
G03*
X4920000Y-2375000I-20000J0D01*
G01*
X4940041Y-4282541D02*
G75*
G03*
X4940041Y-4282541I-20000J0D01*
G01*
X5120000Y-2100000D02*
G75*
G03*
X5120000Y-2100000I-20000J0D01*
G01*
X5261664Y-2479166D02*
G75*
G03*
X5261664Y-2479166I-20000J0D01*
G01*
X5345000Y-2125000D02*
G75*
G03*
X5345000Y-2125000I-20000J0D01*
G01*
X5497381Y-2747619D02*
G75*
G03*
X5497381Y-2747619I-20000J0D01*
G01*
X5600000Y-3600950D02*
G75*
G03*
X5600000Y-3600950I-20000J0D01*
G01*
X5757497Y-2195832D02*
G75*
G03*
X5757497Y-2195832I-20000J0D01*
G01*
X5757497Y-2762499D02*
G75*
G03*
X5757497Y-2762499I-20000J0D01*
G01*
X6120000Y-2725000D02*
G75*
G03*
X6120000Y-2725000I-20000J0D01*
G01*
X6394997Y-5524997D02*
G75*
G03*
X6394997Y-5524997I-20000J0D01*
G01*
X6394997Y-5808331D02*
G75*
G03*
X6394997Y-5808331I-20000J0D01*
G01*
X6394997Y-6233330D02*
G75*
G03*
X6394997Y-6233330I-20000J0D01*
G01*
X6394997Y-7508330D02*
G75*
G03*
X6394997Y-7508330I-20000J0D01*
G01*
X6607497Y-2408332D02*
G75*
G03*
X6607497Y-2408332I-20000J0D01*
G01*
X7386663Y-2904165D02*
G75*
G03*
X7386663Y-2904165I-20000J0D01*
G01*
X7386663Y-3399998D02*
G75*
G03*
X7386663Y-3399998I-20000J0D01*
G01*
D14*
X4242998Y-1349999D02*
X4242998Y-1409999D01*
X4212998Y-1379999D02*
X4272998Y-1379999D01*
D11*
X4262998Y-1409999D02*
X4262998Y-1349999D01*
X4222998Y-1409999D02*
X4222998Y-1349999D01*
X4262998Y-1349999D02*
G75*
G03*
X4222998Y-1349999I-20000J0D01*
G01*
X4222998Y-1409999D02*
G75*
G03*
X4262998Y-1409999I20000J0D01*
G01*
D14*
X4242998Y-1767999D02*
X4242998Y-1827999D01*
X4212998Y-1797999D02*
X4272998Y-1797999D01*
D11*
X4262998Y-1852999D02*
X4262998Y-1742999D01*
X4222998Y-1852999D02*
X4222998Y-1742999D01*
X4262998Y-1742999D02*
G75*
G03*
X4222998Y-1742999I-20000J0D01*
G01*
X4222998Y-1852999D02*
G75*
G03*
X4262998Y-1852999I20000J0D01*
G01*
D14*
X5106998Y-1349999D02*
X5106998Y-1409999D01*
X5076998Y-1379999D02*
X5136998Y-1379999D01*
D11*
X5126998Y-1409999D02*
X5126998Y-1349999D01*
X5086998Y-1409999D02*
X5086998Y-1349999D01*
X5126998Y-1349999D02*
G75*
G03*
X5086998Y-1349999I-20000J0D01*
G01*
X5086998Y-1409999D02*
G75*
G03*
X5126998Y-1409999I20000J0D01*
G01*
D14*
X5106998Y-1767999D02*
X5106998Y-1827999D01*
X5076998Y-1797999D02*
X5136998Y-1797999D01*
D11*
X5126998Y-1852999D02*
X5126998Y-1742999D01*
X5086998Y-1852999D02*
X5086998Y-1742999D01*
X5126998Y-1742999D02*
G75*
G03*
X5086998Y-1742999I-20000J0D01*
G01*
X5086998Y-1852999D02*
G75*
G03*
X5126998Y-1852999I20000J0D01*
G01*
D15*
X7897852Y-2319188D02*
X7897852Y-2248476D01*
X7827141Y-2248476D01*
X7827141Y-2319188D01*
X7897852Y-2319188D01*
X7897852Y-2573188D02*
X7897852Y-2502476D01*
X7827141Y-2502476D01*
X7827141Y-2573188D01*
X7897852Y-2573188D01*
X7897852Y-2827188D02*
X7897852Y-2756476D01*
X7827141Y-2756476D01*
X7827141Y-2827188D01*
X7897852Y-2827188D01*
X7897852Y-3081188D02*
X7897852Y-3010476D01*
X7827141Y-3010476D01*
X7827141Y-3081188D01*
X7897852Y-3081188D01*
X7897852Y-3335188D02*
X7897852Y-3264476D01*
X7827141Y-3264476D01*
X7827141Y-3335188D01*
X7897852Y-3335188D01*
X7897852Y-3589188D02*
X7897852Y-3518476D01*
X7827141Y-3518476D01*
X7827141Y-3589188D01*
X7897852Y-3589188D01*
D16*
X1487499Y-1597499D02*
X1597499Y-1487499D01*
X1487499Y-1377499D01*
X1377499Y-1487499D01*
X1487499Y-1597499D01*
X1487499Y-5422498D02*
X1597499Y-5312498D01*
X1487499Y-5202498D01*
X1377499Y-5312498D01*
X1487499Y-5422498D01*
X2974999Y-7334997D02*
X3084999Y-7224997D01*
X2974999Y-7114997D01*
X2864999Y-7224997D01*
X2974999Y-7334997D01*
X6374997Y-7334997D02*
X6484997Y-7224997D01*
X6374997Y-7114997D01*
X6264997Y-7224997D01*
X6374997Y-7334997D01*
X7862496Y-1597499D02*
X7972496Y-1487499D01*
X7862496Y-1377499D01*
X7752496Y-1487499D01*
X7862496Y-1597499D01*
X7862496Y-5422498D02*
X7972496Y-5312498D01*
X7862496Y-5202498D01*
X7752496Y-5312498D01*
X7862496Y-5422498D01*
D11*
X1527618Y-9240472D02*
X1527618Y-9040472D01*
X1575237Y-9040472D01*
X1603809Y-9049996D01*
X1622856Y-9069043D01*
X1632380Y-9088091D01*
X1641904Y-9126186D01*
X1641904Y-9154758D01*
X1632380Y-9192853D01*
X1622856Y-9211901D01*
X1603809Y-9230948D01*
X1575237Y-9240472D01*
X1527618Y-9240472D01*
X1727618Y-9240472D02*
X1727618Y-9107139D01*
X1727618Y-9145234D02*
X1737142Y-9126186D01*
X1746666Y-9116662D01*
X1765714Y-9107139D01*
X1784761Y-9107139D01*
X1851428Y-9240472D02*
X1851428Y-9107139D01*
X1851428Y-9040472D02*
X1841904Y-9049996D01*
X1851428Y-9059520D01*
X1860952Y-9049996D01*
X1851428Y-9040472D01*
X1851428Y-9059520D01*
X1975237Y-9240472D02*
X1956190Y-9230948D01*
X1946666Y-9211901D01*
X1946666Y-9040472D01*
X2079999Y-9240472D02*
X2060952Y-9230948D01*
X2051428Y-9211901D01*
X2051428Y-9040472D01*
X2308571Y-9240472D02*
X2308571Y-9040472D01*
X2375237Y-9183329D01*
X2441904Y-9040472D01*
X2441904Y-9240472D01*
X2622857Y-9240472D02*
X2622857Y-9135710D01*
X2613333Y-9116662D01*
X2594285Y-9107139D01*
X2556190Y-9107139D01*
X2537142Y-9116662D01*
X2622857Y-9230948D02*
X2603809Y-9240472D01*
X2556190Y-9240472D01*
X2537142Y-9230948D01*
X2527618Y-9211901D01*
X2527618Y-9192853D01*
X2537142Y-9173805D01*
X2556190Y-9164282D01*
X2603809Y-9164282D01*
X2622857Y-9154758D01*
X2718095Y-9107139D02*
X2718095Y-9307139D01*
X2718095Y-9116662D02*
X2737142Y-9107139D01*
X2775237Y-9107139D01*
X2794285Y-9116662D01*
X2803809Y-9126186D01*
X2813333Y-9145234D01*
X2813333Y-9202377D01*
X2803809Y-9221424D01*
X2794285Y-9230948D01*
X2775237Y-9240472D01*
X2737142Y-9240472D01*
X2718095Y-9230948D01*
X2899047Y-9221424D02*
X2908571Y-9230948D01*
X2899047Y-9240472D01*
X2889523Y-9230948D01*
X2899047Y-9221424D01*
X2899047Y-9240472D01*
X2899047Y-9116662D02*
X2908571Y-9126186D01*
X2899047Y-9135710D01*
X2889523Y-9126186D01*
X2899047Y-9116662D01*
X2899047Y-9135710D01*
D12*
X1234999Y-9552496D02*
X1269999Y-9587496D01*
X1269999Y-9552496D02*
X1234999Y-9587496D01*
D11*
X1565714Y-9460472D02*
X1584761Y-9460472D01*
X1603809Y-9469996D01*
X1613333Y-9479520D01*
X1622856Y-9498567D01*
X1632380Y-9536662D01*
X1632380Y-9584282D01*
X1622856Y-9622377D01*
X1613333Y-9641424D01*
X1603809Y-9650948D01*
X1584761Y-9660472D01*
X1565714Y-9660472D01*
X1546666Y-9650948D01*
X1537142Y-9641424D01*
X1527618Y-9622377D01*
X1518095Y-9584282D01*
X1518095Y-9536662D01*
X1527618Y-9498567D01*
X1537142Y-9479520D01*
X1546666Y-9469996D01*
X1565714Y-9460472D01*
X1718095Y-9641424D02*
X1727618Y-9650948D01*
X1718095Y-9660472D01*
X1708571Y-9650948D01*
X1718095Y-9641424D01*
X1718095Y-9660472D01*
X1794285Y-9460472D02*
X1918095Y-9460472D01*
X1851428Y-9536662D01*
X1879999Y-9536662D01*
X1899047Y-9546186D01*
X1908571Y-9555710D01*
X1918095Y-9574758D01*
X1918095Y-9622377D01*
X1908571Y-9641424D01*
X1899047Y-9650948D01*
X1879999Y-9660472D01*
X1822856Y-9660472D01*
X1803809Y-9650948D01*
X1794285Y-9641424D01*
X2099047Y-9460472D02*
X2003809Y-9460472D01*
X1994285Y-9555710D01*
X2003809Y-9546186D01*
X2022856Y-9536662D01*
X2070475Y-9536662D01*
X2089523Y-9546186D01*
X2099047Y-9555710D01*
X2108571Y-9574758D01*
X2108571Y-9622377D01*
X2099047Y-9641424D01*
X2089523Y-9650948D01*
X2070475Y-9660472D01*
X2022856Y-9660472D01*
X2003809Y-9650948D01*
X1994285Y-9641424D01*
X2232380Y-9460472D02*
X2251428Y-9460472D01*
X2270476Y-9469996D01*
X2279999Y-9479520D01*
X2289523Y-9498567D01*
X2299047Y-9536662D01*
X2299047Y-9584282D01*
X2289523Y-9622377D01*
X2279999Y-9641424D01*
X2270476Y-9650948D01*
X2251428Y-9660472D01*
X2232380Y-9660472D01*
X2213333Y-9650948D01*
X2203809Y-9641424D01*
X2194285Y-9622377D01*
X2184761Y-9584282D01*
X2184761Y-9536662D01*
X2194285Y-9498567D01*
X2203809Y-9479520D01*
X2213333Y-9469996D01*
X2232380Y-9460472D01*
X2384761Y-9660472D02*
X2384761Y-9527139D01*
X2384761Y-9546186D02*
X2394285Y-9536662D01*
X2413333Y-9527139D01*
X2441904Y-9527139D01*
X2460952Y-9536662D01*
X2470476Y-9555710D01*
X2470476Y-9660472D01*
X2470476Y-9555710D02*
X2479999Y-9536662D01*
X2499047Y-9527139D01*
X2527618Y-9527139D01*
X2546666Y-9536662D01*
X2556190Y-9555710D01*
X2556190Y-9660472D01*
X2651428Y-9660472D02*
X2651428Y-9527139D01*
X2651428Y-9546186D02*
X2660952Y-9536662D01*
X2679999Y-9527139D01*
X2708571Y-9527139D01*
X2727618Y-9536662D01*
X2737142Y-9555710D01*
X2737142Y-9660472D01*
X2737142Y-9555710D02*
X2746666Y-9536662D01*
X2765714Y-9527139D01*
X2794285Y-9527139D01*
X2813333Y-9536662D01*
X2822856Y-9555710D01*
X2822856Y-9660472D01*
X3213333Y-9450948D02*
X3041904Y-9708091D01*
X3470475Y-9460472D02*
X3489523Y-9460472D01*
X3508571Y-9469996D01*
X3518095Y-9479520D01*
X3527618Y-9498567D01*
X3537142Y-9536662D01*
X3537142Y-9584282D01*
X3527618Y-9622377D01*
X3518095Y-9641424D01*
X3508571Y-9650948D01*
X3489523Y-9660472D01*
X3470475Y-9660472D01*
X3451428Y-9650948D01*
X3441904Y-9641424D01*
X3432380Y-9622377D01*
X3422856Y-9584282D01*
X3422856Y-9536662D01*
X3432380Y-9498567D01*
X3441904Y-9479520D01*
X3451428Y-9469996D01*
X3470475Y-9460472D01*
X3622856Y-9641424D02*
X3632380Y-9650948D01*
X3622856Y-9660472D01*
X3613333Y-9650948D01*
X3622856Y-9641424D01*
X3622856Y-9660472D01*
X3756190Y-9460472D02*
X3775237Y-9460472D01*
X3794285Y-9469996D01*
X3803809Y-9479520D01*
X3813333Y-9498567D01*
X3822856Y-9536662D01*
X3822856Y-9584282D01*
X3813333Y-9622377D01*
X3803809Y-9641424D01*
X3794285Y-9650948D01*
X3775237Y-9660472D01*
X3756190Y-9660472D01*
X3737142Y-9650948D01*
X3727618Y-9641424D01*
X3718095Y-9622377D01*
X3708571Y-9584282D01*
X3708571Y-9536662D01*
X3718095Y-9498567D01*
X3727618Y-9479520D01*
X3737142Y-9469996D01*
X3756190Y-9460472D01*
X4013333Y-9660472D02*
X3899047Y-9660472D01*
X3956190Y-9660472D02*
X3956190Y-9460472D01*
X3937142Y-9489043D01*
X3918095Y-9508091D01*
X3899047Y-9517615D01*
X4079999Y-9460472D02*
X4203809Y-9460472D01*
X4137142Y-9536662D01*
X4165714Y-9536662D01*
X4184761Y-9546186D01*
X4194285Y-9555710D01*
X4203809Y-9574758D01*
X4203809Y-9622377D01*
X4194285Y-9641424D01*
X4184761Y-9650948D01*
X4165714Y-9660472D01*
X4108571Y-9660472D01*
X4089523Y-9650948D01*
X4079999Y-9641424D01*
X4318095Y-9546186D02*
X4299047Y-9536662D01*
X4289523Y-9527139D01*
X4279999Y-9508091D01*
X4279999Y-9498567D01*
X4289523Y-9479520D01*
X4299047Y-9469996D01*
X4318095Y-9460472D01*
X4356190Y-9460472D01*
X4375237Y-9469996D01*
X4384761Y-9479520D01*
X4394285Y-9498567D01*
X4394285Y-9508091D01*
X4384761Y-9527139D01*
X4375237Y-9536662D01*
X4356190Y-9546186D01*
X4318095Y-9546186D01*
X4299047Y-9555710D01*
X4289523Y-9565234D01*
X4279999Y-9584282D01*
X4279999Y-9622377D01*
X4289523Y-9641424D01*
X4299047Y-9650948D01*
X4318095Y-9660472D01*
X4356190Y-9660472D01*
X4375237Y-9650948D01*
X4384761Y-9641424D01*
X4394285Y-9622377D01*
X4394285Y-9584282D01*
X4384761Y-9565234D01*
X4375237Y-9555710D01*
X4356190Y-9546186D01*
X4470476Y-9460472D02*
X4470476Y-9498567D01*
X4546666Y-9460472D02*
X4546666Y-9498567D01*
X4841904Y-9736662D02*
X4832380Y-9727139D01*
X4813333Y-9698567D01*
X4803809Y-9679520D01*
X4794285Y-9650948D01*
X4784761Y-9603329D01*
X4784761Y-9565234D01*
X4794285Y-9517615D01*
X4803809Y-9489043D01*
X4813333Y-9469996D01*
X4832380Y-9441424D01*
X4841904Y-9431901D01*
X4927618Y-9660472D02*
X4965714Y-9660472D01*
X4984761Y-9650948D01*
X4994285Y-9641424D01*
X5013333Y-9612853D01*
X5022857Y-9574758D01*
X5022857Y-9498567D01*
X5013333Y-9479520D01*
X5003809Y-9469996D01*
X4984761Y-9460472D01*
X4946666Y-9460472D01*
X4927618Y-9469996D01*
X4918095Y-9479520D01*
X4908571Y-9498567D01*
X4908571Y-9546186D01*
X4918095Y-9565234D01*
X4927618Y-9574758D01*
X4946666Y-9584282D01*
X4984761Y-9584282D01*
X5003809Y-9574758D01*
X5013333Y-9565234D01*
X5022857Y-9546186D01*
X5260952Y-9660472D02*
X5260952Y-9460472D01*
X5346666Y-9660472D02*
X5346666Y-9555710D01*
X5337142Y-9536662D01*
X5318095Y-9527139D01*
X5289523Y-9527139D01*
X5270476Y-9536662D01*
X5260952Y-9546186D01*
X5470476Y-9660472D02*
X5451428Y-9650948D01*
X5441904Y-9641424D01*
X5432380Y-9622377D01*
X5432380Y-9565234D01*
X5441904Y-9546186D01*
X5451428Y-9536662D01*
X5470476Y-9527139D01*
X5499047Y-9527139D01*
X5518095Y-9536662D01*
X5527618Y-9546186D01*
X5537142Y-9565234D01*
X5537142Y-9622377D01*
X5527618Y-9641424D01*
X5518095Y-9650948D01*
X5499047Y-9660472D01*
X5470476Y-9660472D01*
X5651428Y-9660472D02*
X5632380Y-9650948D01*
X5622856Y-9631901D01*
X5622856Y-9460472D01*
X5803809Y-9650948D02*
X5784761Y-9660472D01*
X5746666Y-9660472D01*
X5727618Y-9650948D01*
X5718095Y-9631901D01*
X5718095Y-9555710D01*
X5727618Y-9536662D01*
X5746666Y-9527139D01*
X5784761Y-9527139D01*
X5803809Y-9536662D01*
X5813333Y-9555710D01*
X5813333Y-9574758D01*
X5718095Y-9593805D01*
X5889523Y-9650948D02*
X5908571Y-9660472D01*
X5946666Y-9660472D01*
X5965714Y-9650948D01*
X5975237Y-9631901D01*
X5975237Y-9622377D01*
X5965714Y-9603329D01*
X5946666Y-9593805D01*
X5918095Y-9593805D01*
X5899047Y-9584282D01*
X5889523Y-9565234D01*
X5889523Y-9555710D01*
X5899047Y-9536662D01*
X5918095Y-9527139D01*
X5946666Y-9527139D01*
X5965714Y-9536662D01*
X6041904Y-9736662D02*
X6051428Y-9727139D01*
X6070475Y-9698567D01*
X6079999Y-9679520D01*
X6089523Y-9650948D01*
X6099047Y-9603329D01*
X6099047Y-9565234D01*
X6089523Y-9517615D01*
X6079999Y-9489043D01*
X6070475Y-9469996D01*
X6051428Y-9441424D01*
X6041904Y-9431901D01*
D13*
X1269999Y-9833996D02*
G75*
G03*
X1269999Y-9833996I-20000J0D01*
G01*
D11*
X1565714Y-9724472D02*
X1584761Y-9724472D01*
X1603809Y-9733996D01*
X1613333Y-9743520D01*
X1622856Y-9762567D01*
X1632380Y-9800662D01*
X1632380Y-9848282D01*
X1622856Y-9886377D01*
X1613333Y-9905424D01*
X1603809Y-9914948D01*
X1584761Y-9924472D01*
X1565714Y-9924472D01*
X1546666Y-9914948D01*
X1537142Y-9905424D01*
X1527618Y-9886377D01*
X1518095Y-9848282D01*
X1518095Y-9800662D01*
X1527618Y-9762567D01*
X1537142Y-9743520D01*
X1546666Y-9733996D01*
X1565714Y-9724472D01*
X1718095Y-9905424D02*
X1727618Y-9914948D01*
X1718095Y-9924472D01*
X1708571Y-9914948D01*
X1718095Y-9905424D01*
X1718095Y-9924472D01*
X1899047Y-9791139D02*
X1899047Y-9924472D01*
X1851428Y-9714948D02*
X1803809Y-9857805D01*
X1927618Y-9857805D01*
X2041904Y-9724472D02*
X2060952Y-9724472D01*
X2079999Y-9733996D01*
X2089523Y-9743520D01*
X2099047Y-9762567D01*
X2108571Y-9800662D01*
X2108571Y-9848282D01*
X2099047Y-9886377D01*
X2089523Y-9905424D01*
X2079999Y-9914948D01*
X2060952Y-9924472D01*
X2041904Y-9924472D01*
X2022856Y-9914948D01*
X2013333Y-9905424D01*
X2003809Y-9886377D01*
X1994285Y-9848282D01*
X1994285Y-9800662D01*
X2003809Y-9762567D01*
X2013333Y-9743520D01*
X2022856Y-9733996D01*
X2041904Y-9724472D01*
X2232380Y-9724472D02*
X2251428Y-9724472D01*
X2270476Y-9733996D01*
X2279999Y-9743520D01*
X2289523Y-9762567D01*
X2299047Y-9800662D01*
X2299047Y-9848282D01*
X2289523Y-9886377D01*
X2279999Y-9905424D01*
X2270476Y-9914948D01*
X2251428Y-9924472D01*
X2232380Y-9924472D01*
X2213333Y-9914948D01*
X2203809Y-9905424D01*
X2194285Y-9886377D01*
X2184761Y-9848282D01*
X2184761Y-9800662D01*
X2194285Y-9762567D01*
X2203809Y-9743520D01*
X2213333Y-9733996D01*
X2232380Y-9724472D01*
X2384761Y-9924472D02*
X2384761Y-9791139D01*
X2384761Y-9810186D02*
X2394285Y-9800662D01*
X2413333Y-9791139D01*
X2441904Y-9791139D01*
X2460952Y-9800662D01*
X2470476Y-9819710D01*
X2470476Y-9924472D01*
X2470476Y-9819710D02*
X2479999Y-9800662D01*
X2499047Y-9791139D01*
X2527618Y-9791139D01*
X2546666Y-9800662D01*
X2556190Y-9819710D01*
X2556190Y-9924472D01*
X2651428Y-9924472D02*
X2651428Y-9791139D01*
X2651428Y-9810186D02*
X2660952Y-9800662D01*
X2679999Y-9791139D01*
X2708571Y-9791139D01*
X2727618Y-9800662D01*
X2737142Y-9819710D01*
X2737142Y-9924472D01*
X2737142Y-9819710D02*
X2746666Y-9800662D01*
X2765714Y-9791139D01*
X2794285Y-9791139D01*
X2813333Y-9800662D01*
X2822856Y-9819710D01*
X2822856Y-9924472D01*
X3213333Y-9714948D02*
X3041904Y-9972091D01*
X3470475Y-9724472D02*
X3489523Y-9724472D01*
X3508571Y-9733996D01*
X3518095Y-9743520D01*
X3527618Y-9762567D01*
X3537142Y-9800662D01*
X3537142Y-9848282D01*
X3527618Y-9886377D01*
X3518095Y-9905424D01*
X3508571Y-9914948D01*
X3489523Y-9924472D01*
X3470475Y-9924472D01*
X3451428Y-9914948D01*
X3441904Y-9905424D01*
X3432380Y-9886377D01*
X3422856Y-9848282D01*
X3422856Y-9800662D01*
X3432380Y-9762567D01*
X3441904Y-9743520D01*
X3451428Y-9733996D01*
X3470475Y-9724472D01*
X3622856Y-9905424D02*
X3632380Y-9914948D01*
X3622856Y-9924472D01*
X3613333Y-9914948D01*
X3622856Y-9905424D01*
X3622856Y-9924472D01*
X3756190Y-9724472D02*
X3775237Y-9724472D01*
X3794285Y-9733996D01*
X3803809Y-9743520D01*
X3813333Y-9762567D01*
X3822856Y-9800662D01*
X3822856Y-9848282D01*
X3813333Y-9886377D01*
X3803809Y-9905424D01*
X3794285Y-9914948D01*
X3775237Y-9924472D01*
X3756190Y-9924472D01*
X3737142Y-9914948D01*
X3727618Y-9905424D01*
X3718095Y-9886377D01*
X3708571Y-9848282D01*
X3708571Y-9800662D01*
X3718095Y-9762567D01*
X3727618Y-9743520D01*
X3737142Y-9733996D01*
X3756190Y-9724472D01*
X4013333Y-9924472D02*
X3899047Y-9924472D01*
X3956190Y-9924472D02*
X3956190Y-9724472D01*
X3937142Y-9753043D01*
X3918095Y-9772091D01*
X3899047Y-9781615D01*
X4194285Y-9724472D02*
X4099047Y-9724472D01*
X4089523Y-9819710D01*
X4099047Y-9810186D01*
X4118095Y-9800662D01*
X4165714Y-9800662D01*
X4184761Y-9810186D01*
X4194285Y-9819710D01*
X4203809Y-9838758D01*
X4203809Y-9886377D01*
X4194285Y-9905424D01*
X4184761Y-9914948D01*
X4165714Y-9924472D01*
X4118095Y-9924472D01*
X4099047Y-9914948D01*
X4089523Y-9905424D01*
X4270476Y-9724472D02*
X4403809Y-9724472D01*
X4318095Y-9924472D01*
X4470476Y-9724472D02*
X4470476Y-9762567D01*
X4546666Y-9724472D02*
X4546666Y-9762567D01*
X4841904Y-10000662D02*
X4832380Y-9991139D01*
X4813333Y-9962567D01*
X4803809Y-9943520D01*
X4794285Y-9914948D01*
X4784761Y-9867329D01*
X4784761Y-9829234D01*
X4794285Y-9781615D01*
X4803809Y-9753043D01*
X4813333Y-9733996D01*
X4832380Y-9705424D01*
X4841904Y-9695901D01*
X5013333Y-9724472D02*
X4918095Y-9724472D01*
X4908571Y-9819710D01*
X4918095Y-9810186D01*
X4937142Y-9800662D01*
X4984761Y-9800662D01*
X5003809Y-9810186D01*
X5013333Y-9819710D01*
X5022857Y-9838758D01*
X5022857Y-9886377D01*
X5013333Y-9905424D01*
X5003809Y-9914948D01*
X4984761Y-9924472D01*
X4937142Y-9924472D01*
X4918095Y-9914948D01*
X4908571Y-9905424D01*
X5203809Y-9724472D02*
X5108571Y-9724472D01*
X5099047Y-9819710D01*
X5108571Y-9810186D01*
X5127618Y-9800662D01*
X5175237Y-9800662D01*
X5194285Y-9810186D01*
X5203809Y-9819710D01*
X5213333Y-9838758D01*
X5213333Y-9886377D01*
X5203809Y-9905424D01*
X5194285Y-9914948D01*
X5175237Y-9924472D01*
X5127618Y-9924472D01*
X5108571Y-9914948D01*
X5099047Y-9905424D01*
X5451428Y-9924472D02*
X5451428Y-9724472D01*
X5537142Y-9924472D02*
X5537142Y-9819710D01*
X5527618Y-9800662D01*
X5508571Y-9791139D01*
X5479999Y-9791139D01*
X5460952Y-9800662D01*
X5451428Y-9810186D01*
X5660952Y-9924472D02*
X5641904Y-9914948D01*
X5632380Y-9905424D01*
X5622856Y-9886377D01*
X5622856Y-9829234D01*
X5632380Y-9810186D01*
X5641904Y-9800662D01*
X5660952Y-9791139D01*
X5689523Y-9791139D01*
X5708571Y-9800662D01*
X5718095Y-9810186D01*
X5727618Y-9829234D01*
X5727618Y-9886377D01*
X5718095Y-9905424D01*
X5708571Y-9914948D01*
X5689523Y-9924472D01*
X5660952Y-9924472D01*
X5841904Y-9924472D02*
X5822856Y-9914948D01*
X5813333Y-9895901D01*
X5813333Y-9724472D01*
X5994285Y-9914948D02*
X5975237Y-9924472D01*
X5937142Y-9924472D01*
X5918095Y-9914948D01*
X5908571Y-9895901D01*
X5908571Y-9819710D01*
X5918095Y-9800662D01*
X5937142Y-9791139D01*
X5975237Y-9791139D01*
X5994285Y-9800662D01*
X6003809Y-9819710D01*
X6003809Y-9838758D01*
X5908571Y-9857805D01*
X6079999Y-9914948D02*
X6099047Y-9924472D01*
X6137142Y-9924472D01*
X6156190Y-9914948D01*
X6165714Y-9895901D01*
X6165714Y-9886377D01*
X6156190Y-9867329D01*
X6137142Y-9857805D01*
X6108571Y-9857805D01*
X6089523Y-9848282D01*
X6079999Y-9829234D01*
X6079999Y-9819710D01*
X6089523Y-9800662D01*
X6108571Y-9791139D01*
X6137142Y-9791139D01*
X6156190Y-9800662D01*
X6232380Y-10000662D02*
X6241904Y-9991139D01*
X6260952Y-9962567D01*
X6270475Y-9943520D01*
X6279999Y-9914948D01*
X6289523Y-9867329D01*
X6289523Y-9829234D01*
X6279999Y-9781615D01*
X6270475Y-9753043D01*
X6260952Y-9733996D01*
X6241904Y-9705424D01*
X6232380Y-9695901D01*
D14*
X1239999Y-10067996D02*
X1239999Y-10127996D01*
X1209999Y-10097996D02*
X1269999Y-10097996D01*
D11*
X1565714Y-9988472D02*
X1584761Y-9988472D01*
X1603809Y-9997996D01*
X1613333Y-10007520D01*
X1622856Y-10026567D01*
X1632380Y-10064662D01*
X1632380Y-10112282D01*
X1622856Y-10150377D01*
X1613333Y-10169424D01*
X1603809Y-10178948D01*
X1584761Y-10188472D01*
X1565714Y-10188472D01*
X1546666Y-10178948D01*
X1537142Y-10169424D01*
X1527618Y-10150377D01*
X1518095Y-10112282D01*
X1518095Y-10064662D01*
X1527618Y-10026567D01*
X1537142Y-10007520D01*
X1546666Y-9997996D01*
X1565714Y-9988472D01*
X1718095Y-10169424D02*
X1727618Y-10178948D01*
X1718095Y-10188472D01*
X1708571Y-10178948D01*
X1718095Y-10169424D01*
X1718095Y-10188472D01*
X1899047Y-9988472D02*
X1860952Y-9988472D01*
X1841904Y-9997996D01*
X1832380Y-10007520D01*
X1813333Y-10036091D01*
X1803809Y-10074186D01*
X1803809Y-10150377D01*
X1813333Y-10169424D01*
X1822856Y-10178948D01*
X1841904Y-10188472D01*
X1879999Y-10188472D01*
X1899047Y-10178948D01*
X1908571Y-10169424D01*
X1918095Y-10150377D01*
X1918095Y-10102758D01*
X1908571Y-10083710D01*
X1899047Y-10074186D01*
X1879999Y-10064662D01*
X1841904Y-10064662D01*
X1822856Y-10074186D01*
X1813333Y-10083710D01*
X1803809Y-10102758D01*
X2041904Y-9988472D02*
X2060952Y-9988472D01*
X2079999Y-9997996D01*
X2089523Y-10007520D01*
X2099047Y-10026567D01*
X2108571Y-10064662D01*
X2108571Y-10112282D01*
X2099047Y-10150377D01*
X2089523Y-10169424D01*
X2079999Y-10178948D01*
X2060952Y-10188472D01*
X2041904Y-10188472D01*
X2022856Y-10178948D01*
X2013333Y-10169424D01*
X2003809Y-10150377D01*
X1994285Y-10112282D01*
X1994285Y-10064662D01*
X2003809Y-10026567D01*
X2013333Y-10007520D01*
X2022856Y-9997996D01*
X2041904Y-9988472D01*
X2232380Y-9988472D02*
X2251428Y-9988472D01*
X2270476Y-9997996D01*
X2279999Y-10007520D01*
X2289523Y-10026567D01*
X2299047Y-10064662D01*
X2299047Y-10112282D01*
X2289523Y-10150377D01*
X2279999Y-10169424D01*
X2270476Y-10178948D01*
X2251428Y-10188472D01*
X2232380Y-10188472D01*
X2213333Y-10178948D01*
X2203809Y-10169424D01*
X2194285Y-10150377D01*
X2184761Y-10112282D01*
X2184761Y-10064662D01*
X2194285Y-10026567D01*
X2203809Y-10007520D01*
X2213333Y-9997996D01*
X2232380Y-9988472D01*
X2384761Y-10188472D02*
X2384761Y-10055139D01*
X2384761Y-10074186D02*
X2394285Y-10064662D01*
X2413333Y-10055139D01*
X2441904Y-10055139D01*
X2460952Y-10064662D01*
X2470476Y-10083710D01*
X2470476Y-10188472D01*
X2470476Y-10083710D02*
X2479999Y-10064662D01*
X2499047Y-10055139D01*
X2527618Y-10055139D01*
X2546666Y-10064662D01*
X2556190Y-10083710D01*
X2556190Y-10188472D01*
X2651428Y-10188472D02*
X2651428Y-10055139D01*
X2651428Y-10074186D02*
X2660952Y-10064662D01*
X2679999Y-10055139D01*
X2708571Y-10055139D01*
X2727618Y-10064662D01*
X2737142Y-10083710D01*
X2737142Y-10188472D01*
X2737142Y-10083710D02*
X2746666Y-10064662D01*
X2765714Y-10055139D01*
X2794285Y-10055139D01*
X2813333Y-10064662D01*
X2822856Y-10083710D01*
X2822856Y-10188472D01*
X3213333Y-9978948D02*
X3041904Y-10236091D01*
X3470475Y-9988472D02*
X3489523Y-9988472D01*
X3508571Y-9997996D01*
X3518095Y-10007520D01*
X3527618Y-10026567D01*
X3537142Y-10064662D01*
X3537142Y-10112282D01*
X3527618Y-10150377D01*
X3518095Y-10169424D01*
X3508571Y-10178948D01*
X3489523Y-10188472D01*
X3470475Y-10188472D01*
X3451428Y-10178948D01*
X3441904Y-10169424D01*
X3432380Y-10150377D01*
X3422856Y-10112282D01*
X3422856Y-10064662D01*
X3432380Y-10026567D01*
X3441904Y-10007520D01*
X3451428Y-9997996D01*
X3470475Y-9988472D01*
X3622856Y-10169424D02*
X3632380Y-10178948D01*
X3622856Y-10188472D01*
X3613333Y-10178948D01*
X3622856Y-10169424D01*
X3622856Y-10188472D01*
X3756190Y-9988472D02*
X3775237Y-9988472D01*
X3794285Y-9997996D01*
X3803809Y-10007520D01*
X3813333Y-10026567D01*
X3822856Y-10064662D01*
X3822856Y-10112282D01*
X3813333Y-10150377D01*
X3803809Y-10169424D01*
X3794285Y-10178948D01*
X3775237Y-10188472D01*
X3756190Y-10188472D01*
X3737142Y-10178948D01*
X3727618Y-10169424D01*
X3718095Y-10150377D01*
X3708571Y-10112282D01*
X3708571Y-10064662D01*
X3718095Y-10026567D01*
X3727618Y-10007520D01*
X3737142Y-9997996D01*
X3756190Y-9988472D01*
X3899047Y-10007520D02*
X3908571Y-9997996D01*
X3927618Y-9988472D01*
X3975237Y-9988472D01*
X3994285Y-9997996D01*
X4003809Y-10007520D01*
X4013333Y-10026567D01*
X4013333Y-10045615D01*
X4003809Y-10074186D01*
X3889523Y-10188472D01*
X4013333Y-10188472D01*
X4079999Y-9988472D02*
X4203809Y-9988472D01*
X4137142Y-10064662D01*
X4165714Y-10064662D01*
X4184761Y-10074186D01*
X4194285Y-10083710D01*
X4203809Y-10102758D01*
X4203809Y-10150377D01*
X4194285Y-10169424D01*
X4184761Y-10178948D01*
X4165714Y-10188472D01*
X4108571Y-10188472D01*
X4089523Y-10178948D01*
X4079999Y-10169424D01*
X4375237Y-9988472D02*
X4337142Y-9988472D01*
X4318095Y-9997996D01*
X4308571Y-10007520D01*
X4289523Y-10036091D01*
X4279999Y-10074186D01*
X4279999Y-10150377D01*
X4289523Y-10169424D01*
X4299047Y-10178948D01*
X4318095Y-10188472D01*
X4356190Y-10188472D01*
X4375237Y-10178948D01*
X4384761Y-10169424D01*
X4394285Y-10150377D01*
X4394285Y-10102758D01*
X4384761Y-10083710D01*
X4375237Y-10074186D01*
X4356190Y-10064662D01*
X4318095Y-10064662D01*
X4299047Y-10074186D01*
X4289523Y-10083710D01*
X4279999Y-10102758D01*
X4470476Y-9988472D02*
X4470476Y-10026567D01*
X4546666Y-9988472D02*
X4546666Y-10026567D01*
X4841904Y-10264662D02*
X4832380Y-10255139D01*
X4813333Y-10226567D01*
X4803809Y-10207520D01*
X4794285Y-10178948D01*
X4784761Y-10131329D01*
X4784761Y-10093234D01*
X4794285Y-10045615D01*
X4803809Y-10017043D01*
X4813333Y-9997996D01*
X4832380Y-9969424D01*
X4841904Y-9959901D01*
X4956190Y-9988472D02*
X4975237Y-9988472D01*
X4994285Y-9997996D01*
X5003809Y-10007520D01*
X5013333Y-10026567D01*
X5022857Y-10064662D01*
X5022857Y-10112282D01*
X5013333Y-10150377D01*
X5003809Y-10169424D01*
X4994285Y-10178948D01*
X4975237Y-10188472D01*
X4956190Y-10188472D01*
X4937142Y-10178948D01*
X4927618Y-10169424D01*
X4918095Y-10150377D01*
X4908571Y-10112282D01*
X4908571Y-10064662D01*
X4918095Y-10026567D01*
X4927618Y-10007520D01*
X4937142Y-9997996D01*
X4956190Y-9988472D01*
X5260952Y-10188472D02*
X5260952Y-9988472D01*
X5346666Y-10188472D02*
X5346666Y-10083710D01*
X5337142Y-10064662D01*
X5318095Y-10055139D01*
X5289523Y-10055139D01*
X5270476Y-10064662D01*
X5260952Y-10074186D01*
X5470476Y-10188472D02*
X5451428Y-10178948D01*
X5441904Y-10169424D01*
X5432380Y-10150377D01*
X5432380Y-10093234D01*
X5441904Y-10074186D01*
X5451428Y-10064662D01*
X5470476Y-10055139D01*
X5499047Y-10055139D01*
X5518095Y-10064662D01*
X5527618Y-10074186D01*
X5537142Y-10093234D01*
X5537142Y-10150377D01*
X5527618Y-10169424D01*
X5518095Y-10178948D01*
X5499047Y-10188472D01*
X5470476Y-10188472D01*
X5651428Y-10188472D02*
X5632380Y-10178948D01*
X5622856Y-10159901D01*
X5622856Y-9988472D01*
X5803809Y-10178948D02*
X5784761Y-10188472D01*
X5746666Y-10188472D01*
X5727618Y-10178948D01*
X5718095Y-10159901D01*
X5718095Y-10083710D01*
X5727618Y-10064662D01*
X5746666Y-10055139D01*
X5784761Y-10055139D01*
X5803809Y-10064662D01*
X5813333Y-10083710D01*
X5813333Y-10102758D01*
X5718095Y-10121805D01*
X5889523Y-10178948D02*
X5908571Y-10188472D01*
X5946666Y-10188472D01*
X5965714Y-10178948D01*
X5975237Y-10159901D01*
X5975237Y-10150377D01*
X5965714Y-10131329D01*
X5946666Y-10121805D01*
X5918095Y-10121805D01*
X5899047Y-10112282D01*
X5889523Y-10093234D01*
X5889523Y-10083710D01*
X5899047Y-10064662D01*
X5918095Y-10055139D01*
X5946666Y-10055139D01*
X5965714Y-10064662D01*
X6213333Y-10112282D02*
X6365714Y-10112282D01*
X6289523Y-10188472D02*
X6289523Y-10036091D01*
X6699047Y-10055139D02*
X6699047Y-10188472D01*
X6651428Y-9978948D02*
X6603809Y-10121805D01*
X6727618Y-10121805D01*
X6946666Y-10178948D02*
X6965714Y-10188472D01*
X7003809Y-10188472D01*
X7022856Y-10178948D01*
X7032380Y-10159901D01*
X7032380Y-10150377D01*
X7022856Y-10131329D01*
X7003809Y-10121805D01*
X6975237Y-10121805D01*
X6956190Y-10112282D01*
X6946666Y-10093234D01*
X6946666Y-10083710D01*
X6956190Y-10064662D01*
X6975237Y-10055139D01*
X7003809Y-10055139D01*
X7022856Y-10064662D01*
X7146666Y-10188472D02*
X7127618Y-10178948D01*
X7118095Y-10159901D01*
X7118095Y-9988472D01*
X7251428Y-10188472D02*
X7232380Y-10178948D01*
X7222856Y-10169424D01*
X7213333Y-10150377D01*
X7213333Y-10093234D01*
X7222856Y-10074186D01*
X7232380Y-10064662D01*
X7251428Y-10055139D01*
X7279999Y-10055139D01*
X7299047Y-10064662D01*
X7308571Y-10074186D01*
X7318095Y-10093234D01*
X7318095Y-10150377D01*
X7308571Y-10169424D01*
X7299047Y-10178948D01*
X7279999Y-10188472D01*
X7251428Y-10188472D01*
X7375237Y-10055139D02*
X7451428Y-10055139D01*
X7403809Y-9988472D02*
X7403809Y-10159901D01*
X7413333Y-10178948D01*
X7432380Y-10188472D01*
X7451428Y-10188472D01*
X7508571Y-10178948D02*
X7527618Y-10188472D01*
X7565714Y-10188472D01*
X7584761Y-10178948D01*
X7594285Y-10159901D01*
X7594285Y-10150377D01*
X7584761Y-10131329D01*
X7565714Y-10121805D01*
X7537142Y-10121805D01*
X7518095Y-10112282D01*
X7508571Y-10093234D01*
X7508571Y-10083710D01*
X7518095Y-10064662D01*
X7537142Y-10055139D01*
X7565714Y-10055139D01*
X7584761Y-10064662D01*
X7660952Y-10264662D02*
X7670475Y-10255139D01*
X7689523Y-10226567D01*
X7699047Y-10207520D01*
X7708571Y-10178948D01*
X7718095Y-10131329D01*
X7718095Y-10093234D01*
X7708571Y-10045615D01*
X7699047Y-10017043D01*
X7689523Y-9997996D01*
X7670475Y-9969424D01*
X7660952Y-9959901D01*
D15*
X1255355Y-10397352D02*
X1255355Y-10326640D01*
X1184644Y-10326640D01*
X1184644Y-10397352D01*
X1255355Y-10397352D01*
D11*
X1632380Y-10452472D02*
X1518095Y-10452472D01*
X1575237Y-10452472D02*
X1575237Y-10252472D01*
X1556190Y-10281043D01*
X1537142Y-10300091D01*
X1518095Y-10309615D01*
X1718095Y-10433424D02*
X1727618Y-10442948D01*
X1718095Y-10452472D01*
X1708571Y-10442948D01*
X1718095Y-10433424D01*
X1718095Y-10452472D01*
X1851428Y-10252472D02*
X1870475Y-10252472D01*
X1889523Y-10261996D01*
X1899047Y-10271520D01*
X1908571Y-10290567D01*
X1918095Y-10328662D01*
X1918095Y-10376282D01*
X1908571Y-10414377D01*
X1899047Y-10433424D01*
X1889523Y-10442948D01*
X1870475Y-10452472D01*
X1851428Y-10452472D01*
X1832380Y-10442948D01*
X1822856Y-10433424D01*
X1813333Y-10414377D01*
X1803809Y-10376282D01*
X1803809Y-10328662D01*
X1813333Y-10290567D01*
X1822856Y-10271520D01*
X1832380Y-10261996D01*
X1851428Y-10252472D01*
X2041904Y-10252472D02*
X2060952Y-10252472D01*
X2079999Y-10261996D01*
X2089523Y-10271520D01*
X2099047Y-10290567D01*
X2108571Y-10328662D01*
X2108571Y-10376282D01*
X2099047Y-10414377D01*
X2089523Y-10433424D01*
X2079999Y-10442948D01*
X2060952Y-10452472D01*
X2041904Y-10452472D01*
X2022856Y-10442948D01*
X2013333Y-10433424D01*
X2003809Y-10414377D01*
X1994285Y-10376282D01*
X1994285Y-10328662D01*
X2003809Y-10290567D01*
X2013333Y-10271520D01*
X2022856Y-10261996D01*
X2041904Y-10252472D01*
X2232380Y-10252472D02*
X2251428Y-10252472D01*
X2270476Y-10261996D01*
X2279999Y-10271520D01*
X2289523Y-10290567D01*
X2299047Y-10328662D01*
X2299047Y-10376282D01*
X2289523Y-10414377D01*
X2279999Y-10433424D01*
X2270476Y-10442948D01*
X2251428Y-10452472D01*
X2232380Y-10452472D01*
X2213333Y-10442948D01*
X2203809Y-10433424D01*
X2194285Y-10414377D01*
X2184761Y-10376282D01*
X2184761Y-10328662D01*
X2194285Y-10290567D01*
X2203809Y-10271520D01*
X2213333Y-10261996D01*
X2232380Y-10252472D01*
X2384761Y-10452472D02*
X2384761Y-10319139D01*
X2384761Y-10338186D02*
X2394285Y-10328662D01*
X2413333Y-10319139D01*
X2441904Y-10319139D01*
X2460952Y-10328662D01*
X2470476Y-10347710D01*
X2470476Y-10452472D01*
X2470476Y-10347710D02*
X2479999Y-10328662D01*
X2499047Y-10319139D01*
X2527618Y-10319139D01*
X2546666Y-10328662D01*
X2556190Y-10347710D01*
X2556190Y-10452472D01*
X2651428Y-10452472D02*
X2651428Y-10319139D01*
X2651428Y-10338186D02*
X2660952Y-10328662D01*
X2679999Y-10319139D01*
X2708571Y-10319139D01*
X2727618Y-10328662D01*
X2737142Y-10347710D01*
X2737142Y-10452472D01*
X2737142Y-10347710D02*
X2746666Y-10328662D01*
X2765714Y-10319139D01*
X2794285Y-10319139D01*
X2813333Y-10328662D01*
X2822856Y-10347710D01*
X2822856Y-10452472D01*
X3213333Y-10242948D02*
X3041904Y-10500091D01*
X3470475Y-10252472D02*
X3489523Y-10252472D01*
X3508571Y-10261996D01*
X3518095Y-10271520D01*
X3527618Y-10290567D01*
X3537142Y-10328662D01*
X3537142Y-10376282D01*
X3527618Y-10414377D01*
X3518095Y-10433424D01*
X3508571Y-10442948D01*
X3489523Y-10452472D01*
X3470475Y-10452472D01*
X3451428Y-10442948D01*
X3441904Y-10433424D01*
X3432380Y-10414377D01*
X3422856Y-10376282D01*
X3422856Y-10328662D01*
X3432380Y-10290567D01*
X3441904Y-10271520D01*
X3451428Y-10261996D01*
X3470475Y-10252472D01*
X3622856Y-10433424D02*
X3632380Y-10442948D01*
X3622856Y-10452472D01*
X3613333Y-10442948D01*
X3622856Y-10433424D01*
X3622856Y-10452472D01*
X3756190Y-10252472D02*
X3775237Y-10252472D01*
X3794285Y-10261996D01*
X3803809Y-10271520D01*
X3813333Y-10290567D01*
X3822856Y-10328662D01*
X3822856Y-10376282D01*
X3813333Y-10414377D01*
X3803809Y-10433424D01*
X3794285Y-10442948D01*
X3775237Y-10452472D01*
X3756190Y-10452472D01*
X3737142Y-10442948D01*
X3727618Y-10433424D01*
X3718095Y-10414377D01*
X3708571Y-10376282D01*
X3708571Y-10328662D01*
X3718095Y-10290567D01*
X3727618Y-10271520D01*
X3737142Y-10261996D01*
X3756190Y-10252472D01*
X3889523Y-10252472D02*
X4013333Y-10252472D01*
X3946666Y-10328662D01*
X3975237Y-10328662D01*
X3994285Y-10338186D01*
X4003809Y-10347710D01*
X4013333Y-10366758D01*
X4013333Y-10414377D01*
X4003809Y-10433424D01*
X3994285Y-10442948D01*
X3975237Y-10452472D01*
X3918095Y-10452472D01*
X3899047Y-10442948D01*
X3889523Y-10433424D01*
X4108571Y-10452472D02*
X4146666Y-10452472D01*
X4165714Y-10442948D01*
X4175237Y-10433424D01*
X4194285Y-10404853D01*
X4203809Y-10366758D01*
X4203809Y-10290567D01*
X4194285Y-10271520D01*
X4184761Y-10261996D01*
X4165714Y-10252472D01*
X4127618Y-10252472D01*
X4108571Y-10261996D01*
X4099047Y-10271520D01*
X4089523Y-10290567D01*
X4089523Y-10338186D01*
X4099047Y-10357234D01*
X4108571Y-10366758D01*
X4127618Y-10376282D01*
X4165714Y-10376282D01*
X4184761Y-10366758D01*
X4194285Y-10357234D01*
X4203809Y-10338186D01*
X4375237Y-10319139D02*
X4375237Y-10452472D01*
X4327618Y-10242948D02*
X4279999Y-10385805D01*
X4403809Y-10385805D01*
X4470476Y-10252472D02*
X4470476Y-10290567D01*
X4546666Y-10252472D02*
X4546666Y-10290567D01*
X4841904Y-10528662D02*
X4832380Y-10519139D01*
X4813333Y-10490567D01*
X4803809Y-10471520D01*
X4794285Y-10442948D01*
X4784761Y-10395329D01*
X4784761Y-10357234D01*
X4794285Y-10309615D01*
X4803809Y-10281043D01*
X4813333Y-10261996D01*
X4832380Y-10233424D01*
X4841904Y-10223901D01*
X5003809Y-10252472D02*
X4965714Y-10252472D01*
X4946666Y-10261996D01*
X4937142Y-10271520D01*
X4918095Y-10300091D01*
X4908571Y-10338186D01*
X4908571Y-10414377D01*
X4918095Y-10433424D01*
X4927618Y-10442948D01*
X4946666Y-10452472D01*
X4984761Y-10452472D01*
X5003809Y-10442948D01*
X5013333Y-10433424D01*
X5022857Y-10414377D01*
X5022857Y-10366758D01*
X5013333Y-10347710D01*
X5003809Y-10338186D01*
X4984761Y-10328662D01*
X4946666Y-10328662D01*
X4927618Y-10338186D01*
X4918095Y-10347710D01*
X4908571Y-10366758D01*
X5260952Y-10452472D02*
X5260952Y-10252472D01*
X5346666Y-10452472D02*
X5346666Y-10347710D01*
X5337142Y-10328662D01*
X5318095Y-10319139D01*
X5289523Y-10319139D01*
X5270476Y-10328662D01*
X5260952Y-10338186D01*
X5470476Y-10452472D02*
X5451428Y-10442948D01*
X5441904Y-10433424D01*
X5432380Y-10414377D01*
X5432380Y-10357234D01*
X5441904Y-10338186D01*
X5451428Y-10328662D01*
X5470476Y-10319139D01*
X5499047Y-10319139D01*
X5518095Y-10328662D01*
X5527618Y-10338186D01*
X5537142Y-10357234D01*
X5537142Y-10414377D01*
X5527618Y-10433424D01*
X5518095Y-10442948D01*
X5499047Y-10452472D01*
X5470476Y-10452472D01*
X5651428Y-10452472D02*
X5632380Y-10442948D01*
X5622856Y-10423901D01*
X5622856Y-10252472D01*
X5803809Y-10442948D02*
X5784761Y-10452472D01*
X5746666Y-10452472D01*
X5727618Y-10442948D01*
X5718095Y-10423901D01*
X5718095Y-10347710D01*
X5727618Y-10328662D01*
X5746666Y-10319139D01*
X5784761Y-10319139D01*
X5803809Y-10328662D01*
X5813333Y-10347710D01*
X5813333Y-10366758D01*
X5718095Y-10385805D01*
X5889523Y-10442948D02*
X5908571Y-10452472D01*
X5946666Y-10452472D01*
X5965714Y-10442948D01*
X5975237Y-10423901D01*
X5975237Y-10414377D01*
X5965714Y-10395329D01*
X5946666Y-10385805D01*
X5918095Y-10385805D01*
X5899047Y-10376282D01*
X5889523Y-10357234D01*
X5889523Y-10347710D01*
X5899047Y-10328662D01*
X5918095Y-10319139D01*
X5946666Y-10319139D01*
X5965714Y-10328662D01*
X6041904Y-10528662D02*
X6051428Y-10519139D01*
X6070475Y-10490567D01*
X6079999Y-10471520D01*
X6089523Y-10442948D01*
X6099047Y-10395329D01*
X6099047Y-10357234D01*
X6089523Y-10309615D01*
X6079999Y-10281043D01*
X6070475Y-10261996D01*
X6051428Y-10233424D01*
X6041904Y-10223901D01*
X1169999Y-10725996D02*
X1269999Y-10625996D01*
X1169999Y-10525996D01*
X1069999Y-10625996D01*
X1169999Y-10725996D01*
X1518095Y-10535520D02*
X1527618Y-10525996D01*
X1546666Y-10516472D01*
X1594285Y-10516472D01*
X1613333Y-10525996D01*
X1622856Y-10535520D01*
X1632380Y-10554567D01*
X1632380Y-10573615D01*
X1622856Y-10602186D01*
X1508571Y-10716472D01*
X1632380Y-10716472D01*
X1718095Y-10697424D02*
X1727618Y-10706948D01*
X1718095Y-10716472D01*
X1708571Y-10706948D01*
X1718095Y-10697424D01*
X1718095Y-10716472D01*
X1803809Y-10535520D02*
X1813333Y-10525996D01*
X1832380Y-10516472D01*
X1879999Y-10516472D01*
X1899047Y-10525996D01*
X1908571Y-10535520D01*
X1918095Y-10554567D01*
X1918095Y-10573615D01*
X1908571Y-10602186D01*
X1794285Y-10716472D01*
X1918095Y-10716472D01*
X2041904Y-10516472D02*
X2060952Y-10516472D01*
X2079999Y-10525996D01*
X2089523Y-10535520D01*
X2099047Y-10554567D01*
X2108571Y-10592662D01*
X2108571Y-10640282D01*
X2099047Y-10678377D01*
X2089523Y-10697424D01*
X2079999Y-10706948D01*
X2060952Y-10716472D01*
X2041904Y-10716472D01*
X2022856Y-10706948D01*
X2013333Y-10697424D01*
X2003809Y-10678377D01*
X1994285Y-10640282D01*
X1994285Y-10592662D01*
X2003809Y-10554567D01*
X2013333Y-10535520D01*
X2022856Y-10525996D01*
X2041904Y-10516472D01*
X2232380Y-10516472D02*
X2251428Y-10516472D01*
X2270476Y-10525996D01*
X2279999Y-10535520D01*
X2289523Y-10554567D01*
X2299047Y-10592662D01*
X2299047Y-10640282D01*
X2289523Y-10678377D01*
X2279999Y-10697424D01*
X2270476Y-10706948D01*
X2251428Y-10716472D01*
X2232380Y-10716472D01*
X2213333Y-10706948D01*
X2203809Y-10697424D01*
X2194285Y-10678377D01*
X2184761Y-10640282D01*
X2184761Y-10592662D01*
X2194285Y-10554567D01*
X2203809Y-10535520D01*
X2213333Y-10525996D01*
X2232380Y-10516472D01*
X2384761Y-10716472D02*
X2384761Y-10583139D01*
X2384761Y-10602186D02*
X2394285Y-10592662D01*
X2413333Y-10583139D01*
X2441904Y-10583139D01*
X2460952Y-10592662D01*
X2470476Y-10611710D01*
X2470476Y-10716472D01*
X2470476Y-10611710D02*
X2479999Y-10592662D01*
X2499047Y-10583139D01*
X2527618Y-10583139D01*
X2546666Y-10592662D01*
X2556190Y-10611710D01*
X2556190Y-10716472D01*
X2651428Y-10716472D02*
X2651428Y-10583139D01*
X2651428Y-10602186D02*
X2660952Y-10592662D01*
X2679999Y-10583139D01*
X2708571Y-10583139D01*
X2727618Y-10592662D01*
X2737142Y-10611710D01*
X2737142Y-10716472D01*
X2737142Y-10611710D02*
X2746666Y-10592662D01*
X2765714Y-10583139D01*
X2794285Y-10583139D01*
X2813333Y-10592662D01*
X2822856Y-10611710D01*
X2822856Y-10716472D01*
X3213333Y-10506948D02*
X3041904Y-10764091D01*
X3470475Y-10516472D02*
X3489523Y-10516472D01*
X3508571Y-10525996D01*
X3518095Y-10535520D01*
X3527618Y-10554567D01*
X3537142Y-10592662D01*
X3537142Y-10640282D01*
X3527618Y-10678377D01*
X3518095Y-10697424D01*
X3508571Y-10706948D01*
X3489523Y-10716472D01*
X3470475Y-10716472D01*
X3451428Y-10706948D01*
X3441904Y-10697424D01*
X3432380Y-10678377D01*
X3422856Y-10640282D01*
X3422856Y-10592662D01*
X3432380Y-10554567D01*
X3441904Y-10535520D01*
X3451428Y-10525996D01*
X3470475Y-10516472D01*
X3622856Y-10697424D02*
X3632380Y-10706948D01*
X3622856Y-10716472D01*
X3613333Y-10706948D01*
X3622856Y-10697424D01*
X3622856Y-10716472D01*
X3756190Y-10516472D02*
X3775237Y-10516472D01*
X3794285Y-10525996D01*
X3803809Y-10535520D01*
X3813333Y-10554567D01*
X3822856Y-10592662D01*
X3822856Y-10640282D01*
X3813333Y-10678377D01*
X3803809Y-10697424D01*
X3794285Y-10706948D01*
X3775237Y-10716472D01*
X3756190Y-10716472D01*
X3737142Y-10706948D01*
X3727618Y-10697424D01*
X3718095Y-10678377D01*
X3708571Y-10640282D01*
X3708571Y-10592662D01*
X3718095Y-10554567D01*
X3727618Y-10535520D01*
X3737142Y-10525996D01*
X3756190Y-10516472D01*
X3937142Y-10602186D02*
X3918095Y-10592662D01*
X3908571Y-10583139D01*
X3899047Y-10564091D01*
X3899047Y-10554567D01*
X3908571Y-10535520D01*
X3918095Y-10525996D01*
X3937142Y-10516472D01*
X3975237Y-10516472D01*
X3994285Y-10525996D01*
X4003809Y-10535520D01*
X4013333Y-10554567D01*
X4013333Y-10564091D01*
X4003809Y-10583139D01*
X3994285Y-10592662D01*
X3975237Y-10602186D01*
X3937142Y-10602186D01*
X3918095Y-10611710D01*
X3908571Y-10621234D01*
X3899047Y-10640282D01*
X3899047Y-10678377D01*
X3908571Y-10697424D01*
X3918095Y-10706948D01*
X3937142Y-10716472D01*
X3975237Y-10716472D01*
X3994285Y-10706948D01*
X4003809Y-10697424D01*
X4013333Y-10678377D01*
X4013333Y-10640282D01*
X4003809Y-10621234D01*
X3994285Y-10611710D01*
X3975237Y-10602186D01*
X4184761Y-10516472D02*
X4146666Y-10516472D01*
X4127618Y-10525996D01*
X4118095Y-10535520D01*
X4099047Y-10564091D01*
X4089523Y-10602186D01*
X4089523Y-10678377D01*
X4099047Y-10697424D01*
X4108571Y-10706948D01*
X4127618Y-10716472D01*
X4165714Y-10716472D01*
X4184761Y-10706948D01*
X4194285Y-10697424D01*
X4203809Y-10678377D01*
X4203809Y-10630758D01*
X4194285Y-10611710D01*
X4184761Y-10602186D01*
X4165714Y-10592662D01*
X4127618Y-10592662D01*
X4108571Y-10602186D01*
X4099047Y-10611710D01*
X4089523Y-10630758D01*
X4375237Y-10516472D02*
X4337142Y-10516472D01*
X4318095Y-10525996D01*
X4308571Y-10535520D01*
X4289523Y-10564091D01*
X4279999Y-10602186D01*
X4279999Y-10678377D01*
X4289523Y-10697424D01*
X4299047Y-10706948D01*
X4318095Y-10716472D01*
X4356190Y-10716472D01*
X4375237Y-10706948D01*
X4384761Y-10697424D01*
X4394285Y-10678377D01*
X4394285Y-10630758D01*
X4384761Y-10611710D01*
X4375237Y-10602186D01*
X4356190Y-10592662D01*
X4318095Y-10592662D01*
X4299047Y-10602186D01*
X4289523Y-10611710D01*
X4279999Y-10630758D01*
X4470476Y-10516472D02*
X4470476Y-10554567D01*
X4546666Y-10516472D02*
X4546666Y-10554567D01*
X4841904Y-10792662D02*
X4832380Y-10783139D01*
X4813333Y-10754567D01*
X4803809Y-10735520D01*
X4794285Y-10706948D01*
X4784761Y-10659329D01*
X4784761Y-10621234D01*
X4794285Y-10573615D01*
X4803809Y-10545043D01*
X4813333Y-10525996D01*
X4832380Y-10497424D01*
X4841904Y-10487901D01*
X5003809Y-10516472D02*
X4965714Y-10516472D01*
X4946666Y-10525996D01*
X4937142Y-10535520D01*
X4918095Y-10564091D01*
X4908571Y-10602186D01*
X4908571Y-10678377D01*
X4918095Y-10697424D01*
X4927618Y-10706948D01*
X4946666Y-10716472D01*
X4984761Y-10716472D01*
X5003809Y-10706948D01*
X5013333Y-10697424D01*
X5022857Y-10678377D01*
X5022857Y-10630758D01*
X5013333Y-10611710D01*
X5003809Y-10602186D01*
X4984761Y-10592662D01*
X4946666Y-10592662D01*
X4927618Y-10602186D01*
X4918095Y-10611710D01*
X4908571Y-10630758D01*
X5260952Y-10716472D02*
X5260952Y-10516472D01*
X5346666Y-10716472D02*
X5346666Y-10611710D01*
X5337142Y-10592662D01*
X5318095Y-10583139D01*
X5289523Y-10583139D01*
X5270476Y-10592662D01*
X5260952Y-10602186D01*
X5470476Y-10716472D02*
X5451428Y-10706948D01*
X5441904Y-10697424D01*
X5432380Y-10678377D01*
X5432380Y-10621234D01*
X5441904Y-10602186D01*
X5451428Y-10592662D01*
X5470476Y-10583139D01*
X5499047Y-10583139D01*
X5518095Y-10592662D01*
X5527618Y-10602186D01*
X5537142Y-10621234D01*
X5537142Y-10678377D01*
X5527618Y-10697424D01*
X5518095Y-10706948D01*
X5499047Y-10716472D01*
X5470476Y-10716472D01*
X5651428Y-10716472D02*
X5632380Y-10706948D01*
X5622856Y-10687901D01*
X5622856Y-10516472D01*
X5803809Y-10706948D02*
X5784761Y-10716472D01*
X5746666Y-10716472D01*
X5727618Y-10706948D01*
X5718095Y-10687901D01*
X5718095Y-10611710D01*
X5727618Y-10592662D01*
X5746666Y-10583139D01*
X5784761Y-10583139D01*
X5803809Y-10592662D01*
X5813333Y-10611710D01*
X5813333Y-10630758D01*
X5718095Y-10649805D01*
X5889523Y-10706948D02*
X5908571Y-10716472D01*
X5946666Y-10716472D01*
X5965714Y-10706948D01*
X5975237Y-10687901D01*
X5975237Y-10678377D01*
X5965714Y-10659329D01*
X5946666Y-10649805D01*
X5918095Y-10649805D01*
X5899047Y-10640282D01*
X5889523Y-10621234D01*
X5889523Y-10611710D01*
X5899047Y-10592662D01*
X5918095Y-10583139D01*
X5946666Y-10583139D01*
X5965714Y-10592662D01*
X6041904Y-10792662D02*
X6051428Y-10783139D01*
X6070475Y-10754567D01*
X6079999Y-10735520D01*
X6089523Y-10706948D01*
X6099047Y-10659329D01*
X6099047Y-10621234D01*
X6089523Y-10573615D01*
X6079999Y-10545043D01*
X6070475Y-10525996D01*
X6051428Y-10497424D01*
X6041904Y-10487901D01*
M02*
