%TF.GenerationSoftware,KiCad,Pcbnew,(6.0.4-0)*%
%TF.CreationDate,2023-04-02T18:55:50-05:00*%
%TF.ProjectId,noldaCoreRType,6e6f6c64-6143-46f7-9265-52547970652e,rev?*%
%TF.SameCoordinates,Original*%
%TF.FileFunction,Soldermask,Bot*%
%TF.FilePolarity,Negative*%
%FSLAX46Y46*%
G04 Gerber Fmt 4.6, Leading zero omitted, Abs format (unit mm)*
G04 Created by KiCad (PCBNEW (6.0.4-0)) date 2023-04-02 18:55:50*
%MOMM*%
%LPD*%
G01*
G04 APERTURE LIST*
%ADD10C,3.500000*%
%ADD11C,0.900000*%
%ADD12O,1.000000X2.100000*%
%ADD13O,1.000000X1.600000*%
%ADD14C,0.650000*%
%ADD15R,1.700000X1.700000*%
%ADD16O,1.700000X1.700000*%
%ADD17C,3.429000*%
%ADD18C,1.701800*%
%ADD19C,3.000000*%
%ADD20C,0.990600*%
G04 APERTURE END LIST*
D10*
%TO.C,H3*%
X14874993Y-53124975D03*
%TD*%
%TO.C,H4*%
X78624963Y-53124975D03*
%TD*%
D11*
%TO.C,SW6*%
X67374969Y-14544993D03*
X64374969Y-14544993D03*
%TD*%
D10*
%TO.C,H2*%
X63749970Y-72249966D03*
%TD*%
D12*
%TO.C,J2*%
X51069978Y-17979993D03*
D13*
X51069978Y-13799993D03*
X42429978Y-13799993D03*
D12*
X42429978Y-17979993D03*
D14*
X49639978Y-17479993D03*
X43859978Y-17479993D03*
%TD*%
D10*
%TO.C,H1*%
X29749986Y-72249966D03*
%TD*%
D15*
%TO.C,J4*%
X78624963Y-35538319D03*
D16*
X78624963Y-32998319D03*
X78624963Y-30458319D03*
X78624963Y-27918319D03*
X78624963Y-25378319D03*
X78624963Y-22838319D03*
%TD*%
D10*
%TO.C,H5*%
X78624963Y-14874993D03*
%TD*%
%TO.C,H6*%
X14874993Y-14874993D03*
%TD*%
D17*
%TO.C,SW10*%
X72249966Y-80749962D03*
D18*
X77749966Y-80749962D03*
X66749966Y-80749962D03*
D19*
X67249966Y-76999962D03*
D20*
X77469966Y-84949962D03*
D19*
X72249966Y-74799962D03*
%TD*%
%TO.C,SW7*%
X21249990Y-86699962D03*
D18*
X26749990Y-80749962D03*
X15749990Y-80749962D03*
D17*
X21249990Y-80749962D03*
D19*
X26249990Y-84499962D03*
D20*
X16029990Y-76549962D03*
%TD*%
D18*
%TO.C,SW5*%
X66749966Y-63749970D03*
X77749966Y-63749970D03*
D20*
X77469966Y-67949970D03*
D19*
X72249966Y-57799970D03*
X67249966Y-59999970D03*
D17*
X72249966Y-63749970D03*
%TD*%
D18*
%TO.C,SW3*%
X43749982Y-63749970D03*
X32749982Y-63749970D03*
D19*
X43249982Y-67499970D03*
D17*
X38249982Y-63749970D03*
D20*
X33029982Y-59549970D03*
D19*
X38249982Y-69699970D03*
%TD*%
%TO.C,SW9*%
X55249974Y-74799962D03*
D18*
X49749974Y-80749962D03*
D20*
X60469974Y-84949962D03*
D19*
X50249974Y-76999962D03*
D18*
X60749974Y-80749962D03*
D17*
X55249974Y-80749962D03*
%TD*%
D18*
%TO.C,SW8*%
X32749982Y-80749962D03*
X43749982Y-80749962D03*
D19*
X33249982Y-76999962D03*
D20*
X43469982Y-84949962D03*
D19*
X38249982Y-74799962D03*
D17*
X38249982Y-80749962D03*
%TD*%
%TO.C,SW2*%
X21249990Y-63749970D03*
D19*
X21249990Y-69699970D03*
D20*
X16029990Y-59549970D03*
D19*
X26249990Y-67499970D03*
D18*
X15749990Y-63749970D03*
X26749990Y-63749970D03*
%TD*%
D20*
%TO.C,SW4*%
X50029974Y-59549970D03*
D18*
X60749974Y-63749970D03*
D19*
X55249974Y-69699970D03*
X60249974Y-67499970D03*
D17*
X55249974Y-63749970D03*
D18*
X49749974Y-63749970D03*
%TD*%
M02*
