<?xml version="1.0" encoding="UTF-8" standalone="no"?>
<!-- Generator: Fusion 360, Shaper Origin Export Add-In, Version 1.6.3  -->

<svg
   shaper:fusionaddin="version:1.6.3"
   width="6.8cm"
   height="4.25cm"
   version="1.1"
   x="0cm"
   y="0cm"
   viewBox="0 0 6.8 4.25"
   enable-background="new 0 0 6.8 4.25"
   xml:space="preserve"
   id="svg894"
   sodipodi:docname="black-screen-cover.svg"
   inkscape:version="1.1.1 (c3084ef, 2021-09-22)"
   xmlns:inkscape="http://www.inkscape.org/namespaces/inkscape"
   xmlns:sodipodi="http://sodipodi.sourceforge.net/DTD/sodipodi-0.dtd"
   xmlns="http://www.w3.org/2000/svg"
   xmlns:svg="http://www.w3.org/2000/svg"
   xmlns:shaper="http://www.shapertools.com/namespaces/shaper"><defs
     id="defs898" /><sodipodi:namedview
     id="namedview896"
     pagecolor="#505050"
     bordercolor="#eeeeee"
     borderopacity="1"
     inkscape:pageshadow="0"
     inkscape:pageopacity="0"
     inkscape:pagecheckerboard="0"
     inkscape:document-units="cm"
     showgrid="false"
     inkscape:zoom="4.2234732"
     inkscape:cx="135.55194"
     inkscape:cy="64.757129"
     inkscape:window-width="2260"
     inkscape:window-height="1167"
     inkscape:window-x="1701"
     inkscape:window-y="509"
     inkscape:window-maximized="0"
     inkscape:current-layer="svg894" /><path
     d="M 0,4.05 V 0.2 C 0,0.0895431 0.08954305,0 0.2,0 h 6.4 c 0.1104569,0 0.2,0.089543 0.2,0.2 v 3.85 c 0,0.110457 -0.089543,0.2 -0.2,0.2 H 0.2 C 0.13950241,4.25 0.08527853,4.223139 0.04860408,4.1806927 0.01831806,4.1456403 0,4.0999594 0,4.05 Z"
     fill="#000000"
     shaper:cutDepth="0.001"
     stroke-linecap="round"
     stroke-linejoin="round"
     id="path882"
     style="fill:none;stroke:#ff0000;stroke-width:0.01;stroke-miterlimit:4;stroke-dasharray:none;stroke-opacity:1"
     sodipodi:nodetypes="ssssssssss" /><path
     d="m 0.1025,4.0375 a 0.11,0.11 0 1 1 0.22,0 0.11,0.11 0 1 1 -0.22,0 z"
     fill="#ffffff"
     stroke="#000000"
     stroke-width="0.001cm"
     stroke-linecap="round"
     stroke-linejoin="round"
     shaper:cutDepth="0.001"
     id="path884"
     style="stroke-width:0.01;stroke-miterlimit:4;stroke-dasharray:none;stroke:#ff0000;stroke-opacity:1;fill:none" /><path
     d="m 6.4775,0.2125 a 0.11,0.11 0 1 1 0.22,0 0.11,0.11 0 1 1 -0.22,0 z"
     fill="#ffffff"
     stroke="#000000"
     stroke-width="0.001cm"
     stroke-linecap="round"
     stroke-linejoin="round"
     shaper:cutDepth="0.001"
     id="path886"
     style="stroke-width:0.01;stroke-miterlimit:4;stroke-dasharray:none;stroke:#ff0000;stroke-opacity:1;fill:none" /><path
     d="m 6.4775,4.0375 a 0.11,0.11 0 1 1 0.22,0 0.11,0.11 0 1 1 -0.22,0 z"
     fill="#ffffff"
     stroke="#000000"
     stroke-width="0.001cm"
     stroke-linecap="round"
     stroke-linejoin="round"
     shaper:cutDepth="0.001"
     id="path888"
     style="stroke-width:0.01;stroke-miterlimit:4;stroke-dasharray:none;stroke:#ff0000;stroke-opacity:1;fill:none" /><path
     d="m 0.1025,0.2125 a 0.11,0.11 0 1 1 0.22,0 0.11,0.11 0 1 1 -0.22,0 z"
     fill="#ffffff"
     stroke="#000000"
     stroke-width="0.001cm"
     stroke-linecap="round"
     stroke-linejoin="round"
     shaper:cutDepth="0.001"
     id="path890"
     style="stroke-width:0.01;stroke-miterlimit:4;stroke-dasharray:none;stroke:#ff0000;stroke-opacity:1;fill:none" /><path
     d="M 4.37,3.225 H 2.43 A 0.16,0.16 0 0 1 2.27,3.065 v -2.15 a 0.16,0.16 0 0 1 0.16,-0.16 h 1.94 a 0.16,0.16 0 0 1 0.16,0.16 v 2.15 a 0.16,0.16 0 0 1 -0.16,0.16 z"
     fill="#ffffff"
     stroke="#000000"
     stroke-width="0.001cm"
     stroke-linecap="round"
     stroke-linejoin="round"
     shaper:cutDepth="0.001"
     id="path892"
     style="stroke-width:0.01;stroke-miterlimit:4;stroke-dasharray:none;stroke:#ff0000;stroke-opacity:1;fill:none" /><text
     xml:space="preserve"
     style="font-size:0.352778px;line-height:1.25;font-family:'.Hiragino Kaku Gothic Interface';-inkscape-font-specification:'.Hiragino Kaku Gothic Interface';fill:#000000;fill-opacity:1;stroke:none;stroke-width:0.01;stroke-miterlimit:4;stroke-dasharray:none;stroke-opacity:1"
     x="2.4445732"
     y="3.877543"
     id="text6268"><tspan
       sodipodi:role="line"
       id="tspan6266"
       style="font-style:normal;font-variant:normal;font-weight:normal;font-stretch:normal;font-size:0.352778px;font-family:Comfortaa;-inkscape-font-specification:Comfortaa;fill:#000000;fill-opacity:1;stroke:none;stroke-width:0.01;stroke-miterlimit:4;stroke-dasharray:none;stroke-opacity:1"
       x="2.4445732"
       y="3.877543">noldaCore</tspan></text></svg>
