<?xml version="1.0" encoding="UTF-8" standalone="no"?>
<!-- Generator: Fusion 360, Shaper Origin Export Add-In, Version 1.6.3  -->

<svg
   shaper:fusionaddin="version:1.6.3"
   width="6.8cm"
   height="4.25cm"
   version="1.1"
   x="0cm"
   y="0cm"
   viewBox="0 0 6.8 4.25"
   enable-background="new 0 0 6.8 4.25"
   xml:space="preserve"
   id="svg934"
   sodipodi:docname="clear-screen-cover.svg"
   inkscape:version="1.1.1 (c3084ef, 2021-09-22)"
   xmlns:inkscape="http://www.inkscape.org/namespaces/inkscape"
   xmlns:sodipodi="http://sodipodi.sourceforge.net/DTD/sodipodi-0.dtd"
   xmlns="http://www.w3.org/2000/svg"
   xmlns:svg="http://www.w3.org/2000/svg"
   xmlns:shaper="http://www.shapertools.com/namespaces/shaper"><defs
     id="defs938" /><sodipodi:namedview
     id="namedview936"
     pagecolor="#505050"
     bordercolor="#eeeeee"
     borderopacity="1"
     inkscape:pageshadow="0"
     inkscape:pageopacity="0"
     inkscape:pagecheckerboard="0"
     inkscape:document-units="cm"
     showgrid="false"
     inkscape:zoom="4.6255392"
     inkscape:cx="128.41746"
     inkscape:cy="80.747343"
     inkscape:window-width="2391"
     inkscape:window-height="969"
     inkscape:window-x="2417"
     inkscape:window-y="898"
     inkscape:window-maximized="0"
     inkscape:current-layer="svg934" /><path
     d="M-0.2,4.05 L-0.2,0.2 A0.2,0.2 180 0,1 -0,0 L6.4,0 A0.2,0.2 270 0,1 6.6,0.2 L6.6,4.05 A0.2,0.2 0 0,1 6.4,4.25 L0,4.25 A0.2,0.2 90 0,1 -0.2,4.05z"
     transform="matrix(1,0,0,-1,0.2,4.25)"
     fill="rgb(0,0,0)"
     shaper:cutDepth="0.001"
     stroke-linecap="round"
     stroke-linejoin="round"
     id="path924"
     style="fill:none;fill-opacity:1;stroke:#ff0000;stroke-opacity:1;stroke-width:0.01;stroke-miterlimit:4;stroke-dasharray:none" /><path
     d="M-0.0975,4.0375 a0.11,0.11 0 1,1 0.22,0 a0.11,0.11 0 1,1 -0.22,0z"
     transform="matrix(1,0,0,-1,0.2,4.25)"
     fill="rgb(255,255,255)"
     stroke="rgb(0,0,0)"
     stroke-width="0.0010cm"
     stroke-linecap="round"
     stroke-linejoin="round"
     shaper:cutDepth="0.001"
     id="path926"
     style="stroke-width:0.01;stroke-miterlimit:4;stroke-dasharray:none;stroke:#ff0000;stroke-opacity:1;fill:none" /><path
     d="M-0.0975,0.2125 a0.11,0.11 0 1,1 0.22,0 a0.11,0.11 0 1,1 -0.22,0z"
     transform="matrix(1,0,0,-1,0.2,4.25)"
     fill="rgb(255,255,255)"
     stroke="rgb(0,0,0)"
     stroke-width="0.0010cm"
     stroke-linecap="round"
     stroke-linejoin="round"
     shaper:cutDepth="0.001"
     id="path928"
     style="stroke-width:0.01;stroke-miterlimit:4;stroke-dasharray:none;stroke:#ff0000;stroke-opacity:1;fill:none" /><path
     d="M6.2775,0.2125 a0.11,0.11 0 1,1 0.22,0 a0.11,0.11 0 1,1 -0.22,0z"
     transform="matrix(1,0,0,-1,0.2,4.25)"
     fill="rgb(255,255,255)"
     stroke="rgb(0,0,0)"
     stroke-width="0.0010cm"
     stroke-linecap="round"
     stroke-linejoin="round"
     shaper:cutDepth="0.001"
     id="path930"
     style="stroke-width:0.01;stroke-miterlimit:4;stroke-dasharray:none;stroke:#ff0000;stroke-opacity:1;fill:none" /><path
     d="M6.2775,4.0375 a0.11,0.11 0 1,1 0.22,0 a0.11,0.11 0 1,1 -0.22,0z"
     transform="matrix(1,0,0,-1,0.2,4.25)"
     fill="rgb(255,255,255)"
     stroke="rgb(0,0,0)"
     stroke-width="0.0010cm"
     stroke-linecap="round"
     stroke-linejoin="round"
     shaper:cutDepth="0.001"
     id="path932"
     style="stroke-width:0.01;stroke-miterlimit:4;stroke-dasharray:none;stroke:#ff0000;stroke-opacity:1;fill:none" /></svg>
