0
SECTION
2
HEADER
9
$INSUNITS
70
4
0
ENDSEC
0
SECTION
2
TABLES
0
TABLE
2
LTYPE
0
LTYPE
72
65
70
64
2
CONTINUOUS
3
______
73
0
40
0
0
ENDTAB
0
TABLE
2
LAYER
0
ENDTAB
0
ENDSEC
0
SECTION
2
ENTITIES
0
LINE
8
0
10
27.5
20
-14.25
11
40.5
21
-14.25
0
LINE
8
0
10
27.5
20
-28.25
11
40.5
21
-28.25
0
LINE
8
0
10
27
20
-14.75
11
27
21
-27.75
0
LINE
8
0
10
41
20
-14.75
11
41
21
-27.75
0
ARC
8
0
10
27.5
20
-14.75
40
0.5
50
90
51
180
0
ARC
8
0
10
40.5
20
-14.75
40
0.5
50
0
51
90
0
ARC
8
0
10
27.5
20
-27.75
40
0.5
50
180
51
270
0
ARC
8
0
10
40.5
20
-27.75
40
0.5
50
270
51
0
0
LINE
8
0
10
2
20
-44
11
15
21
-44
0
LINE
8
0
10
2
20
-58
11
15
21
-58
0
LINE
8
0
10
1.5
20
-44.5
11
1.5
21
-57.5
0
LINE
8
0
10
15.5
20
-44.5
11
15.5
21
-57.5
0
ARC
8
0
10
2
20
-44.5
40
0.5
50
90
51
180
0
ARC
8
0
10
15
20
-44.5
40
0.5
50
0
51
90
0
ARC
8
0
10
2
20
-57.5
40
0.5
50
180
51
270
0
ARC
8
0
10
15
20
-57.5
40
0.5
50
270
51
0
0
LINE
8
0
10
19
20
-44
11
32
21
-44
0
LINE
8
0
10
19
20
-58
11
32
21
-58
0
LINE
8
0
10
18.5
20
-44.5
11
18.5
21
-57.5
0
LINE
8
0
10
32.5
20
-44.5
11
32.5
21
-57.5
0
ARC
8
0
10
19
20
-44.5
40
0.5
50
90
51
180
0
ARC
8
0
10
32
20
-44.5
40
0.5
50
0
51
90
0
ARC
8
0
10
19
20
-57.5
40
0.5
50
180
51
270
0
ARC
8
0
10
32
20
-57.5
40
0.5
50
270
51
0
0
LINE
8
0
10
36
20
-44
11
49
21
-44
0
LINE
8
0
10
36
20
-58
11
49
21
-58
0
LINE
8
0
10
35.5
20
-44.5
11
35.5
21
-57.5
0
LINE
8
0
10
49.5
20
-44.5
11
49.5
21
-57.5
0
ARC
8
0
10
36
20
-44.5
40
0.5
50
90
51
180
0
ARC
8
0
10
49
20
-44.5
40
0.5
50
0
51
90
0
ARC
8
0
10
36
20
-57.5
40
0.5
50
180
51
270
0
ARC
8
0
10
49
20
-57.5
40
0.5
50
270
51
0
0
LINE
8
0
10
53
20
-44
11
66
21
-44
0
LINE
8
0
10
53
20
-58
11
66
21
-58
0
LINE
8
0
10
52.5
20
-44.5
11
52.5
21
-57.5
0
LINE
8
0
10
66.5
20
-44.5
11
66.5
21
-57.5
0
ARC
8
0
10
53
20
-44.5
40
0.5
50
90
51
180
0
ARC
8
0
10
66
20
-44.5
40
0.5
50
0
51
90
0
ARC
8
0
10
53
20
-57.5
40
0.5
50
180
51
270
0
ARC
8
0
10
66
20
-57.5
40
0.5
50
270
51
0
0
LINE
8
0
10
2
20
-61
11
15
21
-61
0
LINE
8
0
10
2
20
-75
11
15
21
-75
0
LINE
8
0
10
1.5
20
-61.5
11
1.5
21
-74.5
0
LINE
8
0
10
15.5
20
-61.5
11
15.5
21
-74.5
0
ARC
8
0
10
2
20
-61.5
40
0.5
50
90
51
180
0
ARC
8
0
10
15
20
-61.5
40
0.5
50
0
51
90
0
ARC
8
0
10
2
20
-74.5
40
0.5
50
180
51
270
0
ARC
8
0
10
15
20
-74.5
40
0.5
50
270
51
0
0
LINE
8
0
10
19
20
-61
11
32
21
-61
0
LINE
8
0
10
19
20
-75
11
32
21
-75
0
LINE
8
0
10
18.5
20
-61.5
11
18.5
21
-74.5
0
LINE
8
0
10
32.5
20
-61.5
11
32.5
21
-74.5
0
ARC
8
0
10
19
20
-61.5
40
0.5
50
90
51
180
0
ARC
8
0
10
32
20
-61.5
40
0.5
50
0
51
90
0
ARC
8
0
10
19
20
-74.5
40
0.5
50
180
51
270
0
ARC
8
0
10
32
20
-74.5
40
0.5
50
270
51
0
0
LINE
8
0
10
36
20
-61
11
49
21
-61
0
LINE
8
0
10
36
20
-75
11
49
21
-75
0
LINE
8
0
10
35.5
20
-61.5
11
35.5
21
-74.5
0
LINE
8
0
10
49.5
20
-61.5
11
49.5
21
-74.5
0
ARC
8
0
10
36
20
-61.5
40
0.5
50
90
51
180
0
ARC
8
0
10
49
20
-61.5
40
0.5
50
0
51
90
0
ARC
8
0
10
36
20
-74.5
40
0.5
50
180
51
270
0
ARC
8
0
10
49
20
-74.5
40
0.5
50
270
51
0
0
LINE
8
0
10
53
20
-61
11
66
21
-61
0
LINE
8
0
10
53
20
-75
11
66
21
-75
0
LINE
8
0
10
52.5
20
-61.5
11
52.5
21
-74.5
0
LINE
8
0
10
66.5
20
-61.5
11
66.5
21
-74.5
0
ARC
8
0
10
53
20
-61.5
40
0.5
50
90
51
180
0
ARC
8
0
10
66
20
-61.5
40
0.5
50
0
51
90
0
ARC
8
0
10
53
20
-74.5
40
0.5
50
180
51
270
0
ARC
8
0
10
66
20
-74.5
40
0.5
50
270
51
0
0
LINE
8
0
10
0
20
-76.5
11
68
21
-76.5
0
LINE
8
0
10
0
20
0
11
68
21
0
0
LINE
8
0
10
0
20
-76.5
11
0
21
0
0
LINE
8
0
10
68
20
-76.5
11
68
21
0
0
ENDSEC
0
EOF