<svg width="68mm" height="76.5mm" viewBox="0 0 68 76.5" xmlns="http://www.w3.org/2000/svg"><g id="svgGroup" stroke-linecap="round" fill-rule="evenodd" font-size="9pt" stroke="#000" stroke-width="0.25mm" fill="none" style="stroke:#000;stroke-width:0.25mm;fill:none"><path d="M 0 76.5 L 68 76.5 L 68 0 L 0 0 L 0 76.5 Z M 27.5 14.25 L 40.5 14.25 A 0.5 0.5 0 0 1 41 14.75 L 41 27.75 A 0.5 0.5 0 0 1 40.5 28.25 L 27.5 28.25 A 0.5 0.5 0 0 1 27 27.75 L 27 14.75 A 0.5 0.5 0 0 1 27.5 14.25 Z M 2 44 L 15 44 A 0.5 0.5 0 0 1 15.5 44.5 L 15.5 57.5 A 0.5 0.5 0 0 1 15 58 L 2 58 A 0.5 0.5 0 0 1 1.5 57.5 L 1.5 44.5 A 0.5 0.5 0 0 1 2 44 Z M 19 44 L 32 44 A 0.5 0.5 0 0 1 32.5 44.5 L 32.5 57.5 A 0.5 0.5 0 0 1 32 58 L 19 58 A 0.5 0.5 0 0 1 18.5 57.5 L 18.5 44.5 A 0.5 0.5 0 0 1 19 44 Z M 36 44 L 49 44 A 0.5 0.5 0 0 1 49.5 44.5 L 49.5 57.5 A 0.5 0.5 0 0 1 49 58 L 36 58 A 0.5 0.5 0 0 1 35.5 57.5 L 35.5 44.5 A 0.5 0.5 0 0 1 36 44 Z M 53 44 L 66 44 A 0.5 0.5 0 0 1 66.5 44.5 L 66.5 57.5 A 0.5 0.5 0 0 1 66 58 L 53 58 A 0.5 0.5 0 0 1 52.5 57.5 L 52.5 44.5 A 0.5 0.5 0 0 1 53 44 Z M 2 61 L 15 61 A 0.5 0.5 0 0 1 15.5 61.5 L 15.5 74.5 A 0.5 0.5 0 0 1 15 75 L 2 75 A 0.5 0.5 0 0 1 1.5 74.5 L 1.5 61.5 A 0.5 0.5 0 0 1 2 61 Z M 19 61 L 32 61 A 0.5 0.5 0 0 1 32.5 61.5 L 32.5 74.5 A 0.5 0.5 0 0 1 32 75 L 19 75 A 0.5 0.5 0 0 1 18.5 74.5 L 18.5 61.5 A 0.5 0.5 0 0 1 19 61 Z M 36 61 L 49 61 A 0.5 0.5 0 0 1 49.5 61.5 L 49.5 74.5 A 0.5 0.5 0 0 1 49 75 L 36 75 A 0.5 0.5 0 0 1 35.5 74.5 L 35.5 61.5 A 0.5 0.5 0 0 1 36 61 Z M 53 61 L 66 61 A 0.5 0.5 0 0 1 66.5 61.5 L 66.5 74.5 A 0.5 0.5 0 0 1 66 75 L 53 75 A 0.5 0.5 0 0 1 52.5 74.5 L 52.5 61.5 A 0.5 0.5 0 0 1 53 61 Z" vector-effect="non-scaling-stroke"/></g></svg>